<svg xmlns="http://www.w3.org/2000/svg" xmlns:xlink="http://www.w3.org/1999/xlink" width="500" zoomAndPan="magnify" viewBox="0 0 375 374.999991" height="500" preserveAspectRatio="xMidYMid meet" version="1.0"><path fill="#ffffff" d="M 166.28125 59.269531 C 165.671875 59.039062 165.050781 58.855469 164.417969 58.714844 C 163.785156 58.578125 163.140625 58.488281 162.492188 58.445312 C 161.84375 58.402344 161.199219 58.410156 160.550781 58.46875 C 159.902344 58.523438 159.265625 58.628906 158.632812 58.777344 C 158 58.929688 157.382812 59.128906 156.78125 59.375 C 156.179688 59.621094 155.601562 59.910156 155.042969 60.242188 C 154.484375 60.574219 153.953125 60.945312 153.453125 61.359375 C 152.949219 61.769531 152.480469 62.21875 152.046875 62.699219 L 97.640625 123.125 L 51.640625 123.125 C 50.792969 123.125 49.949219 123.207031 49.117188 123.375 C 48.285156 123.539062 47.476562 123.785156 46.691406 124.109375 C 45.90625 124.433594 45.160156 124.832031 44.453125 125.304688 C 43.746094 125.777344 43.09375 126.3125 42.492188 126.914062 C 41.890625 127.515625 41.355469 128.167969 40.882812 128.875 C 40.410156 129.582031 40.011719 130.328125 39.6875 131.113281 C 39.363281 131.898438 39.117188 132.707031 38.953125 133.539062 C 38.785156 134.371094 38.703125 135.214844 38.703125 136.0625 L 38.703125 246.042969 C 38.703125 246.894531 38.785156 247.734375 38.953125 248.570312 C 39.117188 249.402344 39.363281 250.210938 39.6875 250.996094 C 40.011719 251.78125 40.410156 252.527344 40.882812 253.234375 C 41.355469 253.9375 41.890625 254.59375 42.492188 255.195312 C 43.09375 255.792969 43.746094 256.332031 44.453125 256.800781 C 45.160156 257.273438 45.90625 257.671875 46.691406 258 C 47.476562 258.324219 48.285156 258.570312 49.117188 258.734375 C 49.949219 258.898438 50.792969 258.984375 51.640625 258.984375 L 98.027344 258.984375 L 152.4375 313.390625 C 153.339844 314.300781 154.355469 315.0625 155.484375 315.667969 C 156.613281 316.277344 157.804688 316.707031 159.0625 316.960938 C 160.316406 317.214844 161.585938 317.28125 162.859375 317.160156 C 164.136719 317.035156 165.367188 316.730469 166.554688 316.242188 C 167.738281 315.753906 168.828125 315.101562 169.820312 314.289062 C 170.8125 313.476562 171.664062 312.539062 172.378906 311.472656 C 173.089844 310.40625 173.632812 309.261719 174.003906 308.035156 C 174.375 306.804688 174.5625 305.550781 174.5625 304.269531 L 174.5625 71.371094 C 174.5625 70.71875 174.515625 70.070312 174.417969 69.429688 C 174.324219 68.785156 174.179688 68.152344 173.988281 67.53125 C 173.796875 66.910156 173.558594 66.304688 173.273438 65.71875 C 172.992188 65.132812 172.667969 64.570312 172.300781 64.035156 C 171.933594 63.496094 171.527344 62.992188 171.082031 62.515625 C 170.636719 62.039062 170.160156 61.601562 169.652344 61.195312 C 169.140625 60.792969 168.601562 60.429688 168.039062 60.105469 C 167.472656 59.785156 166.886719 59.503906 166.28125 59.269531 Z M 148.683594 273.023438 L 112.519531 236.859375 C 111.304688 235.65625 109.910156 234.726562 108.328125 234.078125 C 106.75 233.429688 105.105469 233.105469 103.398438 233.105469 L 64.582031 233.105469 L 64.582031 149.003906 L 103.398438 149.003906 C 105.234375 149.007812 106.992188 148.636719 108.671875 147.894531 C 110.351562 147.148438 111.804688 146.097656 113.035156 144.734375 L 148.683594 105.074219 L 148.683594 273.28125 Z M 148.683594 273.023438 " fill-opacity="1" fill-rule="nonzero"/><path fill="#ffffff" d="M 249.21875 97.246094 C 248.617188 96.648438 247.960938 96.113281 247.25 95.640625 C 246.542969 95.171875 245.796875 94.773438 245.007812 94.449219 C 244.222656 94.128906 243.410156 93.882812 242.578125 93.71875 C 241.742188 93.558594 240.898438 93.476562 240.046875 93.480469 C 239.199219 93.480469 238.355469 93.566406 237.523438 93.734375 C 236.6875 93.90625 235.878906 94.152344 235.09375 94.480469 C 234.308594 94.808594 233.566406 95.210938 232.859375 95.683594 C 232.152344 96.160156 231.5 96.699219 230.902344 97.304688 C 230.300781 97.90625 229.769531 98.5625 229.296875 99.273438 C 228.828125 99.980469 228.429688 100.730469 228.109375 101.515625 C 227.785156 102.304688 227.542969 103.113281 227.382812 103.949219 C 227.21875 104.785156 227.140625 105.625 227.140625 106.476562 C 227.144531 107.328125 227.230469 108.167969 227.402344 109.003906 C 227.570312 109.835938 227.820312 110.644531 228.148438 111.429688 C 228.476562 112.214844 228.878906 112.960938 229.355469 113.664062 C 229.832031 114.371094 230.371094 115.019531 230.976562 115.621094 C 232.167969 116.800781 233.332031 118.011719 234.464844 119.253906 C 235.601562 120.492188 236.703125 121.757812 237.773438 123.054688 C 238.84375 124.347656 239.882812 125.667969 240.890625 127.011719 C 241.894531 128.359375 242.867188 129.726562 243.804688 131.121094 C 244.746094 132.515625 245.648438 133.929688 246.515625 135.367188 C 247.386719 136.808594 248.21875 138.265625 249.015625 139.746094 C 249.8125 141.222656 250.570312 142.722656 251.292969 144.238281 C 252.015625 145.753906 252.699219 147.289062 253.347656 148.839844 C 253.992188 150.390625 254.601562 151.957031 255.171875 153.535156 C 255.738281 155.117188 256.269531 156.710938 256.761719 158.316406 C 257.25 159.925781 257.703125 161.542969 258.113281 163.171875 C 258.523438 164.800781 258.894531 166.4375 259.222656 168.085938 C 259.550781 169.734375 259.839844 171.386719 260.089844 173.046875 C 260.335938 174.710938 260.542969 176.375 260.710938 178.046875 C 260.875 179.71875 261 181.394531 261.082031 183.074219 C 261.164062 184.75 261.207031 186.429688 261.207031 188.109375 C 261.207031 189.789062 261.164062 191.46875 261.082031 193.148438 C 261 194.824219 260.875 196.5 260.710938 198.171875 C 260.542969 199.84375 260.335938 201.511719 260.089844 203.171875 C 259.839844 204.832031 259.550781 206.488281 259.222656 208.136719 C 258.894531 209.78125 258.523438 211.421875 258.113281 213.050781 C 257.703125 214.679688 257.25 216.296875 256.761719 217.902344 C 256.269531 219.511719 255.738281 221.105469 255.171875 222.683594 C 254.601562 224.265625 253.992188 225.832031 253.347656 227.382812 C 252.699219 228.933594 252.015625 230.464844 251.292969 231.980469 C 250.570312 233.5 249.8125 234.996094 249.015625 236.476562 C 248.21875 237.957031 247.386719 239.414062 246.515625 240.851562 C 245.648438 242.289062 244.746094 243.707031 243.804688 245.097656 C 242.867188 246.492188 241.894531 247.863281 240.890625 249.207031 C 239.882812 250.554688 238.84375 251.871094 237.773438 253.167969 C 236.703125 254.460938 235.601562 255.726562 234.464844 256.96875 C 233.332031 258.207031 232.167969 259.417969 230.976562 260.601562 C 230.59375 260.875 230.226562 261.171875 229.875 261.484375 C 229.523438 261.800781 229.191406 262.132812 228.878906 262.484375 C 228.566406 262.835938 228.269531 263.203125 227.996094 263.585938 C 227.722656 263.96875 227.46875 264.367188 227.238281 264.777344 C 227.007812 265.1875 226.800781 265.609375 226.617188 266.042969 C 226.433594 266.476562 226.273438 266.917969 226.136719 267.371094 C 226 267.820312 225.890625 268.277344 225.804688 268.742188 C 225.71875 269.203125 225.65625 269.671875 225.621094 270.140625 C 225.585938 270.609375 225.578125 271.082031 225.59375 271.550781 C 225.609375 272.023438 225.648438 272.492188 225.71875 272.957031 C 225.785156 273.421875 225.878906 273.882812 225.996094 274.339844 C 226.113281 274.796875 226.253906 275.246094 226.421875 275.683594 C 226.585938 276.125 226.777344 276.554688 226.992188 276.976562 C 227.203125 277.394531 227.441406 277.804688 227.699219 278.195312 C 227.957031 278.589844 228.234375 278.96875 228.535156 279.332031 C 228.835938 279.695312 229.152344 280.042969 229.488281 280.371094 C 229.828125 280.703125 230.179688 281.011719 230.550781 281.300781 C 230.921875 281.589844 231.308594 281.859375 231.710938 282.109375 C 232.109375 282.355469 232.523438 282.582031 232.949219 282.785156 C 233.375 282.988281 233.808594 283.167969 234.253906 283.324219 C 234.699219 283.476562 235.148438 283.609375 235.609375 283.714844 C 236.066406 283.820312 236.53125 283.902344 237 283.957031 C 237.464844 284.011719 237.9375 284.042969 238.40625 284.046875 C 238.878906 284.050781 239.347656 284.03125 239.816406 283.984375 C 240.285156 283.9375 240.75 283.863281 241.210938 283.765625 C 241.671875 283.667969 242.125 283.546875 242.574219 283.398438 C 243.019531 283.25 243.457031 283.078125 243.886719 282.882812 C 244.316406 282.6875 244.734375 282.46875 245.136719 282.230469 C 245.542969 281.988281 245.933594 281.726562 246.308594 281.445312 C 246.683594 281.160156 247.046875 280.855469 247.386719 280.535156 C 247.730469 280.210938 248.054688 279.871094 248.363281 279.511719 C 248.667969 279.15625 248.953125 278.78125 249.21875 278.390625 C 250.703125 276.910156 252.152344 275.394531 253.5625 273.84375 C 254.972656 272.289062 256.34375 270.703125 257.675781 269.085938 C 259.007812 267.464844 260.300781 265.816406 261.550781 264.132812 C 262.804688 262.449219 264.011719 260.738281 265.179688 258.996094 C 266.347656 257.25 267.46875 255.480469 268.550781 253.683594 C 269.628906 251.886719 270.664062 250.0625 271.65625 248.214844 C 272.644531 246.367188 273.589844 244.496094 274.488281 242.597656 C 275.386719 240.703125 276.238281 238.789062 277.039062 236.851562 C 277.84375 234.914062 278.601562 232.960938 279.308594 230.984375 C 280.015625 229.011719 280.675781 227.019531 281.285156 225.015625 C 281.894531 223.007812 282.453125 220.988281 282.964844 218.953125 C 283.476562 216.917969 283.9375 214.875 284.347656 212.816406 C 284.753906 210.761719 285.113281 208.695312 285.421875 206.621094 C 285.730469 204.546875 285.988281 202.464844 286.195312 200.378906 C 286.402344 198.292969 286.554688 196.203125 286.65625 194.105469 C 286.761719 192.011719 286.8125 189.917969 286.8125 187.820312 C 286.8125 185.722656 286.761719 183.625 286.65625 181.53125 C 286.554688 179.4375 286.402344 177.347656 286.195312 175.257812 C 285.988281 173.171875 285.730469 171.089844 285.421875 169.015625 C 285.113281 166.941406 284.753906 164.878906 284.347656 162.820312 C 283.9375 160.765625 283.476562 158.71875 282.964844 156.683594 C 282.453125 154.652344 281.894531 152.628906 281.285156 150.625 C 280.675781 148.617188 280.015625 146.628906 279.308594 144.652344 C 278.601562 142.679688 277.84375 140.722656 277.039062 138.785156 C 276.238281 136.851562 275.386719 134.933594 274.488281 133.039062 C 273.589844 131.144531 272.644531 129.273438 271.65625 127.421875 C 270.664062 125.574219 269.628906 123.753906 268.550781 121.953125 C 267.46875 120.15625 266.347656 118.386719 265.179688 116.644531 C 264.011719 114.902344 262.804688 113.1875 261.550781 111.507812 C 260.300781 109.824219 259.007812 108.171875 257.675781 106.554688 C 256.34375 104.933594 254.972656 103.347656 253.5625 101.796875 C 252.152344 100.242188 250.703125 98.726562 249.21875 97.246094 Z M 249.21875 97.246094 " fill-opacity="1" fill-rule="nonzero"/><path fill="#ffffff" d="M 284.023438 62.441406 C 283.433594 61.792969 282.785156 61.210938 282.078125 60.695312 C 281.371094 60.175781 280.617188 59.738281 279.820312 59.375 C 279.023438 59.011719 278.195312 58.730469 277.34375 58.535156 C 276.488281 58.339844 275.621094 58.230469 274.746094 58.210938 C 273.871094 58.191406 273 58.257812 272.140625 58.414062 C 271.277344 58.574219 270.4375 58.8125 269.625 59.140625 C 268.8125 59.46875 268.039062 59.871094 267.308594 60.355469 C 266.578125 60.839844 265.90625 61.394531 265.285156 62.011719 C 264.667969 62.632812 264.117188 63.3125 263.636719 64.042969 C 263.15625 64.777344 262.753906 65.550781 262.429688 66.363281 C 262.105469 67.179688 261.867188 68.015625 261.710938 68.878906 C 261.558594 69.742188 261.492188 70.613281 261.515625 71.488281 C 261.539062 72.363281 261.652344 73.226562 261.851562 74.082031 C 262.046875 74.933594 262.332031 75.761719 262.699219 76.554688 C 263.0625 77.351562 263.507812 78.105469 264.027344 78.808594 C 264.546875 79.515625 265.128906 80.164062 265.78125 80.75 C 267.542969 82.496094 269.261719 84.285156 270.933594 86.113281 C 272.609375 87.945312 274.234375 89.816406 275.816406 91.726562 C 277.398438 93.636719 278.933594 95.585938 280.417969 97.574219 C 281.902344 99.558594 283.335938 101.582031 284.722656 103.640625 C 286.109375 105.699219 287.441406 107.789062 288.722656 109.910156 C 290.003906 112.035156 291.234375 114.1875 292.410156 116.375 C 293.585938 118.558594 294.707031 120.769531 295.773438 123.007812 C 296.839844 125.25 297.851562 127.511719 298.804688 129.804688 C 299.757812 132.09375 300.65625 134.402344 301.496094 136.738281 C 302.335938 139.070312 303.121094 141.425781 303.84375 143.796875 C 304.566406 146.167969 305.234375 148.558594 305.839844 150.964844 C 306.445312 153.367188 306.992188 155.789062 307.480469 158.21875 C 307.964844 160.652344 308.390625 163.09375 308.757812 165.546875 C 309.125 168 309.429688 170.460938 309.675781 172.929688 C 309.917969 175.398438 310.101562 177.871094 310.226562 180.351562 C 310.347656 182.828125 310.410156 185.304688 310.410156 187.785156 C 310.410156 190.265625 310.347656 192.746094 310.226562 195.222656 C 310.101562 197.703125 309.917969 200.175781 309.675781 202.644531 C 309.429688 205.109375 309.125 207.570312 308.757812 210.023438 C 308.390625 212.480469 307.964844 214.921875 307.480469 217.355469 C 306.992188 219.785156 306.445312 222.203125 305.839844 224.609375 C 305.234375 227.015625 304.566406 229.402344 303.84375 231.777344 C 303.121094 234.148438 302.335938 236.503906 301.496094 238.835938 C 300.65625 241.167969 299.757812 243.480469 298.804688 245.769531 C 297.851562 248.058594 296.839844 250.324219 295.773438 252.566406 C 294.707031 254.804688 293.585938 257.015625 292.410156 259.199219 C 291.234375 261.382812 290.003906 263.539062 288.722656 265.660156 C 287.441406 267.785156 286.109375 269.875 284.722656 271.933594 C 283.335938 273.992188 281.902344 276.011719 280.417969 278 C 278.933594 279.988281 277.398438 281.9375 275.816406 283.847656 C 274.234375 285.757812 272.609375 287.628906 270.933594 289.460938 C 269.261719 291.289062 267.542969 293.078125 265.78125 294.824219 C 265.175781 295.421875 264.636719 296.074219 264.164062 296.78125 C 263.6875 297.484375 263.289062 298.230469 262.960938 299.015625 C 262.632812 299.796875 262.382812 300.605469 262.214844 301.441406 C 262.046875 302.273438 261.960938 303.113281 261.957031 303.964844 C 261.953125 304.816406 262.03125 305.65625 262.195312 306.492188 C 262.359375 307.324219 262.601562 308.136719 262.925781 308.921875 C 263.246094 309.710938 263.644531 310.457031 264.113281 311.164062 C 264.582031 311.875 265.117188 312.527344 265.714844 313.132812 C 266.316406 313.734375 266.964844 314.273438 267.671875 314.75 C 268.375 315.222656 269.121094 315.625 269.90625 315.953125 C 270.691406 316.28125 271.5 316.53125 272.332031 316.699219 C 273.164062 316.867188 274.007812 316.953125 274.855469 316.957031 C 275.707031 316.960938 276.546875 316.878906 277.382812 316.714844 C 278.21875 316.554688 279.027344 316.3125 279.8125 315.988281 C 280.601562 315.667969 281.347656 315.269531 282.054688 314.800781 C 282.765625 314.332031 283.421875 313.796875 284.023438 313.195312 C 286.085938 311.152344 288.097656 309.054688 290.058594 306.910156 C 292.019531 304.765625 293.925781 302.574219 295.777344 300.335938 C 297.628906 298.097656 299.421875 295.816406 301.160156 293.488281 C 302.898438 291.160156 304.582031 288.789062 306.203125 286.378906 C 307.824219 283.96875 309.386719 281.519531 310.886719 279.035156 C 312.386719 276.546875 313.824219 274.023438 315.203125 271.464844 C 316.578125 268.90625 317.890625 266.316406 319.140625 263.691406 C 320.386719 261.066406 321.570312 258.414062 322.6875 255.734375 C 323.808594 253.050781 324.859375 250.34375 325.839844 247.609375 C 326.824219 244.878906 327.742188 242.121094 328.589844 239.34375 C 329.4375 236.5625 330.214844 233.765625 330.925781 230.949219 C 331.636719 228.132812 332.273438 225.296875 332.84375 222.449219 C 333.414062 219.601562 333.914062 216.738281 334.34375 213.867188 C 334.769531 210.992188 335.128906 208.109375 335.414062 205.21875 C 335.703125 202.328125 335.917969 199.429688 336.058594 196.53125 C 336.203125 193.628906 336.273438 190.722656 336.273438 187.820312 C 336.273438 184.914062 336.203125 182.011719 336.058594 179.109375 C 335.917969 176.207031 335.703125 173.3125 335.414062 170.417969 C 335.128906 167.527344 334.769531 164.644531 334.34375 161.773438 C 333.914062 158.898438 333.414062 156.039062 332.84375 153.1875 C 332.273438 150.339844 331.636719 147.507812 330.925781 144.691406 C 330.214844 141.871094 329.4375 139.074219 328.589844 136.296875 C 327.742188 133.515625 326.824219 130.761719 325.839844 128.027344 C 324.859375 125.292969 323.808594 122.585938 322.6875 119.90625 C 321.570312 117.222656 320.386719 114.570312 319.140625 111.945312 C 317.890625 109.324219 316.578125 106.734375 315.203125 104.175781 C 313.824219 101.617188 312.386719 99.09375 310.886719 96.605469 C 309.386719 94.117188 307.824219 91.667969 306.203125 89.257812 C 304.582031 86.847656 302.898438 84.480469 301.160156 82.152344 C 299.421875 79.824219 297.628906 77.539062 295.777344 75.300781 C 293.925781 73.0625 292.019531 70.871094 290.058594 68.726562 C 288.097656 66.582031 286.085938 64.488281 284.023438 62.441406 Z M 284.023438 62.441406 " fill-opacity="1" fill-rule="nonzero"/><path fill="#ffffff" d="M 212.730469 133.21875 C 212.128906 132.617188 211.472656 132.082031 210.761719 131.613281 C 210.054688 131.144531 209.308594 130.75 208.519531 130.425781 C 207.734375 130.101562 206.925781 129.859375 206.089844 129.699219 C 205.253906 129.535156 204.414062 129.453125 203.5625 129.457031 C 202.714844 129.460938 201.871094 129.546875 201.039062 129.714844 C 200.207031 129.882812 199.398438 130.132812 198.613281 130.460938 C 197.828125 130.789062 197.082031 131.191406 196.378906 131.664062 C 195.671875 132.140625 195.019531 132.679688 194.421875 133.28125 C 193.824219 133.886719 193.289062 134.539062 192.820312 135.25 C 192.347656 135.957031 191.953125 136.707031 191.628906 137.492188 C 191.308594 138.277344 191.066406 139.089844 190.902344 139.921875 C 190.738281 140.757812 190.660156 141.597656 190.664062 142.449219 C 190.664062 143.300781 190.75 144.140625 190.921875 144.972656 C 191.089844 145.808594 191.335938 146.617188 191.664062 147.398438 C 191.992188 148.183594 192.394531 148.929688 192.871094 149.632812 C 193.34375 150.339844 193.882812 150.992188 194.488281 151.589844 C 195.683594 152.773438 196.816406 154.011719 197.886719 155.308594 C 198.960938 156.605469 199.964844 157.949219 200.902344 159.34375 C 201.84375 160.738281 202.710938 162.179688 203.507812 163.660156 C 204.304688 165.140625 205.027344 166.65625 205.675781 168.207031 C 206.320312 169.761719 206.890625 171.339844 207.382812 172.949219 C 207.871094 174.558594 208.285156 176.1875 208.613281 177.835938 C 208.945312 179.484375 209.191406 181.144531 209.355469 182.820312 C 209.523438 184.492188 209.605469 186.167969 209.605469 187.851562 C 209.605469 189.535156 209.523438 191.210938 209.355469 192.882812 C 209.191406 194.558594 208.945312 196.21875 208.613281 197.867188 C 208.285156 199.515625 207.871094 201.144531 207.382812 202.753906 C 206.890625 204.363281 206.320312 205.941406 205.675781 207.496094 C 205.027344 209.046875 204.304688 210.5625 203.507812 212.042969 C 202.710938 213.523438 201.84375 214.964844 200.902344 216.359375 C 199.964844 217.753906 198.960938 219.097656 197.886719 220.394531 C 196.816406 221.691406 195.683594 222.929688 194.488281 224.113281 C 193.882812 224.710938 193.34375 225.363281 192.867188 226.070312 C 192.394531 226.773438 191.992188 227.519531 191.664062 228.304688 C 191.335938 229.085938 191.085938 229.894531 190.917969 230.730469 C 190.746094 231.5625 190.660156 232.40625 190.660156 233.253906 C 190.65625 234.105469 190.734375 234.949219 190.898438 235.78125 C 191.058594 236.617188 191.304688 237.425781 191.625 238.214844 C 191.949219 239 192.34375 239.75 192.8125 240.457031 C 193.285156 241.167969 193.820312 241.824219 194.417969 242.425781 C 195.015625 243.027344 195.667969 243.566406 196.375 244.042969 C 197.078125 244.519531 197.824219 244.917969 198.609375 245.246094 C 199.394531 245.574219 200.203125 245.824219 201.035156 245.992188 C 201.871094 246.160156 202.710938 246.246094 203.5625 246.25 C 204.414062 246.253906 205.253906 246.171875 206.089844 246.007812 C 206.921875 245.847656 207.734375 245.601562 208.519531 245.28125 C 209.308594 244.957031 210.054688 244.5625 210.761719 244.089844 C 211.472656 243.621094 212.128906 243.085938 212.730469 242.484375 C 213.628906 241.59375 214.507812 240.683594 215.359375 239.746094 C 216.214844 238.8125 217.046875 237.859375 217.851562 236.882812 C 218.660156 235.90625 219.441406 234.910156 220.199219 233.898438 C 220.957031 232.882812 221.691406 231.851562 222.398438 230.800781 C 223.105469 229.75 223.785156 228.683594 224.4375 227.601562 C 225.09375 226.515625 225.71875 225.417969 226.320312 224.300781 C 226.921875 223.1875 227.492188 222.058594 228.035156 220.914062 C 228.582031 219.769531 229.097656 218.617188 229.582031 217.445312 C 230.070312 216.277344 230.527344 215.097656 230.957031 213.90625 C 231.386719 212.714844 231.785156 211.515625 232.15625 210.304688 C 232.523438 209.09375 232.863281 207.875 233.171875 206.644531 C 233.480469 205.417969 233.761719 204.183594 234.007812 202.941406 C 234.257812 201.699219 234.476562 200.453125 234.664062 199.203125 C 234.847656 197.949219 235.003906 196.695312 235.128906 195.433594 C 235.253906 194.175781 235.347656 192.910156 235.410156 191.648438 C 235.472656 190.382812 235.503906 189.117188 235.503906 187.851562 C 235.503906 186.585938 235.472656 185.320312 235.410156 184.054688 C 235.347656 182.792969 235.253906 181.527344 235.128906 180.269531 C 235.003906 179.007812 234.847656 177.753906 234.664062 176.5 C 234.476562 175.25 234.257812 174.003906 234.007812 172.761719 C 233.761719 171.519531 233.480469 170.285156 233.171875 169.058594 C 232.863281 167.828125 232.523438 166.609375 232.15625 165.398438 C 231.785156 164.1875 231.386719 162.988281 230.957031 161.796875 C 230.527344 160.605469 230.070312 159.425781 229.582031 158.257812 C 229.097656 157.085938 228.582031 155.929688 228.035156 154.789062 C 227.492188 153.644531 226.921875 152.515625 226.320312 151.402344 C 225.71875 150.285156 225.09375 149.1875 224.4375 148.101562 C 223.785156 147.019531 223.105469 145.953125 222.398438 144.902344 C 221.691406 143.851562 220.957031 142.820312 220.199219 141.804688 C 219.441406 140.792969 218.660156 139.796875 217.851562 138.820312 C 217.046875 137.84375 216.214844 136.890625 215.359375 135.957031 C 214.507812 135.019531 213.628906 134.109375 212.730469 133.21875 Z M 212.730469 133.21875 " fill-opacity="1" fill-rule="nonzero"/></svg>