<svg xmlns="http://www.w3.org/2000/svg" xmlns:xlink="http://www.w3.org/1999/xlink" width="500" zoomAndPan="magnify" viewBox="0 0 375 374.999991" height="500" preserveAspectRatio="xMidYMid meet" version="1.0"><defs><clipPath id="ec7b7c564a"><path d="M 34.730469 62.039062 L 339.980469 62.039062 L 339.980469 281 L 34.730469 281 Z M 34.730469 62.039062 " clip-rule="nonzero"/></clipPath></defs><g clip-path="url(#ec7b7c564a)"><path fill="#ffffff" d="M 307.5 280.222656 L 67.496094 280.222656 C 66.425781 280.222656 65.355469 280.167969 64.289062 280.066406 C 63.222656 279.960938 62.164062 279.800781 61.113281 279.59375 C 60.0625 279.382812 59.023438 279.125 57.996094 278.8125 C 56.972656 278.5 55.964844 278.140625 54.972656 277.730469 C 53.984375 277.320312 53.015625 276.863281 52.070312 276.359375 C 51.125 275.851562 50.207031 275.300781 49.316406 274.707031 C 48.421875 274.109375 47.5625 273.472656 46.734375 272.792969 C 45.90625 272.113281 45.113281 271.394531 44.355469 270.636719 C 43.597656 269.878906 42.878906 269.085938 42.199219 268.257812 C 41.519531 267.429688 40.878906 266.566406 40.285156 265.675781 C 39.691406 264.785156 39.140625 263.867188 38.632812 262.921875 C 38.128906 261.976562 37.671875 261.007812 37.261719 260.019531 C 36.851562 259.027344 36.488281 258.019531 36.179688 256.996094 C 35.867188 255.96875 35.609375 254.929688 35.398438 253.878906 C 35.191406 252.828125 35.03125 251.769531 34.925781 250.703125 C 34.824219 249.636719 34.769531 248.566406 34.769531 247.496094 L 34.769531 94.765625 C 34.769531 93.695312 34.824219 92.625 34.925781 91.558594 C 35.03125 90.492188 35.191406 89.433594 35.398438 88.382812 C 35.609375 87.332031 35.867188 86.292969 36.179688 85.265625 C 36.488281 84.242188 36.851562 83.234375 37.261719 82.242188 C 37.671875 81.253906 38.128906 80.285156 38.632812 79.339844 C 39.140625 78.394531 39.691406 77.476562 40.285156 76.585938 C 40.878906 75.691406 41.519531 74.832031 42.199219 74.003906 C 42.878906 73.175781 43.597656 72.382812 44.355469 71.625 C 45.113281 70.867188 45.90625 70.148438 46.734375 69.46875 C 47.5625 68.789062 48.421875 68.148438 49.316406 67.554688 C 50.207031 66.960938 51.125 66.410156 52.070312 65.902344 C 53.015625 65.398438 53.984375 64.941406 54.972656 64.53125 C 55.964844 64.121094 56.972656 63.757812 57.996094 63.449219 C 59.023438 63.136719 60.0625 62.878906 61.113281 62.667969 C 62.164062 62.460938 63.222656 62.300781 64.289062 62.195312 C 65.355469 62.09375 66.425781 62.039062 67.496094 62.039062 L 307.5 62.039062 C 308.570312 62.039062 309.640625 62.09375 310.707031 62.195312 C 311.773438 62.300781 312.832031 62.460938 313.882812 62.667969 C 314.933594 62.878906 315.972656 63.136719 317 63.449219 C 318.023438 63.757812 319.03125 64.121094 320.023438 64.53125 C 321.011719 64.941406 321.980469 65.398438 322.925781 65.902344 C 323.871094 66.410156 324.789062 66.960938 325.679688 67.554688 C 326.570312 68.148438 327.433594 68.789062 328.261719 69.46875 C 329.089844 70.148438 329.882812 70.867188 330.640625 71.625 C 331.398438 72.382812 332.117188 73.175781 332.796875 74.003906 C 333.476562 74.832031 334.113281 75.691406 334.710938 76.585938 C 335.304688 77.476562 335.855469 78.394531 336.359375 79.339844 C 336.867188 80.285156 337.324219 81.253906 337.734375 82.242188 C 338.144531 83.234375 338.503906 84.242188 338.816406 85.265625 C 339.128906 86.292969 339.386719 87.332031 339.597656 88.382812 C 339.804688 89.433594 339.964844 90.492188 340.066406 91.558594 C 340.171875 92.625 340.226562 93.695312 340.226562 94.765625 L 340.226562 247.496094 C 340.226562 248.566406 340.171875 249.636719 340.066406 250.703125 C 339.964844 251.769531 339.804688 252.828125 339.597656 253.878906 C 339.386719 254.929688 339.128906 255.96875 338.816406 256.996094 C 338.503906 258.019531 338.144531 259.027344 337.734375 260.019531 C 337.324219 261.007812 336.867188 261.976562 336.359375 262.921875 C 335.855469 263.867188 335.304688 264.785156 334.710938 265.675781 C 334.113281 266.566406 333.476562 267.429688 332.796875 268.257812 C 332.117188 269.085938 331.398438 269.878906 330.640625 270.636719 C 329.882812 271.394531 329.089844 272.113281 328.261719 272.792969 C 327.433594 273.472656 326.570312 274.109375 325.679688 274.707031 C 324.789062 275.300781 323.871094 275.851562 322.925781 276.359375 C 321.980469 276.863281 321.011719 277.320312 320.023438 277.730469 C 319.03125 278.140625 318.023438 278.5 317 278.8125 C 315.972656 279.125 314.933594 279.382812 313.882812 279.59375 C 312.832031 279.800781 311.773438 279.960938 310.707031 280.066406 C 309.640625 280.167969 308.570312 280.222656 307.5 280.222656 Z M 67.496094 83.859375 C 66.78125 83.859375 66.070312 83.925781 65.367188 84.066406 C 64.667969 84.207031 63.984375 84.414062 63.324219 84.6875 C 62.660156 84.960938 62.03125 85.296875 61.4375 85.695312 C 60.839844 86.09375 60.289062 86.546875 59.785156 87.054688 C 59.277344 87.558594 58.824219 88.109375 58.425781 88.707031 C 58.027344 89.300781 57.691406 89.929688 57.417969 90.59375 C 57.144531 91.253906 56.9375 91.9375 56.796875 92.636719 C 56.65625 93.339844 56.589844 94.050781 56.589844 94.765625 L 56.589844 247.496094 C 56.589844 248.210938 56.65625 248.921875 56.796875 249.621094 C 56.9375 250.324219 57.144531 251.007812 57.417969 251.667969 C 57.691406 252.332031 58.027344 252.960938 58.425781 253.554688 C 58.824219 254.152344 59.277344 254.703125 59.785156 255.207031 C 60.289062 255.714844 60.839844 256.167969 61.4375 256.566406 C 62.03125 256.964844 62.660156 257.300781 63.324219 257.574219 C 63.984375 257.847656 64.667969 258.054688 65.367188 258.195312 C 66.070312 258.332031 66.78125 258.402344 67.496094 258.402344 L 307.5 258.402344 C 308.214844 258.402344 308.925781 258.332031 309.625 258.195312 C 310.328125 258.054688 311.011719 257.847656 311.671875 257.574219 C 312.335938 257.300781 312.964844 256.964844 313.558594 256.566406 C 314.15625 256.167969 314.707031 255.714844 315.210938 255.207031 C 315.71875 254.703125 316.171875 254.152344 316.570312 253.554688 C 316.964844 252.960938 317.300781 252.332031 317.578125 251.667969 C 317.851562 251.007812 318.058594 250.324219 318.199219 249.621094 C 318.335938 248.921875 318.40625 248.210938 318.40625 247.496094 L 318.40625 94.765625 C 318.40625 94.050781 318.335938 93.339844 318.199219 92.636719 C 318.058594 91.9375 317.851562 91.253906 317.578125 90.59375 C 317.300781 89.929688 316.964844 89.300781 316.570312 88.707031 C 316.171875 88.109375 315.71875 87.558594 315.210938 87.054688 C 314.707031 86.546875 314.15625 86.09375 313.558594 85.695312 C 312.964844 85.296875 312.335938 84.960938 311.671875 84.6875 C 311.011719 84.414062 310.328125 84.207031 309.625 84.066406 C 308.925781 83.925781 308.214844 83.859375 307.5 83.859375 Z M 67.496094 83.859375 " fill-opacity="1" fill-rule="nonzero"/></g><path fill="#ffffff" d="M 242.042969 312.949219 L 132.953125 312.949219 C 132.234375 312.949219 131.527344 312.878906 130.824219 312.738281 C 130.121094 312.601562 129.4375 312.394531 128.777344 312.117188 C 128.117188 311.84375 127.488281 311.507812 126.890625 311.109375 C 126.296875 310.714844 125.746094 310.261719 125.238281 309.753906 C 124.730469 309.246094 124.28125 308.695312 123.882812 308.101562 C 123.484375 307.503906 123.148438 306.875 122.875 306.214844 C 122.597656 305.554688 122.390625 304.871094 122.253906 304.167969 C 122.113281 303.464844 122.042969 302.757812 122.042969 302.039062 C 122.042969 301.324219 122.113281 300.613281 122.253906 299.910156 C 122.390625 299.210938 122.597656 298.527344 122.875 297.867188 C 123.148438 297.203125 123.484375 296.574219 123.882812 295.980469 C 124.28125 295.382812 124.730469 294.832031 125.238281 294.328125 C 125.746094 293.820312 126.296875 293.367188 126.890625 292.96875 C 127.488281 292.570312 128.117188 292.234375 128.777344 291.960938 C 129.4375 291.6875 130.121094 291.480469 130.824219 291.339844 C 131.527344 291.199219 132.234375 291.132812 132.953125 291.132812 L 242.042969 291.132812 C 242.757812 291.132812 243.46875 291.199219 244.171875 291.339844 C 244.875 291.480469 245.554688 291.6875 246.21875 291.960938 C 246.878906 292.234375 247.507812 292.570312 248.105469 292.96875 C 248.699219 293.367188 249.25 293.820312 249.757812 294.328125 C 250.265625 294.832031 250.714844 295.382812 251.113281 295.980469 C 251.511719 296.574219 251.847656 297.203125 252.121094 297.867188 C 252.394531 298.527344 252.601562 299.210938 252.742188 299.910156 C 252.882812 300.613281 252.953125 301.324219 252.953125 302.039062 C 252.953125 302.757812 252.882812 303.464844 252.742188 304.167969 C 252.601562 304.871094 252.394531 305.554688 252.121094 306.214844 C 251.847656 306.875 251.511719 307.503906 251.113281 308.101562 C 250.714844 308.695312 250.265625 309.246094 249.757812 309.753906 C 249.25 310.261719 248.699219 310.714844 248.105469 311.109375 C 247.507812 311.507812 246.878906 311.84375 246.21875 312.117188 C 245.554688 312.394531 244.875 312.601562 244.171875 312.738281 C 243.46875 312.878906 242.757812 312.949219 242.042969 312.949219 Z M 242.042969 312.949219 " fill-opacity="1" fill-rule="nonzero"/></svg>