<svg xmlns="http://www.w3.org/2000/svg" xmlns:xlink="http://www.w3.org/1999/xlink" width="500" zoomAndPan="magnify" viewBox="0 0 375 374.999991" height="500" preserveAspectRatio="xMidYMid meet" version="1.0"><defs><clipPath id="55f2629aa0"><path d="M 37.5 37.5 L 337.5 37.5 L 337.5 337.5 L 37.5 337.5 Z M 37.5 37.5 " clip-rule="nonzero"/></clipPath></defs><g clip-path="url(#55f2629aa0)"><path fill="#ffffff" d="M 300 271.875 L 112.5 271.875 C 107.332031 271.875 103.125 267.667969 103.125 262.5 L 103.125 75 C 103.125 69.832031 107.332031 65.625 112.5 65.625 L 112.5 243.75 C 112.5 254.105469 120.894531 262.5 131.25 262.5 L 309.375 262.5 C 309.375 267.667969 305.167969 271.875 300 271.875 Z M 281.25 290.625 L 93.75 290.625 C 88.582031 290.625 84.375 286.417969 84.375 281.25 L 84.375 93.75 C 84.375 88.582031 88.582031 84.375 93.75 84.375 L 93.75 262.5 C 93.75 272.855469 102.144531 281.25 112.5 281.25 L 290.625 281.25 C 290.625 286.417969 286.417969 290.625 281.25 290.625 Z M 262.5 309.375 L 75 309.375 C 69.832031 309.375 65.625 305.167969 65.625 300 L 65.625 112.5 C 65.625 107.332031 69.832031 103.125 75 103.125 L 75 281.25 C 75 291.605469 83.394531 300 93.75 300 L 271.875 300 C 271.875 305.167969 267.667969 309.375 262.5 309.375 Z M 243.75 328.125 L 56.25 328.125 C 51.082031 328.125 46.875 323.917969 46.875 318.75 L 46.875 131.25 C 46.875 126.082031 51.082031 121.875 56.25 121.875 L 56.25 300 C 56.25 310.355469 64.644531 318.75 75 318.75 L 253.125 318.75 C 253.125 323.917969 248.917969 328.125 243.75 328.125 Z M 182.8125 159.375 C 188.09375 159.375 192.957031 160.789062 196.875 163.152344 L 196.875 93.75 C 196.875 88.574219 201.074219 84.375 206.25 84.375 L 262.5 84.375 C 267.675781 84.375 271.875 88.574219 271.875 93.75 L 271.875 196.875 C 271.875 207.230469 261.382812 215.625 248.4375 215.625 C 235.492188 215.625 225 207.230469 225 196.875 C 225 186.519531 235.492188 178.125 248.4375 178.125 C 253.71875 178.125 258.582031 179.539062 262.5 181.902344 L 262.5 112.5 L 206.25 112.5 L 206.25 178.125 C 206.25 188.480469 195.757812 196.875 182.8125 196.875 C 169.867188 196.875 159.375 188.480469 159.375 178.125 C 159.375 167.769531 169.867188 159.375 182.8125 159.375 Z M 318.75 37.5 L 131.25 37.5 C 120.894531 37.5 112.5 45.894531 112.5 56.25 C 102.144531 56.25 93.75 64.644531 93.75 75 C 83.394531 75 75 83.394531 75 93.75 C 64.644531 93.75 56.25 102.144531 56.25 112.5 C 45.894531 112.5 37.5 120.894531 37.5 131.25 L 37.5 318.75 C 37.5 329.105469 45.894531 337.5 56.25 337.5 L 243.75 337.5 C 254.105469 337.5 262.5 329.105469 262.5 318.75 C 272.855469 318.75 281.25 310.355469 281.25 300 C 291.605469 300 300 291.605469 300 281.25 C 310.355469 281.25 318.75 272.855469 318.75 262.5 C 329.105469 262.5 337.5 254.105469 337.5 243.75 L 337.5 56.25 C 337.5 45.894531 329.105469 37.5 318.75 37.5 " fill-opacity="1" fill-rule="nonzero"/></g></svg>