<svg xmlns="http://www.w3.org/2000/svg" xmlns:xlink="http://www.w3.org/1999/xlink" width="500" zoomAndPan="magnify" viewBox="0 0 375 374.999991" height="500" preserveAspectRatio="xMidYMid meet" version="1.0"><defs><clipPath id="e04a83118e"><path d="M 48.136719 37.5 L 327 37.5 L 327 337.5 L 48.136719 337.5 Z M 48.136719 37.5 " clip-rule="nonzero"/></clipPath></defs><g clip-path="url(#e04a83118e)"><path fill="#ffffff" d="M 198.210938 326.785156 L 198.210938 48.214844 C 198.210938 42.300781 193.410156 37.5 187.496094 37.5 C 181.582031 37.5 176.78125 42.300781 176.78125 48.214844 L 176.78125 326.785156 C 176.78125 332.699219 181.582031 337.5 187.496094 337.5 C 193.410156 337.5 198.210938 332.699219 198.210938 326.785156 Z M 241.066406 273.214844 L 241.066406 101.785156 C 241.066406 95.871094 236.265625 91.070312 230.351562 91.070312 C 224.4375 91.070312 219.636719 95.871094 219.636719 101.785156 L 219.636719 273.214844 C 219.636719 279.128906 224.4375 283.929688 230.351562 283.929688 C 236.265625 283.929688 241.066406 279.128906 241.066406 273.214844 Z M 155.351562 273.214844 L 155.351562 101.785156 C 155.351562 95.871094 150.554688 91.070312 144.636719 91.070312 C 138.722656 91.070312 133.925781 95.871094 133.925781 101.785156 L 133.925781 273.214844 C 133.925781 279.128906 138.722656 283.929688 144.636719 283.929688 C 150.554688 283.929688 155.351562 279.128906 155.351562 273.214844 Z M 283.925781 241.070312 L 283.925781 133.929688 C 283.925781 128.015625 279.125 123.214844 273.210938 123.214844 C 267.296875 123.214844 262.496094 128.015625 262.496094 133.929688 L 262.496094 241.070312 C 262.496094 246.984375 267.296875 251.785156 273.210938 251.785156 C 279.125 251.785156 283.925781 246.984375 283.925781 241.070312 Z M 112.496094 241.070312 L 112.496094 133.929688 C 112.496094 128.015625 107.695312 123.214844 101.78125 123.214844 C 95.867188 123.214844 91.066406 128.015625 91.066406 133.929688 L 91.066406 241.070312 C 91.066406 246.984375 95.867188 251.785156 101.78125 251.785156 C 107.695312 251.785156 112.496094 246.984375 112.496094 241.070312 Z M 69.636719 219.644531 L 69.636719 155.355469 C 69.636719 149.441406 64.839844 144.644531 58.925781 144.644531 C 53.011719 144.644531 48.210938 149.441406 48.210938 155.355469 L 48.210938 219.644531 C 48.210938 225.558594 53.011719 230.355469 58.925781 230.355469 C 64.839844 230.355469 69.636719 225.558594 69.636719 219.644531 Z M 326.78125 219.644531 L 326.78125 155.355469 C 326.78125 149.441406 321.980469 144.644531 316.066406 144.644531 C 310.152344 144.644531 305.351562 149.441406 305.351562 155.355469 L 305.351562 219.644531 C 305.351562 225.558594 310.152344 230.355469 316.066406 230.355469 C 321.980469 230.355469 326.78125 225.558594 326.78125 219.644531 Z M 326.78125 219.644531 " fill-opacity="1" fill-rule="evenodd"/></g></svg>