<svg xmlns="http://www.w3.org/2000/svg" xmlns:xlink="http://www.w3.org/1999/xlink" width="500" zoomAndPan="magnify" viewBox="0 0 375 374.999991" height="500" preserveAspectRatio="xMidYMid meet" version="1.0"><defs><clipPath id="ecf4503bdf"><path d="M 37.5 55 L 337.5 55 L 337.5 319.75 L 37.5 319.75 Z M 37.5 55 " clip-rule="nonzero"/></clipPath></defs><g clip-path="url(#ecf4503bdf)"><path fill="#ffffff" d="M 320.699219 55.101562 L 54.300781 55.101562 C 53.765625 55.089844 53.226562 55.105469 52.691406 55.144531 C 52.15625 55.1875 51.621094 55.253906 51.09375 55.347656 C 50.5625 55.441406 50.039062 55.5625 49.523438 55.707031 C 49.003906 55.851562 48.496094 56.019531 47.992188 56.214844 C 47.492188 56.410156 47 56.628906 46.523438 56.875 C 46.042969 57.117188 45.574219 57.382812 45.121094 57.671875 C 44.667969 57.960938 44.230469 58.269531 43.804688 58.601562 C 43.382812 58.933594 42.976562 59.285156 42.589844 59.65625 C 42.199219 60.027344 41.828125 60.417969 41.480469 60.824219 C 41.128906 61.234375 40.796875 61.65625 40.488281 62.097656 C 40.179688 62.535156 39.894531 62.992188 39.628906 63.457031 C 39.363281 63.925781 39.121094 64.40625 38.90625 64.898438 C 38.6875 65.390625 38.496094 65.890625 38.328125 66.402344 C 38.15625 66.914062 38.015625 67.429688 37.898438 67.957031 C 37.777344 68.480469 37.6875 69.007812 37.621094 69.542969 C 37.554688 70.078125 37.515625 70.613281 37.503906 71.148438 L 37.503906 270.398438 C 37.515625 270.933594 37.554688 271.472656 37.621094 272.007812 C 37.683594 272.539062 37.777344 273.070312 37.894531 273.597656 C 38.011719 274.121094 38.152344 274.640625 38.324219 275.152344 C 38.492188 275.664062 38.683594 276.164062 38.902344 276.65625 C 39.117188 277.152344 39.359375 277.632812 39.621094 278.101562 C 39.886719 278.570312 40.175781 279.023438 40.484375 279.464844 C 40.792969 279.90625 41.121094 280.332031 41.472656 280.742188 C 41.824219 281.148438 42.191406 281.539062 42.582031 281.914062 C 42.96875 282.285156 43.375 282.636719 43.800781 282.96875 C 44.222656 283.304688 44.660156 283.613281 45.113281 283.90625 C 45.566406 284.195312 46.035156 284.460938 46.515625 284.707031 C 46.996094 284.949219 47.484375 285.167969 47.988281 285.367188 C 48.488281 285.5625 49 285.734375 49.515625 285.878906 C 50.035156 286.027344 50.558594 286.144531 51.089844 286.242188 C 51.617188 286.335938 52.152344 286.40625 52.6875 286.449219 C 53.226562 286.488281 53.761719 286.507812 54.300781 286.496094 L 61.800781 286.496094 L 61.800781 314.894531 C 61.800781 315.222656 61.832031 315.550781 61.898438 315.871094 C 61.960938 316.195312 62.058594 316.507812 62.183594 316.808594 C 62.308594 317.113281 62.460938 317.402344 62.644531 317.675781 C 62.828125 317.945312 63.035156 318.199219 63.265625 318.429688 C 63.5 318.664062 63.75 318.871094 64.023438 319.054688 C 64.296875 319.234375 64.585938 319.390625 64.886719 319.515625 C 65.191406 319.640625 65.503906 319.734375 65.828125 319.800781 C 66.148438 319.863281 66.472656 319.894531 66.800781 319.894531 L 108.199219 319.894531 C 108.53125 319.894531 108.855469 319.863281 109.175781 319.800781 C 109.5 319.734375 109.8125 319.640625 110.113281 319.515625 C 110.417969 319.390625 110.707031 319.234375 110.980469 319.054688 C 111.25 318.871094 111.503906 318.664062 111.738281 318.429688 C 111.96875 318.199219 112.175781 317.945312 112.359375 317.675781 C 112.539062 317.402344 112.695312 317.113281 112.820312 316.808594 C 112.945312 316.507812 113.039062 316.195312 113.105469 315.871094 C 113.167969 315.550781 113.199219 315.222656 113.199219 314.894531 L 113.199219 286.496094 L 261.800781 286.496094 L 261.800781 314.894531 C 261.800781 315.222656 261.832031 315.550781 261.894531 315.871094 C 261.957031 316.195312 262.054688 316.507812 262.179688 316.808594 C 262.304688 317.113281 262.460938 317.402344 262.640625 317.675781 C 262.824219 317.945312 263.03125 318.199219 263.261719 318.429688 C 263.496094 318.664062 263.746094 318.871094 264.019531 319.054688 C 264.292969 319.234375 264.582031 319.390625 264.886719 319.515625 C 265.1875 319.640625 265.5 319.734375 265.824219 319.800781 C 266.144531 319.863281 266.46875 319.894531 266.796875 319.894531 L 308.199219 319.894531 C 308.527344 319.894531 308.851562 319.863281 309.171875 319.800781 C 309.496094 319.734375 309.808594 319.640625 310.113281 319.515625 C 310.414062 319.390625 310.703125 319.234375 310.976562 319.054688 C 311.25 318.871094 311.5 318.664062 311.734375 318.429688 C 311.964844 318.199219 312.171875 317.945312 312.355469 317.675781 C 312.539062 317.402344 312.691406 317.113281 312.816406 316.808594 C 312.941406 316.507812 313.039062 316.195312 313.101562 315.871094 C 313.167969 315.550781 313.199219 315.222656 313.199219 314.894531 L 313.199219 286.496094 L 320.699219 286.496094 C 321.238281 286.507812 321.773438 286.488281 322.3125 286.449219 C 322.847656 286.40625 323.378906 286.335938 323.910156 286.242188 C 324.441406 286.144531 324.964844 286.027344 325.484375 285.878906 C 326 285.734375 326.511719 285.5625 327.011719 285.367188 C 327.515625 285.167969 328.003906 284.949219 328.484375 284.707031 C 328.964844 284.460938 329.429688 284.195312 329.886719 283.90625 C 330.339844 283.613281 330.777344 283.304688 331.199219 282.96875 C 331.625 282.636719 332.03125 282.285156 332.417969 281.914062 C 332.808594 281.539062 333.175781 281.148438 333.527344 280.742188 C 333.878906 280.332031 334.207031 279.90625 334.515625 279.464844 C 334.824219 279.023438 335.113281 278.570312 335.378906 278.101562 C 335.640625 277.632812 335.882812 277.152344 336.097656 276.65625 C 336.316406 276.164062 336.507812 275.664062 336.675781 275.152344 C 336.847656 274.640625 336.988281 274.121094 337.105469 273.597656 C 337.222656 273.070312 337.316406 272.539062 337.378906 272.007812 C 337.445312 271.472656 337.484375 270.933594 337.496094 270.398438 L 337.496094 71.148438 C 337.484375 70.613281 337.445312 70.078125 337.378906 69.542969 C 337.3125 69.007812 337.222656 68.480469 337.101562 67.957031 C 336.984375 67.429688 336.84375 66.914062 336.671875 66.402344 C 336.503906 65.890625 336.3125 65.390625 336.09375 64.898438 C 335.878906 64.40625 335.636719 63.925781 335.371094 63.457031 C 335.105469 62.992188 334.820312 62.535156 334.511719 62.097656 C 334.203125 61.65625 333.871094 61.234375 333.519531 60.824219 C 333.171875 60.417969 332.800781 60.027344 332.410156 59.65625 C 332.023438 59.285156 331.617188 58.933594 331.195312 58.601562 C 330.769531 58.269531 330.332031 57.960938 329.878906 57.671875 C 329.425781 57.382812 328.957031 57.117188 328.476562 56.875 C 328 56.628906 327.507812 56.410156 327.007812 56.214844 C 326.503906 56.019531 325.996094 55.851562 325.476562 55.707031 C 324.960938 55.5625 324.4375 55.441406 323.90625 55.347656 C 323.378906 55.253906 322.84375 55.1875 322.308594 55.144531 C 321.773438 55.105469 321.234375 55.089844 320.699219 55.101562 Z M 327.496094 89.398438 L 290.296875 89.398438 C 289.96875 89.398438 289.644531 89.429688 289.324219 89.496094 C 289 89.558594 288.6875 89.65625 288.386719 89.78125 C 288.082031 89.90625 287.792969 90.058594 287.519531 90.242188 C 287.246094 90.425781 286.996094 90.632812 286.761719 90.863281 C 286.53125 91.097656 286.324219 91.347656 286.140625 91.621094 C 285.957031 91.894531 285.804688 92.183594 285.679688 92.484375 C 285.554688 92.789062 285.457031 93.101562 285.394531 93.425781 C 285.332031 93.746094 285.296875 94.070312 285.296875 94.398438 L 285.296875 115.949219 C 285.296875 116.277344 285.332031 116.601562 285.394531 116.925781 C 285.457031 117.246094 285.554688 117.558594 285.679688 117.863281 C 285.804688 118.164062 285.957031 118.453125 286.140625 118.726562 C 286.324219 119 286.53125 119.253906 286.761719 119.484375 C 286.996094 119.714844 287.246094 119.925781 287.519531 120.105469 C 287.792969 120.289062 288.082031 120.441406 288.386719 120.570312 C 288.6875 120.695312 289 120.789062 289.324219 120.851562 C 289.644531 120.917969 289.96875 120.949219 290.296875 120.949219 L 327.496094 120.949219 L 327.496094 138.75 L 290.296875 138.75 C 289.96875 138.75 289.644531 138.78125 289.324219 138.84375 C 289 138.910156 288.6875 139.003906 288.386719 139.128906 C 288.082031 139.253906 287.792969 139.410156 287.519531 139.589844 C 287.246094 139.773438 286.996094 139.980469 286.761719 140.214844 C 286.53125 140.445312 286.324219 140.699219 286.140625 140.972656 C 285.957031 141.242188 285.804688 141.53125 285.679688 141.835938 C 285.554688 142.136719 285.457031 142.453125 285.394531 142.773438 C 285.332031 143.09375 285.296875 143.421875 285.296875 143.75 L 285.296875 165.296875 C 285.296875 165.625 285.332031 165.953125 285.394531 166.273438 C 285.457031 166.597656 285.554688 166.910156 285.679688 167.210938 C 285.804688 167.515625 285.957031 167.804688 286.140625 168.074219 C 286.324219 168.347656 286.53125 168.601562 286.761719 168.832031 C 286.996094 169.066406 287.246094 169.273438 287.519531 169.457031 C 287.792969 169.636719 288.082031 169.792969 288.386719 169.917969 C 288.6875 170.042969 289 170.136719 289.324219 170.203125 C 289.644531 170.265625 289.96875 170.296875 290.296875 170.296875 L 327.496094 170.296875 L 327.496094 188.097656 L 290.296875 188.097656 C 289.96875 188.097656 289.644531 188.128906 289.324219 188.195312 C 289 188.257812 288.6875 188.351562 288.386719 188.480469 C 288.082031 188.605469 287.792969 188.757812 287.519531 188.941406 C 287.246094 189.121094 286.996094 189.332031 286.761719 189.5625 C 286.53125 189.792969 286.324219 190.046875 286.140625 190.320312 C 285.957031 190.59375 285.804688 190.882812 285.679688 191.183594 C 285.554688 191.488281 285.457031 191.800781 285.394531 192.121094 C 285.332031 192.445312 285.296875 192.769531 285.296875 193.097656 L 285.296875 214.648438 C 285.296875 214.976562 285.332031 215.300781 285.394531 215.625 C 285.457031 215.945312 285.554688 216.257812 285.679688 216.5625 C 285.804688 216.863281 285.957031 217.152344 286.140625 217.425781 C 286.324219 217.699219 286.53125 217.949219 286.761719 218.183594 C 286.996094 218.414062 287.246094 218.621094 287.519531 218.804688 C 287.792969 218.988281 288.082031 219.140625 288.386719 219.265625 C 288.6875 219.390625 289 219.488281 289.324219 219.550781 C 289.644531 219.617188 289.96875 219.648438 290.296875 219.648438 L 327.496094 219.648438 L 327.496094 270.398438 C 327.472656 270.820312 327.40625 271.234375 327.300781 271.644531 C 327.191406 272.054688 327.046875 272.449219 326.863281 272.832031 C 326.679688 273.210938 326.460938 273.574219 326.203125 273.910156 C 325.949219 274.25 325.664062 274.558594 325.351562 274.84375 C 325.035156 275.125 324.695312 275.375 324.332031 275.589844 C 323.96875 275.808594 323.585938 275.988281 323.1875 276.128906 C 322.789062 276.269531 322.378906 276.371094 321.960938 276.433594 C 321.542969 276.496094 321.121094 276.515625 320.699219 276.496094 L 54.300781 276.496094 C 53.878906 276.515625 53.457031 276.496094 53.039062 276.433594 C 52.621094 276.371094 52.210938 276.269531 51.8125 276.128906 C 51.414062 275.988281 51.03125 275.808594 50.667969 275.589844 C 50.304688 275.375 49.964844 275.125 49.648438 274.84375 C 49.335938 274.558594 49.050781 274.25 48.796875 273.910156 C 48.539062 273.574219 48.320312 273.214844 48.136719 272.832031 C 47.953125 272.449219 47.808594 272.054688 47.699219 271.644531 C 47.59375 271.234375 47.527344 270.820312 47.503906 270.398438 L 47.503906 71.148438 C 47.53125 70.730469 47.601562 70.316406 47.707031 69.910156 C 47.816406 69.5 47.964844 69.109375 48.152344 68.730469 C 48.335938 68.351562 48.558594 67.996094 48.8125 67.660156 C 49.066406 67.324219 49.351562 67.015625 49.667969 66.734375 C 49.980469 66.457031 50.320312 66.207031 50.683594 65.996094 C 51.046875 65.78125 51.425781 65.601562 51.824219 65.460938 C 52.222656 65.324219 52.628906 65.222656 53.046875 65.160156 C 53.460938 65.101562 53.882812 65.078125 54.300781 65.101562 L 320.699219 65.101562 C 321.117188 65.078125 321.539062 65.101562 321.953125 65.160156 C 322.371094 65.222656 322.777344 65.324219 323.175781 65.460938 C 323.574219 65.601562 323.953125 65.78125 324.316406 65.996094 C 324.679688 66.207031 325.019531 66.457031 325.332031 66.734375 C 325.648438 67.015625 325.933594 67.324219 326.1875 67.660156 C 326.441406 67.996094 326.664062 68.351562 326.847656 68.730469 C 327.035156 69.109375 327.183594 69.5 327.292969 69.910156 C 327.398438 70.316406 327.46875 70.730469 327.496094 71.148438 Z M 327.496094 89.398438 " fill-opacity="1" fill-rule="nonzero"/></g><path fill="#ffffff" d="M 104.300781 76.5 L 68.75 76.5 C 68.421875 76.5 68.097656 76.53125 67.777344 76.597656 C 67.453125 76.660156 67.140625 76.753906 66.839844 76.878906 C 66.535156 77.007812 66.246094 77.160156 65.972656 77.34375 C 65.699219 77.523438 65.449219 77.730469 65.214844 77.964844 C 64.984375 78.195312 64.777344 78.449219 64.59375 78.722656 C 64.410156 78.996094 64.257812 79.28125 64.132812 79.585938 C 64.007812 79.890625 63.910156 80.203125 63.847656 80.523438 C 63.785156 80.847656 63.75 81.171875 63.75 81.5 L 63.75 256.195312 C 63.75 256.523438 63.785156 256.851562 63.847656 257.171875 C 63.910156 257.496094 64.007812 257.808594 64.132812 258.109375 C 64.257812 258.414062 64.410156 258.703125 64.59375 258.976562 C 64.777344 259.246094 64.984375 259.5 65.214844 259.734375 C 65.449219 259.964844 65.699219 260.171875 65.972656 260.355469 C 66.246094 260.535156 66.535156 260.691406 66.839844 260.816406 C 67.140625 260.941406 67.453125 261.035156 67.777344 261.101562 C 68.097656 261.164062 68.421875 261.195312 68.75 261.195312 L 104.300781 261.195312 C 104.628906 261.199219 104.957031 261.171875 105.28125 261.109375 C 105.605469 261.046875 105.917969 260.953125 106.222656 260.828125 C 106.527344 260.707031 106.816406 260.550781 107.089844 260.371094 C 107.367188 260.1875 107.617188 259.980469 107.851562 259.746094 C 108.085938 259.515625 108.292969 259.261719 108.472656 258.988281 C 108.65625 258.710938 108.808594 258.421875 108.933594 258.117188 C 109.058594 257.8125 109.152344 257.5 109.214844 257.175781 C 109.273438 256.851562 109.304688 256.527344 109.300781 256.195312 L 109.300781 81.5 C 109.300781 81.171875 109.269531 80.847656 109.203125 80.523438 C 109.140625 80.203125 109.046875 79.890625 108.921875 79.585938 C 108.792969 79.28125 108.640625 78.996094 108.457031 78.722656 C 108.277344 78.449219 108.070312 78.195312 107.835938 77.964844 C 107.605469 77.730469 107.351562 77.523438 107.078125 77.34375 C 106.804688 77.160156 106.519531 77.007812 106.214844 76.878906 C 105.910156 76.753906 105.597656 76.660156 105.277344 76.597656 C 104.953125 76.53125 104.628906 76.5 104.300781 76.5 Z M 81.550781 243.296875 L 81.550781 237.996094 C 81.550781 237.667969 81.582031 237.34375 81.648438 237.023438 C 81.710938 236.699219 81.804688 236.386719 81.933594 236.082031 C 82.058594 235.78125 82.210938 235.492188 82.394531 235.21875 C 82.578125 234.945312 82.785156 234.695312 83.015625 234.460938 C 83.25 234.230469 83.5 234.023438 83.773438 233.839844 C 84.046875 233.65625 84.335938 233.503906 84.636719 233.378906 C 84.941406 233.253906 85.253906 233.15625 85.574219 233.09375 C 85.898438 233.03125 86.222656 232.996094 86.550781 232.996094 C 86.878906 232.996094 87.203125 233.03125 87.527344 233.09375 C 87.847656 233.15625 88.160156 233.253906 88.464844 233.378906 C 88.769531 233.503906 89.054688 233.65625 89.328125 233.839844 C 89.601562 234.023438 89.855469 234.230469 90.085938 234.460938 C 90.320312 234.695312 90.527344 234.945312 90.707031 235.21875 C 90.890625 235.492188 91.046875 235.78125 91.171875 236.082031 C 91.296875 236.386719 91.390625 236.699219 91.457031 237.023438 C 91.519531 237.34375 91.550781 237.667969 91.550781 237.996094 L 91.550781 243.296875 C 91.550781 243.625 91.519531 243.949219 91.457031 244.273438 C 91.390625 244.59375 91.296875 244.90625 91.171875 245.210938 C 91.046875 245.515625 90.890625 245.800781 90.707031 246.074219 C 90.527344 246.347656 90.320312 246.601562 90.085938 246.832031 C 89.855469 247.066406 89.601562 247.273438 89.328125 247.453125 C 89.054688 247.636719 88.769531 247.789062 88.464844 247.917969 C 88.160156 248.042969 87.847656 248.136719 87.527344 248.199219 C 87.203125 248.265625 86.878906 248.296875 86.550781 248.296875 C 86.222656 248.296875 85.898438 248.265625 85.574219 248.199219 C 85.253906 248.136719 84.941406 248.042969 84.636719 247.917969 C 84.335938 247.789062 84.046875 247.636719 83.773438 247.453125 C 83.5 247.273438 83.25 247.066406 83.015625 246.832031 C 82.785156 246.601562 82.578125 246.347656 82.394531 246.074219 C 82.210938 245.800781 82.058594 245.515625 81.933594 245.210938 C 81.804688 244.90625 81.710938 244.59375 81.648438 244.273438 C 81.582031 243.949219 81.550781 243.625 81.550781 243.296875 Z M 91.550781 99.699219 C 91.550781 100.027344 91.519531 100.351562 91.457031 100.675781 C 91.390625 100.996094 91.296875 101.308594 91.171875 101.613281 C 91.046875 101.917969 90.890625 102.203125 90.707031 102.476562 C 90.527344 102.75 90.320312 103.003906 90.085938 103.234375 C 89.855469 103.46875 89.601562 103.675781 89.328125 103.855469 C 89.054688 104.039062 88.769531 104.191406 88.464844 104.320312 C 88.160156 104.445312 87.847656 104.539062 87.527344 104.601562 C 87.203125 104.667969 86.878906 104.699219 86.550781 104.699219 C 86.222656 104.699219 85.898438 104.667969 85.574219 104.601562 C 85.253906 104.539062 84.941406 104.445312 84.636719 104.320312 C 84.335938 104.191406 84.046875 104.039062 83.773438 103.855469 C 83.5 103.675781 83.25 103.46875 83.015625 103.234375 C 82.785156 103.003906 82.578125 102.75 82.394531 102.476562 C 82.210938 102.203125 82.058594 101.917969 81.933594 101.613281 C 81.804688 101.308594 81.710938 100.996094 81.648438 100.675781 C 81.582031 100.351562 81.550781 100.027344 81.550781 99.699219 L 81.550781 94.398438 C 81.550781 94.070312 81.582031 93.746094 81.648438 93.425781 C 81.710938 93.101562 81.804688 92.789062 81.933594 92.484375 C 82.058594 92.183594 82.210938 91.894531 82.394531 91.621094 C 82.578125 91.347656 82.785156 91.097656 83.015625 90.863281 C 83.25 90.632812 83.5 90.425781 83.773438 90.242188 C 84.046875 90.058594 84.335938 89.90625 84.636719 89.78125 C 84.941406 89.65625 85.253906 89.558594 85.574219 89.496094 C 85.898438 89.429688 86.222656 89.398438 86.550781 89.398438 C 86.878906 89.398438 87.203125 89.429688 87.527344 89.496094 C 87.847656 89.558594 88.160156 89.65625 88.464844 89.78125 C 88.769531 89.90625 89.054688 90.058594 89.328125 90.242188 C 89.601562 90.425781 89.855469 90.632812 90.085938 90.863281 C 90.320312 91.097656 90.527344 91.347656 90.707031 91.621094 C 90.890625 91.894531 91.046875 92.183594 91.171875 92.484375 C 91.296875 92.789062 91.390625 93.101562 91.457031 93.425781 C 91.519531 93.746094 91.550781 94.070312 91.550781 94.398438 Z M 91.550781 99.699219 " fill-opacity="1" fill-rule="nonzero"/><path fill="#ffffff" d="M 155.5 76.5 L 119.949219 76.5 C 119.621094 76.5 119.296875 76.53125 118.976562 76.597656 C 118.652344 76.660156 118.339844 76.753906 118.039062 76.878906 C 117.734375 77.007812 117.445312 77.160156 117.171875 77.34375 C 116.898438 77.523438 116.648438 77.730469 116.414062 77.964844 C 116.183594 78.195312 115.976562 78.449219 115.792969 78.722656 C 115.609375 78.996094 115.457031 79.28125 115.332031 79.585938 C 115.207031 79.890625 115.109375 80.203125 115.046875 80.523438 C 114.984375 80.847656 114.949219 81.171875 114.949219 81.5 L 114.949219 256.195312 C 114.949219 256.523438 114.984375 256.851562 115.046875 257.171875 C 115.109375 257.496094 115.207031 257.808594 115.332031 258.109375 C 115.457031 258.414062 115.609375 258.703125 115.792969 258.976562 C 115.976562 259.246094 116.183594 259.5 116.414062 259.734375 C 116.648438 259.964844 116.898438 260.171875 117.171875 260.355469 C 117.445312 260.535156 117.734375 260.691406 118.039062 260.816406 C 118.339844 260.941406 118.652344 261.035156 118.976562 261.101562 C 119.296875 261.164062 119.621094 261.195312 119.949219 261.195312 L 155.5 261.195312 C 155.828125 261.195312 156.152344 261.164062 156.476562 261.101562 C 156.796875 261.035156 157.109375 260.941406 157.414062 260.816406 C 157.71875 260.691406 158.003906 260.535156 158.277344 260.355469 C 158.550781 260.171875 158.804688 259.964844 159.035156 259.734375 C 159.269531 259.5 159.476562 259.246094 159.65625 258.976562 C 159.839844 258.703125 159.992188 258.414062 160.121094 258.109375 C 160.246094 257.808594 160.339844 257.496094 160.40625 257.171875 C 160.46875 256.851562 160.5 256.523438 160.5 256.195312 L 160.5 81.5 C 160.5 81.171875 160.46875 80.847656 160.40625 80.523438 C 160.339844 80.203125 160.246094 79.890625 160.121094 79.585938 C 159.992188 79.28125 159.839844 78.996094 159.65625 78.722656 C 159.476562 78.449219 159.269531 78.195312 159.035156 77.964844 C 158.804688 77.730469 158.550781 77.523438 158.277344 77.34375 C 158.003906 77.160156 157.71875 77.007812 157.414062 76.878906 C 157.109375 76.753906 156.796875 76.660156 156.476562 76.597656 C 156.152344 76.53125 155.828125 76.5 155.5 76.5 Z M 132.75 243.296875 L 132.75 237.996094 C 132.75 237.667969 132.78125 237.34375 132.847656 237.023438 C 132.910156 236.699219 133.003906 236.386719 133.132812 236.082031 C 133.257812 235.78125 133.410156 235.492188 133.59375 235.21875 C 133.777344 234.945312 133.984375 234.695312 134.214844 234.460938 C 134.449219 234.230469 134.699219 234.023438 134.972656 233.839844 C 135.246094 233.65625 135.535156 233.503906 135.835938 233.378906 C 136.140625 233.253906 136.453125 233.15625 136.773438 233.09375 C 137.097656 233.03125 137.421875 232.996094 137.75 232.996094 C 138.078125 232.996094 138.402344 233.03125 138.726562 233.09375 C 139.046875 233.15625 139.359375 233.253906 139.664062 233.378906 C 139.96875 233.503906 140.253906 233.65625 140.527344 233.839844 C 140.800781 234.023438 141.054688 234.230469 141.285156 234.460938 C 141.519531 234.695312 141.726562 234.945312 141.90625 235.21875 C 142.089844 235.492188 142.246094 235.78125 142.371094 236.082031 C 142.496094 236.386719 142.589844 236.699219 142.65625 237.023438 C 142.71875 237.34375 142.75 237.667969 142.75 237.996094 L 142.75 243.296875 C 142.75 243.625 142.71875 243.949219 142.65625 244.273438 C 142.589844 244.59375 142.496094 244.90625 142.371094 245.210938 C 142.246094 245.515625 142.089844 245.800781 141.90625 246.074219 C 141.726562 246.347656 141.519531 246.601562 141.285156 246.832031 C 141.054688 247.066406 140.800781 247.273438 140.527344 247.453125 C 140.253906 247.636719 139.96875 247.789062 139.664062 247.917969 C 139.359375 248.042969 139.046875 248.136719 138.726562 248.199219 C 138.402344 248.265625 138.078125 248.296875 137.75 248.296875 C 137.421875 248.296875 137.097656 248.265625 136.773438 248.199219 C 136.453125 248.136719 136.140625 248.042969 135.835938 247.917969 C 135.535156 247.789062 135.246094 247.636719 134.972656 247.453125 C 134.699219 247.273438 134.449219 247.066406 134.214844 246.832031 C 133.984375 246.601562 133.777344 246.347656 133.59375 246.074219 C 133.410156 245.800781 133.257812 245.515625 133.132812 245.210938 C 133.003906 244.90625 132.910156 244.59375 132.847656 244.273438 C 132.78125 243.949219 132.75 243.625 132.75 243.296875 Z M 142.75 99.699219 C 142.75 100.027344 142.71875 100.351562 142.65625 100.675781 C 142.589844 100.996094 142.496094 101.308594 142.371094 101.613281 C 142.246094 101.917969 142.089844 102.203125 141.90625 102.476562 C 141.726562 102.75 141.519531 103.003906 141.285156 103.234375 C 141.054688 103.46875 140.800781 103.675781 140.527344 103.855469 C 140.253906 104.039062 139.96875 104.191406 139.664062 104.320312 C 139.359375 104.445312 139.046875 104.539062 138.726562 104.601562 C 138.402344 104.667969 138.078125 104.699219 137.75 104.699219 C 137.421875 104.699219 137.097656 104.667969 136.773438 104.601562 C 136.453125 104.539062 136.140625 104.445312 135.835938 104.320312 C 135.535156 104.191406 135.246094 104.039062 134.972656 103.855469 C 134.699219 103.675781 134.449219 103.46875 134.214844 103.234375 C 133.984375 103.003906 133.777344 102.75 133.59375 102.476562 C 133.410156 102.203125 133.257812 101.917969 133.132812 101.613281 C 133.003906 101.308594 132.910156 100.996094 132.847656 100.675781 C 132.78125 100.351562 132.75 100.027344 132.75 99.699219 L 132.75 94.398438 C 132.75 94.070312 132.78125 93.746094 132.847656 93.425781 C 132.910156 93.101562 133.003906 92.789062 133.132812 92.484375 C 133.257812 92.183594 133.410156 91.894531 133.59375 91.621094 C 133.777344 91.347656 133.984375 91.097656 134.214844 90.863281 C 134.449219 90.632812 134.699219 90.425781 134.972656 90.242188 C 135.246094 90.058594 135.535156 89.90625 135.835938 89.78125 C 136.140625 89.65625 136.453125 89.558594 136.773438 89.496094 C 137.097656 89.429688 137.421875 89.398438 137.75 89.398438 C 138.078125 89.398438 138.402344 89.429688 138.726562 89.496094 C 139.046875 89.558594 139.359375 89.65625 139.664062 89.78125 C 139.96875 89.90625 140.253906 90.058594 140.527344 90.242188 C 140.800781 90.425781 141.054688 90.632812 141.285156 90.863281 C 141.519531 91.097656 141.726562 91.347656 141.90625 91.621094 C 142.089844 91.894531 142.246094 92.183594 142.371094 92.484375 C 142.496094 92.789062 142.589844 93.101562 142.65625 93.425781 C 142.71875 93.746094 142.75 94.070312 142.75 94.398438 Z M 142.75 99.699219 " fill-opacity="1" fill-rule="nonzero"/><path fill="#ffffff" d="M 206.699219 76.5 L 171.148438 76.5 C 170.820312 76.5 170.496094 76.53125 170.175781 76.597656 C 169.851562 76.660156 169.539062 76.753906 169.238281 76.878906 C 168.933594 77.007812 168.644531 77.160156 168.371094 77.34375 C 168.097656 77.523438 167.847656 77.730469 167.613281 77.964844 C 167.382812 78.195312 167.175781 78.449219 166.992188 78.722656 C 166.808594 78.996094 166.65625 79.28125 166.53125 79.585938 C 166.40625 79.890625 166.308594 80.203125 166.246094 80.523438 C 166.183594 80.847656 166.148438 81.171875 166.148438 81.5 L 166.148438 256.195312 C 166.148438 256.527344 166.175781 256.851562 166.238281 257.175781 C 166.300781 257.5 166.394531 257.8125 166.515625 258.117188 C 166.640625 258.421875 166.796875 258.710938 166.976562 258.988281 C 167.160156 259.261719 167.367188 259.515625 167.601562 259.746094 C 167.832031 259.980469 168.085938 260.1875 168.359375 260.371094 C 168.632812 260.550781 168.925781 260.707031 169.230469 260.828125 C 169.535156 260.953125 169.847656 261.046875 170.171875 261.109375 C 170.496094 261.171875 170.820312 261.199219 171.148438 261.195312 L 206.699219 261.195312 C 207.027344 261.195312 207.351562 261.164062 207.675781 261.101562 C 207.996094 261.035156 208.308594 260.941406 208.613281 260.816406 C 208.917969 260.691406 209.203125 260.535156 209.476562 260.355469 C 209.75 260.171875 210.003906 259.964844 210.234375 259.734375 C 210.46875 259.5 210.675781 259.246094 210.855469 258.976562 C 211.039062 258.703125 211.195312 258.414062 211.320312 258.109375 C 211.445312 257.808594 211.539062 257.496094 211.605469 257.171875 C 211.667969 256.851562 211.699219 256.523438 211.699219 256.195312 L 211.699219 81.5 C 211.699219 81.171875 211.667969 80.847656 211.605469 80.523438 C 211.539062 80.203125 211.445312 79.890625 211.320312 79.585938 C 211.195312 79.28125 211.039062 78.996094 210.855469 78.722656 C 210.675781 78.449219 210.46875 78.195312 210.234375 77.964844 C 210.003906 77.730469 209.75 77.523438 209.476562 77.34375 C 209.203125 77.160156 208.917969 77.007812 208.613281 76.878906 C 208.308594 76.753906 207.996094 76.660156 207.675781 76.597656 C 207.351562 76.53125 207.027344 76.5 206.699219 76.5 Z M 183.898438 243.296875 L 183.898438 237.996094 C 183.898438 237.667969 183.929688 237.34375 183.996094 237.019531 C 184.058594 236.699219 184.152344 236.386719 184.277344 236.082031 C 184.402344 235.777344 184.558594 235.488281 184.742188 235.214844 C 184.921875 234.941406 185.128906 234.691406 185.363281 234.457031 C 185.59375 234.226562 185.847656 234.015625 186.121094 233.835938 C 186.394531 233.652344 186.679688 233.496094 186.984375 233.371094 C 187.289062 233.246094 187.601562 233.152344 187.921875 233.085938 C 188.246094 233.023438 188.570312 232.992188 188.898438 232.992188 C 189.230469 232.992188 189.554688 233.023438 189.875 233.085938 C 190.199219 233.152344 190.511719 233.246094 190.816406 233.371094 C 191.117188 233.496094 191.40625 233.652344 191.679688 233.835938 C 191.953125 234.015625 192.207031 234.226562 192.4375 234.457031 C 192.671875 234.691406 192.878906 234.941406 193.058594 235.214844 C 193.242188 235.488281 193.394531 235.777344 193.519531 236.082031 C 193.648438 236.386719 193.742188 236.699219 193.804688 237.019531 C 193.867188 237.34375 193.898438 237.667969 193.898438 237.996094 L 193.898438 243.296875 C 193.898438 243.625 193.867188 243.949219 193.804688 244.273438 C 193.738281 244.59375 193.644531 244.90625 193.519531 245.210938 C 193.394531 245.515625 193.238281 245.800781 193.058594 246.074219 C 192.875 246.347656 192.667969 246.601562 192.433594 246.832031 C 192.203125 247.066406 191.949219 247.273438 191.679688 247.453125 C 191.40625 247.636719 191.117188 247.789062 190.8125 247.917969 C 190.511719 248.042969 190.199219 248.136719 189.875 248.199219 C 189.554688 248.265625 189.226562 248.296875 188.898438 248.296875 C 188.570312 248.296875 188.246094 248.265625 187.925781 248.199219 C 187.601562 248.136719 187.289062 248.042969 186.988281 247.917969 C 186.683594 247.789062 186.394531 247.636719 186.121094 247.453125 C 185.847656 247.273438 185.597656 247.066406 185.363281 246.832031 C 185.132812 246.601562 184.925781 246.347656 184.742188 246.074219 C 184.558594 245.800781 184.40625 245.515625 184.28125 245.210938 C 184.15625 244.90625 184.058594 244.59375 183.996094 244.273438 C 183.933594 243.949219 183.898438 243.625 183.898438 243.296875 Z M 193.898438 99.699219 C 193.898438 100.027344 193.867188 100.351562 193.804688 100.675781 C 193.738281 100.996094 193.644531 101.308594 193.519531 101.613281 C 193.394531 101.917969 193.238281 102.203125 193.058594 102.476562 C 192.875 102.75 192.667969 103.003906 192.433594 103.234375 C 192.203125 103.46875 191.949219 103.675781 191.679688 103.855469 C 191.40625 104.039062 191.117188 104.191406 190.8125 104.320312 C 190.511719 104.445312 190.199219 104.539062 189.875 104.601562 C 189.554688 104.667969 189.226562 104.699219 188.898438 104.699219 C 188.570312 104.699219 188.246094 104.667969 187.925781 104.601562 C 187.601562 104.539062 187.289062 104.445312 186.988281 104.320312 C 186.683594 104.191406 186.394531 104.039062 186.121094 103.855469 C 185.847656 103.675781 185.597656 103.46875 185.363281 103.234375 C 185.132812 103.003906 184.925781 102.75 184.742188 102.476562 C 184.558594 102.203125 184.40625 101.917969 184.28125 101.613281 C 184.15625 101.308594 184.058594 100.996094 183.996094 100.675781 C 183.933594 100.351562 183.898438 100.027344 183.898438 99.699219 L 183.898438 94.398438 C 183.898438 94.070312 183.933594 93.746094 183.996094 93.425781 C 184.058594 93.101562 184.15625 92.789062 184.28125 92.484375 C 184.40625 92.183594 184.558594 91.894531 184.742188 91.621094 C 184.925781 91.347656 185.132812 91.097656 185.363281 90.863281 C 185.597656 90.632812 185.847656 90.425781 186.121094 90.242188 C 186.394531 90.058594 186.683594 89.90625 186.988281 89.78125 C 187.289062 89.65625 187.601562 89.558594 187.925781 89.496094 C 188.246094 89.429688 188.570312 89.398438 188.898438 89.398438 C 189.226562 89.398438 189.554688 89.429688 189.875 89.496094 C 190.199219 89.558594 190.511719 89.65625 190.8125 89.78125 C 191.117188 89.90625 191.40625 90.058594 191.679688 90.242188 C 191.949219 90.425781 192.203125 90.632812 192.433594 90.863281 C 192.667969 91.097656 192.875 91.347656 193.058594 91.621094 C 193.238281 91.894531 193.394531 92.183594 193.519531 92.484375 C 193.644531 92.789062 193.738281 93.101562 193.804688 93.425781 C 193.867188 93.746094 193.898438 94.070312 193.898438 94.398438 Z M 193.898438 99.699219 " fill-opacity="1" fill-rule="nonzero"/><path fill="#ffffff" d="M 257.898438 76.5 L 222.300781 76.5 C 221.972656 76.5 221.644531 76.53125 221.324219 76.597656 C 221.003906 76.660156 220.6875 76.753906 220.386719 76.878906 C 220.082031 77.007812 219.792969 77.160156 219.523438 77.34375 C 219.25 77.523438 218.996094 77.730469 218.765625 77.964844 C 218.53125 78.195312 218.324219 78.449219 218.140625 78.722656 C 217.960938 78.996094 217.804688 79.28125 217.679688 79.585938 C 217.554688 79.890625 217.460938 80.203125 217.394531 80.523438 C 217.332031 80.847656 217.300781 81.171875 217.300781 81.5 L 217.300781 256.195312 C 217.300781 256.523438 217.332031 256.851562 217.394531 257.171875 C 217.460938 257.496094 217.554688 257.808594 217.679688 258.109375 C 217.804688 258.414062 217.960938 258.703125 218.140625 258.976562 C 218.324219 259.246094 218.53125 259.5 218.765625 259.734375 C 218.996094 259.964844 219.25 260.171875 219.523438 260.355469 C 219.792969 260.535156 220.082031 260.691406 220.386719 260.816406 C 220.6875 260.941406 221.003906 261.035156 221.324219 261.101562 C 221.644531 261.164062 221.972656 261.195312 222.300781 261.195312 L 257.898438 261.195312 C 258.226562 261.195312 258.550781 261.164062 258.875 261.101562 C 259.195312 261.035156 259.507812 260.941406 259.8125 260.816406 C 260.117188 260.691406 260.402344 260.535156 260.675781 260.355469 C 260.949219 260.171875 261.203125 259.964844 261.433594 259.734375 C 261.667969 259.5 261.875 259.246094 262.054688 258.976562 C 262.238281 258.703125 262.394531 258.414062 262.519531 258.109375 C 262.644531 257.808594 262.738281 257.496094 262.804688 257.171875 C 262.867188 256.851562 262.898438 256.523438 262.898438 256.195312 L 262.898438 81.5 C 262.898438 81.171875 262.867188 80.847656 262.804688 80.523438 C 262.738281 80.203125 262.644531 79.890625 262.519531 79.585938 C 262.394531 79.28125 262.238281 78.996094 262.054688 78.722656 C 261.875 78.449219 261.667969 78.195312 261.433594 77.964844 C 261.203125 77.730469 260.949219 77.523438 260.675781 77.34375 C 260.402344 77.160156 260.117188 77.007812 259.8125 76.878906 C 259.507812 76.753906 259.195312 76.660156 258.875 76.597656 C 258.550781 76.53125 258.226562 76.5 257.898438 76.5 Z M 235.097656 243.296875 L 235.097656 237.996094 C 235.097656 237.667969 235.132812 237.34375 235.195312 237.023438 C 235.257812 236.699219 235.355469 236.386719 235.480469 236.082031 C 235.605469 235.78125 235.757812 235.492188 235.941406 235.21875 C 236.125 234.945312 236.332031 234.695312 236.5625 234.460938 C 236.796875 234.230469 237.046875 234.023438 237.320312 233.839844 C 237.59375 233.65625 237.882812 233.503906 238.1875 233.378906 C 238.488281 233.253906 238.800781 233.15625 239.125 233.09375 C 239.445312 233.03125 239.769531 232.996094 240.097656 232.996094 C 240.425781 232.996094 240.753906 233.03125 241.074219 233.09375 C 241.398438 233.15625 241.710938 233.253906 242.011719 233.378906 C 242.316406 233.503906 242.605469 233.65625 242.878906 233.839844 C 243.148438 234.023438 243.402344 234.230469 243.632812 234.460938 C 243.867188 234.695312 244.074219 234.945312 244.257812 235.21875 C 244.4375 235.492188 244.59375 235.78125 244.71875 236.082031 C 244.84375 236.386719 244.9375 236.699219 245.003906 237.023438 C 245.066406 237.34375 245.097656 237.667969 245.097656 237.996094 L 245.097656 243.296875 C 245.097656 243.625 245.066406 243.949219 245.003906 244.273438 C 244.9375 244.59375 244.84375 244.90625 244.71875 245.210938 C 244.59375 245.515625 244.4375 245.800781 244.257812 246.074219 C 244.074219 246.347656 243.867188 246.601562 243.632812 246.832031 C 243.402344 247.066406 243.148438 247.273438 242.878906 247.453125 C 242.605469 247.636719 242.316406 247.789062 242.011719 247.917969 C 241.710938 248.042969 241.398438 248.136719 241.074219 248.199219 C 240.753906 248.265625 240.425781 248.296875 240.097656 248.296875 C 239.769531 248.296875 239.445312 248.265625 239.125 248.199219 C 238.800781 248.136719 238.488281 248.042969 238.1875 247.917969 C 237.882812 247.789062 237.59375 247.636719 237.320312 247.453125 C 237.046875 247.273438 236.796875 247.066406 236.5625 246.832031 C 236.332031 246.601562 236.125 246.347656 235.941406 246.074219 C 235.757812 245.800781 235.605469 245.515625 235.480469 245.210938 C 235.355469 244.90625 235.257812 244.59375 235.195312 244.273438 C 235.132812 243.949219 235.097656 243.625 235.097656 243.296875 Z M 245.097656 99.699219 C 245.097656 100.027344 245.066406 100.351562 245.003906 100.675781 C 244.9375 100.996094 244.84375 101.308594 244.71875 101.613281 C 244.59375 101.917969 244.4375 102.203125 244.257812 102.476562 C 244.074219 102.75 243.867188 103.003906 243.632812 103.234375 C 243.402344 103.46875 243.148438 103.675781 242.878906 103.855469 C 242.605469 104.039062 242.316406 104.191406 242.011719 104.320312 C 241.710938 104.445312 241.398438 104.539062 241.074219 104.601562 C 240.753906 104.667969 240.425781 104.699219 240.097656 104.699219 C 239.769531 104.699219 239.445312 104.667969 239.125 104.601562 C 238.800781 104.539062 238.488281 104.445312 238.1875 104.320312 C 237.882812 104.191406 237.59375 104.039062 237.320312 103.855469 C 237.046875 103.675781 236.796875 103.46875 236.5625 103.234375 C 236.332031 103.003906 236.125 102.75 235.941406 102.476562 C 235.757812 102.203125 235.605469 101.917969 235.480469 101.613281 C 235.355469 101.308594 235.257812 100.996094 235.195312 100.675781 C 235.132812 100.351562 235.097656 100.027344 235.097656 99.699219 L 235.097656 94.398438 C 235.097656 94.070312 235.132812 93.746094 235.195312 93.425781 C 235.257812 93.101562 235.355469 92.789062 235.480469 92.484375 C 235.605469 92.183594 235.757812 91.894531 235.941406 91.621094 C 236.125 91.347656 236.332031 91.097656 236.5625 90.863281 C 236.796875 90.632812 237.046875 90.425781 237.320312 90.242188 C 237.59375 90.058594 237.882812 89.90625 238.1875 89.78125 C 238.488281 89.65625 238.800781 89.558594 239.125 89.496094 C 239.445312 89.429688 239.769531 89.398438 240.097656 89.398438 C 240.425781 89.398438 240.753906 89.429688 241.074219 89.496094 C 241.398438 89.558594 241.710938 89.65625 242.011719 89.78125 C 242.316406 89.90625 242.605469 90.058594 242.878906 90.242188 C 243.148438 90.425781 243.402344 90.632812 243.632812 90.863281 C 243.867188 91.097656 244.074219 91.347656 244.257812 91.621094 C 244.4375 91.894531 244.59375 92.183594 244.71875 92.484375 C 244.84375 92.789062 244.9375 93.101562 245.003906 93.425781 C 245.066406 93.746094 245.097656 94.070312 245.097656 94.398438 Z M 245.097656 99.699219 " fill-opacity="1" fill-rule="nonzero"/></svg>