<svg xmlns="http://www.w3.org/2000/svg" xmlns:xlink="http://www.w3.org/1999/xlink" width="500" zoomAndPan="magnify" viewBox="0 0 375 374.999991" height="500" preserveAspectRatio="xMidYMid meet" version="1.0"><defs><clipPath id="3fc5ed6846"><path d="M 37.5 60.75 L 337.5 60.75 L 337.5 314.25 L 37.5 314.25 Z M 37.5 60.75 " clip-rule="nonzero"/></clipPath></defs><g clip-path="url(#3fc5ed6846)"><path fill="#ffffff" d="M 143.035156 203.773438 L 143.035156 279.664062 C 143.035156 283.558594 139.878906 286.71875 135.980469 286.71875 C 132.089844 286.71875 128.925781 283.5625 128.925781 279.664062 L 128.925781 203.773438 C 128.925781 199.878906 132.082031 196.71875 135.980469 196.71875 C 139.875 196.71875 143.035156 199.875 143.035156 203.773438 Z M 264.808594 213.917969 C 260.914062 213.917969 257.753906 217.074219 257.753906 220.972656 L 257.753906 262.464844 C 257.753906 266.359375 260.90625 269.519531 264.808594 269.519531 C 268.707031 269.519531 271.859375 266.363281 271.859375 262.464844 L 271.859375 220.972656 C 271.859375 217.074219 268.699219 213.917969 264.808594 213.917969 Z M 161.75 206.730469 C 157.855469 206.730469 154.695312 209.886719 154.695312 213.785156 L 154.695312 269.648438 C 154.695312 273.539062 157.851562 276.699219 161.75 276.699219 C 165.648438 276.699219 168.804688 273.546875 168.804688 269.648438 L 168.804688 213.785156 C 168.796875 209.890625 165.640625 206.730469 161.75 206.730469 Z M 110.214844 213.917969 C 106.320312 213.917969 103.160156 217.074219 103.160156 220.972656 L 103.160156 262.464844 C 103.160156 266.359375 106.316406 269.519531 110.214844 269.519531 C 114.109375 269.519531 117.269531 266.363281 117.269531 262.464844 L 117.269531 220.972656 C 117.269531 217.074219 114.113281 213.917969 110.214844 213.917969 Z M 187.511719 169.1875 C 183.617188 169.1875 180.457031 172.34375 180.457031 176.242188 L 180.457031 307.203125 C 180.457031 311.09375 183.613281 314.253906 187.511719 314.253906 C 191.402344 314.253906 194.566406 311.101562 194.566406 307.203125 L 194.566406 176.242188 C 194.566406 172.34375 191.410156 169.1875 187.511719 169.1875 Z M 213.277344 209.503906 C 209.382812 209.503906 206.222656 212.65625 206.222656 216.554688 L 206.222656 266.882812 C 206.222656 270.773438 209.378906 273.9375 213.277344 273.9375 C 217.171875 273.9375 220.332031 270.78125 220.332031 266.882812 L 220.332031 216.554688 C 220.332031 212.65625 217.171875 209.503906 213.277344 209.503906 Z M 239.039062 203.535156 C 235.144531 203.535156 231.984375 206.6875 231.984375 210.585938 L 231.984375 279.664062 C 231.984375 283.558594 235.140625 286.71875 239.039062 286.71875 C 242.933594 286.71875 246.09375 283.5625 246.09375 279.664062 L 246.09375 210.585938 C 246.09375 206.695312 242.9375 203.535156 239.039062 203.535156 Z M 309.382812 184.964844 L 309.382812 182.617188 C 309.382812 115.417969 254.710938 60.75 187.511719 60.75 C 120.3125 60.75 65.644531 115.417969 65.644531 182.617188 L 65.644531 184.964844 C 49.984375 186.019531 37.566406 199.082031 37.566406 215.003906 L 37.566406 257.253906 C 37.566406 273.859375 51.074219 287.371094 67.679688 287.371094 L 72.585938 287.371094 C 76.421875 287.371094 79.53125 284.261719 79.53125 280.421875 L 79.53125 182.621094 C 79.53125 123.082031 127.96875 74.644531 187.511719 74.644531 C 247.050781 74.644531 295.488281 123.082031 295.488281 182.621094 L 295.488281 280.429688 C 295.488281 284.261719 298.597656 287.375 302.4375 287.375 L 307.339844 287.375 C 323.945312 287.375 337.457031 273.867188 337.457031 257.261719 L 337.457031 215.011719 C 337.457031 199.082031 325.035156 186.019531 309.382812 184.964844 Z M 309.382812 184.964844 " fill-opacity="1" fill-rule="nonzero"/></g></svg>