<svg xmlns="http://www.w3.org/2000/svg" xmlns:xlink="http://www.w3.org/1999/xlink" width="500" zoomAndPan="magnify" viewBox="0 0 375 374.999991" height="500" preserveAspectRatio="xMidYMid meet" version="1.0"><defs><clipPath id="845c39a9ba"><path d="M 37.5 37.5 L 337.5 37.5 L 337.5 337.5 L 37.5 337.5 Z M 37.5 37.5 " clip-rule="nonzero"/></clipPath></defs><path fill="#03101b" d="M 187.5 324.148438 C 262.957031 324.148438 324.128906 262.980469 324.128906 187.519531 C 324.128906 112.0625 262.957031 50.894531 187.5 50.894531 C 112.042969 50.894531 50.871094 112.0625 50.871094 187.519531 C 50.871094 262.980469 112.042969 324.148438 187.5 324.148438 Z M 187.5 324.148438 " fill-opacity="1" fill-rule="nonzero"/><g clip-path="url(#845c39a9ba)"><path fill="#ffffff" d="M 64.265625 187.519531 C 64.265625 119.460938 119.4375 64.285156 187.5 64.285156 C 255.5625 64.285156 310.734375 119.460938 310.734375 187.519531 C 310.734375 255.582031 255.5625 310.757812 187.5 310.757812 C 119.4375 310.757812 64.265625 255.582031 64.265625 187.519531 Z M 187.5 37.5 C 104.644531 37.5 37.480469 104.667969 37.480469 187.519531 C 37.480469 270.375 104.644531 337.542969 187.5 337.542969 C 270.355469 337.542969 337.519531 270.375 337.519531 187.519531 C 337.519531 104.667969 270.355469 37.5 187.5 37.5 Z M 119.4375 157 C 172.753906 146.820312 213.566406 152.3125 264.3125 179.316406 C 272.148438 183.484375 281.878906 180.511719 286.050781 172.679688 C 290.21875 164.84375 287.246094 155.109375 279.410156 150.941406 C 222.132812 120.460938 173.855469 113.886719 113.410156 125.429688 C 104.691406 127.09375 98.972656 135.511719 100.636719 144.230469 C 102.300781 152.945312 110.71875 158.664062 119.4375 157 Z M 203.597656 264.1875 C 180.367188 253.578125 164.65625 250.589844 140.496094 253.5625 C 131.6875 254.648438 123.664062 248.386719 122.582031 239.574219 C 121.496094 230.765625 127.757812 222.746094 136.570312 221.660156 C 167.398438 217.867188 189.078125 222.21875 216.949219 234.949219 C 225.023438 238.636719 228.578125 248.171875 224.890625 256.246094 C 221.203125 264.320312 211.667969 267.875 203.597656 264.1875 Z M 131.117188 203.835938 C 168.816406 196.34375 194.816406 203.238281 238.328125 224.253906 C 246.320312 228.113281 255.929688 224.765625 259.789062 216.773438 C 263.648438 208.78125 260.300781 199.171875 252.304688 195.308594 C 205.921875 172.90625 172.363281 162.863281 124.851562 172.308594 C 116.144531 174.039062 110.492188 182.5 112.222656 191.203125 C 113.953125 199.910156 122.414062 205.566406 131.117188 203.835938 Z M 131.117188 203.835938 " fill-opacity="1" fill-rule="evenodd"/></g></svg>