<svg xmlns="http://www.w3.org/2000/svg" xmlns:xlink="http://www.w3.org/1999/xlink" width="500" zoomAndPan="magnify" viewBox="0 0 375 374.999991" height="500" preserveAspectRatio="xMidYMid meet" version="1.0"><defs><clipPath id="7807e80671"><path d="M 103 154 L 244 154 L 244 314.25 L 103 314.25 Z M 103 154 " clip-rule="nonzero"/></clipPath><clipPath id="ef54bb5dd4"><path d="M 37.5 60.75 L 337.5 60.75 L 337.5 249 L 37.5 249 Z M 37.5 60.75 " clip-rule="nonzero"/></clipPath></defs><g clip-path="url(#7807e80671)"><path fill="#ffffff" d="M 215.667969 248.53125 C 214.746094 248.53125 213.824219 248.578125 212.90625 248.667969 C 211.988281 248.757812 211.078125 248.894531 210.171875 249.074219 C 209.265625 249.253906 208.375 249.476562 207.492188 249.746094 C 206.609375 250.011719 205.738281 250.324219 204.886719 250.675781 C 204.035156 251.027344 203.203125 251.421875 202.390625 251.859375 C 201.574219 252.292969 200.785156 252.765625 200.019531 253.277344 C 199.25 253.792969 198.511719 254.339844 197.796875 254.925781 C 197.085938 255.511719 196.402344 256.128906 195.75 256.78125 C 195.097656 257.433594 194.480469 258.117188 193.894531 258.828125 C 193.308594 259.542969 192.757812 260.28125 192.246094 261.050781 C 191.734375 261.816406 191.261719 262.605469 190.824219 263.421875 C 190.390625 264.234375 189.996094 265.066406 189.644531 265.917969 C 189.289062 266.773438 188.980469 267.640625 188.710938 268.523438 C 188.445312 269.40625 188.222656 270.296875 188.042969 271.203125 C 187.859375 272.109375 187.726562 273.019531 187.636719 273.9375 C 187.546875 274.855469 187.5 275.777344 187.5 276.699219 C 187.5 277.621094 187.546875 278.542969 187.636719 279.460938 C 187.726562 280.378906 187.859375 281.289062 188.042969 282.195312 C 188.222656 283.097656 188.445312 283.992188 188.710938 284.875 C 188.980469 285.757812 189.289062 286.625 189.644531 287.476562 C 189.996094 288.328125 190.390625 289.164062 190.824219 289.976562 C 191.261719 290.789062 191.734375 291.578125 192.246094 292.347656 C 192.757812 293.113281 193.308594 293.855469 193.894531 294.566406 C 194.480469 295.28125 195.097656 295.964844 195.75 296.617188 C 196.402344 297.269531 197.085938 297.886719 197.796875 298.472656 C 198.511719 299.058594 199.25 299.605469 200.019531 300.117188 C 200.785156 300.628906 201.574219 301.105469 202.390625 301.539062 C 203.203125 301.972656 204.035156 302.367188 204.886719 302.722656 C 205.738281 303.074219 206.609375 303.382812 207.492188 303.652344 C 208.375 303.921875 209.265625 304.144531 210.171875 304.324219 C 211.078125 304.503906 211.988281 304.640625 212.90625 304.730469 C 213.824219 304.820312 214.746094 304.863281 215.667969 304.863281 C 216.589844 304.863281 217.507812 304.820312 218.425781 304.730469 C 219.34375 304.640625 220.257812 304.503906 221.160156 304.324219 C 222.066406 304.144531 222.960938 303.921875 223.84375 303.652344 C 224.726562 303.382812 225.59375 303.074219 226.445312 302.722656 C 227.296875 302.367188 228.128906 301.972656 228.945312 301.539062 C 229.757812 301.105469 230.546875 300.628906 231.316406 300.117188 C 232.082031 299.605469 232.824219 299.058594 233.535156 298.472656 C 234.25 297.886719 234.929688 297.269531 235.582031 296.617188 C 236.234375 295.964844 236.855469 295.28125 237.441406 294.566406 C 238.023438 293.855469 238.574219 293.113281 239.085938 292.347656 C 239.597656 291.578125 240.074219 290.789062 240.507812 289.976562 C 240.941406 289.164062 241.335938 288.328125 241.6875 287.476562 C 242.042969 286.625 242.351562 285.757812 242.621094 284.875 C 242.886719 283.992188 243.113281 283.097656 243.292969 282.195312 C 243.472656 281.289062 243.605469 280.378906 243.699219 279.460938 C 243.789062 278.542969 243.832031 277.621094 243.832031 276.699219 L 243.832031 164.03125 C 243.832031 163.679688 243.8125 163.332031 243.773438 162.984375 C 243.734375 162.636719 243.675781 162.292969 243.597656 161.949219 C 243.519531 161.609375 243.425781 161.273438 243.308594 160.941406 C 243.195312 160.609375 243.0625 160.285156 242.910156 159.972656 C 242.757812 159.65625 242.589844 159.347656 242.402344 159.050781 C 242.21875 158.753906 242.015625 158.46875 241.796875 158.195312 C 241.578125 157.921875 241.347656 157.660156 241.101562 157.410156 C 240.851562 157.164062 240.59375 156.929688 240.320312 156.710938 C 240.046875 156.492188 239.761719 156.285156 239.464844 156.101562 C 239.167969 155.914062 238.863281 155.742188 238.546875 155.589844 C 238.234375 155.4375 237.910156 155.300781 237.582031 155.183594 C 237.25 155.066406 236.914062 154.96875 236.574219 154.890625 C 236.230469 154.808594 235.886719 154.75 235.539062 154.707031 C 235.191406 154.667969 234.84375 154.644531 234.492188 154.644531 C 234.140625 154.644531 233.792969 154.660156 233.445312 154.699219 C 233.097656 154.734375 232.75 154.792969 232.410156 154.867188 L 147.910156 173.644531 C 147.390625 173.761719 146.886719 173.917969 146.394531 174.117188 C 145.90625 174.320312 145.433594 174.558594 144.984375 174.839844 C 144.535156 175.121094 144.109375 175.433594 143.714844 175.789062 C 143.316406 176.140625 142.953125 176.523438 142.621094 176.933594 C 142.289062 177.347656 141.996094 177.789062 141.738281 178.25 C 141.480469 178.714844 141.261719 179.195312 141.085938 179.695312 C 140.910156 180.195312 140.777344 180.707031 140.691406 181.230469 C 140.601562 181.753906 140.554688 182.28125 140.554688 182.808594 L 140.554688 259.652344 C 137.527344 258.527344 134.398438 257.953125 131.167969 257.921875 C 130.246094 257.921875 129.324219 257.964844 128.40625 258.054688 C 127.488281 258.148438 126.578125 258.28125 125.671875 258.460938 C 124.765625 258.640625 123.875 258.867188 122.992188 259.132812 C 122.109375 259.402344 121.238281 259.710938 120.386719 260.066406 C 119.535156 260.417969 118.703125 260.8125 117.890625 261.246094 C 117.074219 261.679688 116.285156 262.15625 115.519531 262.667969 C 114.75 263.179688 114.011719 263.730469 113.296875 264.3125 C 112.585938 264.898438 111.902344 265.519531 111.25 266.171875 C 110.597656 266.824219 109.980469 267.503906 109.394531 268.21875 C 108.808594 268.933594 108.257812 269.671875 107.746094 270.4375 C 107.234375 271.207031 106.761719 271.996094 106.324219 272.808594 C 105.890625 273.625 105.496094 274.457031 105.144531 275.308594 C 104.792969 276.160156 104.480469 277.027344 104.210938 277.910156 C 103.945312 278.792969 103.722656 279.6875 103.542969 280.59375 C 103.359375 281.496094 103.226562 282.410156 103.136719 283.328125 C 103.046875 284.246094 103 285.164062 103 286.085938 C 103 287.011719 103.046875 287.929688 103.136719 288.847656 C 103.226562 289.765625 103.359375 290.675781 103.542969 291.582031 C 103.722656 292.488281 103.945312 293.382812 104.210938 294.265625 C 104.480469 295.148438 104.792969 296.015625 105.144531 296.867188 C 105.496094 297.71875 105.890625 298.550781 106.324219 299.363281 C 106.761719 300.179688 107.234375 300.96875 107.746094 301.734375 C 108.257812 302.503906 108.808594 303.242188 109.394531 303.957031 C 109.980469 304.667969 110.597656 305.351562 111.25 306.003906 C 111.902344 306.65625 112.585938 307.273438 113.296875 307.859375 C 114.011719 308.445312 114.75 308.996094 115.519531 309.507812 C 116.285156 310.019531 117.074219 310.492188 117.890625 310.929688 C 118.703125 311.363281 119.535156 311.757812 120.386719 312.109375 C 121.238281 312.464844 122.109375 312.773438 122.992188 313.042969 C 123.875 313.308594 124.765625 313.53125 125.671875 313.710938 C 126.578125 313.894531 127.488281 314.027344 128.40625 314.117188 C 129.324219 314.207031 130.246094 314.253906 131.167969 314.253906 C 132.089844 314.253906 133.007812 314.207031 133.925781 314.117188 C 134.84375 314.027344 135.757812 313.894531 136.660156 313.710938 C 137.566406 313.53125 138.460938 313.308594 139.34375 313.042969 C 140.226562 312.773438 141.09375 312.464844 141.945312 312.109375 C 142.796875 311.757812 143.628906 311.363281 144.445312 310.929688 C 145.257812 310.492188 146.046875 310.019531 146.816406 309.507812 C 147.582031 308.996094 148.324219 308.445312 149.035156 307.859375 C 149.75 307.273438 150.429688 306.65625 151.082031 306.003906 C 151.734375 305.351562 152.355469 304.667969 152.941406 303.957031 C 153.523438 303.242188 154.074219 302.503906 154.585938 301.734375 C 155.097656 300.96875 155.574219 300.179688 156.007812 299.363281 C 156.441406 298.550781 156.835938 297.71875 157.1875 296.867188 C 157.542969 296.015625 157.851562 295.148438 158.121094 294.265625 C 158.386719 293.382812 158.613281 292.488281 158.792969 291.582031 C 158.972656 290.675781 159.105469 289.765625 159.199219 288.847656 C 159.289062 287.929688 159.332031 287.011719 159.332031 286.085938 L 159.332031 227.894531 L 225.054688 213.289062 L 225.054688 250.261719 C 222.027344 249.140625 218.898438 248.5625 215.667969 248.53125 Z M 215.667969 286.085938 C 215.050781 286.085938 214.441406 286.027344 213.835938 285.90625 C 213.230469 285.785156 212.644531 285.609375 212.074219 285.371094 C 211.503906 285.136719 210.964844 284.847656 210.449219 284.503906 C 209.9375 284.164062 209.464844 283.773438 209.027344 283.335938 C 208.589844 282.902344 208.203125 282.425781 207.859375 281.914062 C 207.515625 281.402344 207.226562 280.859375 206.992188 280.292969 C 206.757812 279.722656 206.578125 279.136719 206.457031 278.53125 C 206.335938 277.925781 206.277344 277.316406 206.277344 276.699219 C 206.277344 276.082031 206.335938 275.472656 206.457031 274.867188 C 206.578125 274.261719 206.757812 273.675781 206.992188 273.105469 C 207.226562 272.535156 207.515625 271.996094 207.859375 271.480469 C 208.203125 270.96875 208.589844 270.496094 209.027344 270.058594 C 209.464844 269.625 209.9375 269.234375 210.449219 268.890625 C 210.964844 268.550781 211.503906 268.261719 212.074219 268.023438 C 212.644531 267.789062 213.230469 267.609375 213.835938 267.488281 C 214.441406 267.371094 215.050781 267.308594 215.667969 267.308594 C 216.28125 267.308594 216.894531 267.371094 217.5 267.488281 C 218.101562 267.609375 218.691406 267.789062 219.257812 268.023438 C 219.828125 268.261719 220.371094 268.550781 220.882812 268.890625 C 221.394531 269.234375 221.871094 269.625 222.304688 270.058594 C 222.742188 270.496094 223.128906 270.96875 223.472656 271.480469 C 223.816406 271.996094 224.105469 272.535156 224.339844 273.105469 C 224.578125 273.675781 224.753906 274.261719 224.875 274.867188 C 224.996094 275.472656 225.054688 276.082031 225.054688 276.699219 C 225.054688 277.316406 224.992188 277.925781 224.875 278.53125 C 224.753906 279.132812 224.574219 279.71875 224.335938 280.289062 C 224.101562 280.859375 223.8125 281.398438 223.46875 281.910156 C 223.125 282.425781 222.738281 282.898438 222.300781 283.332031 C 221.867188 283.769531 221.390625 284.160156 220.878906 284.5 C 220.367188 284.84375 219.828125 285.132812 219.257812 285.371094 C 218.6875 285.605469 218.101562 285.785156 217.496094 285.90625 C 216.894531 286.027344 216.28125 286.085938 215.667969 286.085938 Z M 131.167969 295.476562 C 130.550781 295.476562 129.941406 295.417969 129.335938 295.296875 C 128.730469 295.175781 128.144531 294.996094 127.574219 294.761719 C 127.003906 294.527344 126.464844 294.238281 125.949219 293.894531 C 125.4375 293.550781 124.964844 293.164062 124.527344 292.726562 C 124.089844 292.289062 123.703125 291.816406 123.359375 291.304688 C 123.015625 290.789062 122.726562 290.25 122.492188 289.679688 C 122.257812 289.109375 122.078125 288.523438 121.957031 287.917969 C 121.839844 287.3125 121.777344 286.703125 121.777344 286.085938 C 121.777344 285.472656 121.839844 284.859375 121.957031 284.253906 C 122.078125 283.652344 122.257812 283.0625 122.492188 282.496094 C 122.726562 281.925781 123.015625 281.382812 123.359375 280.871094 C 123.703125 280.359375 124.089844 279.882812 124.527344 279.449219 C 124.964844 279.011719 125.4375 278.625 125.949219 278.28125 C 126.464844 277.9375 127.003906 277.648438 127.574219 277.414062 C 128.144531 277.175781 128.730469 277 129.335938 276.878906 C 129.941406 276.757812 130.550781 276.699219 131.167969 276.699219 C 131.78125 276.699219 132.394531 276.757812 133 276.878906 C 133.601562 277 134.191406 277.175781 134.757812 277.414062 C 135.328125 277.648438 135.871094 277.9375 136.382812 278.28125 C 136.894531 278.625 137.371094 279.011719 137.804688 279.449219 C 138.242188 279.882812 138.628906 280.359375 138.972656 280.871094 C 139.316406 281.382812 139.605469 281.925781 139.839844 282.496094 C 140.078125 283.0625 140.253906 283.652344 140.375 284.253906 C 140.496094 284.859375 140.554688 285.472656 140.554688 286.085938 C 140.554688 286.703125 140.492188 287.3125 140.375 287.917969 C 140.253906 288.523438 140.074219 289.109375 139.835938 289.679688 C 139.601562 290.246094 139.3125 290.789062 138.96875 291.300781 C 138.625 291.8125 138.238281 292.285156 137.800781 292.722656 C 137.367188 293.160156 136.890625 293.546875 136.378906 293.890625 C 135.867188 294.234375 135.328125 294.523438 134.757812 294.757812 C 134.1875 294.996094 133.601562 295.171875 132.996094 295.292969 C 132.394531 295.414062 131.78125 295.476562 131.167969 295.476562 Z M 159.332031 190.34375 L 225.054688 175.734375 L 225.054688 194.054688 L 159.332031 208.660156 Z M 159.332031 190.34375 " fill-opacity="1" fill-rule="nonzero"/></g><g clip-path="url(#ef54bb5dd4)"><path fill="#ffffff" d="M 272 117.085938 C 270.394531 117.085938 268.78125 117.144531 267.175781 117.261719 C 266.460938 115.214844 265.664062 113.195312 264.789062 111.207031 C 263.917969 109.21875 262.96875 107.269531 261.941406 105.355469 C 260.917969 103.441406 259.824219 101.566406 258.65625 99.738281 C 257.484375 97.910156 256.25 96.125 254.941406 94.390625 C 253.636719 92.65625 252.265625 90.976562 250.828125 89.347656 C 249.394531 87.71875 247.898438 86.148438 246.339844 84.632812 C 244.785156 83.121094 243.171875 81.667969 241.5 80.28125 C 239.832031 78.890625 238.113281 77.570312 236.339844 76.3125 C 234.570312 75.058594 232.753906 73.871094 230.890625 72.753906 C 229.027344 71.640625 227.125 70.597656 225.183594 69.628906 C 223.242188 68.660156 221.261719 67.765625 219.25 66.949219 C 217.238281 66.132812 215.199219 65.394531 213.128906 64.734375 C 211.0625 64.078125 208.972656 63.5 206.855469 63 C 204.742188 62.503906 202.613281 62.085938 200.46875 61.753906 C 198.324219 61.421875 196.167969 61.167969 194.003906 61.003906 C 191.839844 60.835938 189.671875 60.75 187.5 60.75 C 185.328125 60.75 183.160156 60.835938 180.996094 61.003906 C 178.832031 61.167969 176.675781 61.421875 174.53125 61.753906 C 172.386719 62.085938 170.257812 62.503906 168.144531 63 C 166.027344 63.5 163.9375 64.078125 161.871094 64.734375 C 159.800781 65.394531 157.761719 66.132812 155.75 66.949219 C 153.738281 67.765625 151.757812 68.660156 149.816406 69.628906 C 147.875 70.597656 145.972656 71.640625 144.109375 72.753906 C 142.246094 73.871094 140.429688 75.058594 138.660156 76.3125 C 136.886719 77.570312 135.167969 78.890625 133.5 80.28125 C 131.828125 81.667969 130.214844 83.121094 128.660156 84.632812 C 127.101562 86.148438 125.605469 87.71875 124.171875 89.347656 C 122.734375 90.976562 121.363281 92.65625 120.058594 94.390625 C 118.75 96.125 117.515625 97.910156 116.34375 99.738281 C 115.175781 101.566406 114.082031 103.441406 113.054688 105.355469 C 112.03125 107.269531 111.082031 109.21875 110.210938 111.207031 C 109.335938 113.195312 108.539062 115.214844 107.824219 117.261719 C 106.21875 117.144531 104.605469 117.085938 103 117.085938 C 101.925781 117.085938 100.847656 117.113281 99.773438 117.167969 C 98.699219 117.21875 97.628906 117.296875 96.558594 117.402344 C 95.488281 117.507812 94.421875 117.640625 93.355469 117.796875 C 92.292969 117.957031 91.234375 118.140625 90.179688 118.351562 C 89.125 118.558594 88.074219 118.796875 87.03125 119.058594 C 85.988281 119.320312 84.949219 119.605469 83.921875 119.917969 C 82.890625 120.230469 81.871094 120.566406 80.859375 120.929688 C 79.847656 121.292969 78.84375 121.679688 77.847656 122.089844 C 76.855469 122.5 75.871094 122.9375 74.898438 123.398438 C 73.929688 123.855469 72.96875 124.339844 72.019531 124.847656 C 71.070312 125.355469 70.132812 125.886719 69.210938 126.4375 C 68.289062 126.992188 67.382812 127.566406 66.488281 128.164062 C 65.59375 128.761719 64.714844 129.378906 63.847656 130.019531 C 62.984375 130.660156 62.136719 131.324219 61.304688 132.003906 C 60.476562 132.6875 59.660156 133.390625 58.863281 134.113281 C 58.066406 134.835938 57.289062 135.578125 56.527344 136.335938 C 55.765625 137.097656 55.023438 137.875 54.304688 138.671875 C 53.582031 139.46875 52.878906 140.285156 52.195312 141.117188 C 51.515625 141.949219 50.851562 142.796875 50.210938 143.660156 C 49.570312 144.523438 48.953125 145.402344 48.355469 146.296875 C 47.757812 147.191406 47.179688 148.097656 46.628906 149.023438 C 46.074219 149.945312 45.546875 150.878906 45.039062 151.828125 C 44.53125 152.777344 44.046875 153.738281 43.585938 154.710938 C 43.128906 155.683594 42.691406 156.664062 42.28125 157.660156 C 41.867188 158.652344 41.480469 159.65625 41.121094 160.667969 C 40.757812 161.679688 40.421875 162.703125 40.109375 163.730469 C 39.796875 164.761719 39.507812 165.796875 39.246094 166.839844 C 38.984375 167.882812 38.75 168.933594 38.539062 169.988281 C 38.332031 171.042969 38.148438 172.101562 37.988281 173.167969 C 37.832031 174.230469 37.699219 175.296875 37.59375 176.367188 C 37.488281 177.4375 37.410156 178.511719 37.355469 179.585938 C 37.304688 180.660156 37.277344 181.734375 37.277344 182.808594 C 37.277344 183.886719 37.304688 184.960938 37.355469 186.035156 C 37.410156 187.109375 37.488281 188.179688 37.59375 189.25 C 37.699219 190.320312 37.832031 191.390625 37.988281 192.453125 C 38.148438 193.515625 38.332031 194.578125 38.539062 195.632812 C 38.75 196.6875 38.984375 197.734375 39.246094 198.777344 C 39.507812 199.820312 39.796875 200.859375 40.109375 201.886719 C 40.421875 202.917969 40.757812 203.9375 41.121094 204.949219 C 41.480469 205.964844 41.867188 206.964844 42.28125 207.960938 C 42.691406 208.953125 43.128906 209.9375 43.585938 210.910156 C 44.046875 211.882812 44.53125 212.84375 45.039062 213.789062 C 45.546875 214.738281 46.074219 215.675781 46.628906 216.597656 C 47.179688 217.519531 47.757812 218.429688 48.355469 219.324219 C 48.953125 220.21875 49.570312 221.097656 50.210938 221.960938 C 50.851562 222.824219 51.515625 223.671875 52.195312 224.503906 C 52.878906 225.335938 53.582031 226.148438 54.304688 226.945312 C 55.023438 227.742188 55.765625 228.523438 56.527344 229.28125 C 57.289062 230.042969 58.066406 230.785156 58.863281 231.507812 C 59.660156 232.230469 60.476562 232.929688 61.304688 233.613281 C 62.136719 234.296875 62.984375 234.957031 63.847656 235.597656 C 64.714844 236.238281 65.59375 236.859375 66.488281 237.457031 C 67.382812 238.054688 68.289062 238.628906 69.210938 239.179688 C 70.132812 239.734375 71.070312 240.265625 72.019531 240.769531 C 72.96875 241.277344 73.929688 241.761719 74.898438 242.222656 C 75.871094 242.683594 76.855469 243.117188 77.847656 243.527344 C 78.84375 243.941406 79.847656 244.328125 80.859375 244.691406 C 81.871094 245.050781 82.890625 245.390625 83.921875 245.703125 C 84.949219 246.015625 85.988281 246.300781 87.03125 246.5625 C 88.074219 246.824219 89.125 247.058594 90.179688 247.269531 C 91.234375 247.480469 92.292969 247.664062 93.355469 247.820312 C 94.421875 247.976562 95.488281 248.109375 96.558594 248.214844 C 97.628906 248.320312 98.699219 248.398438 99.773438 248.453125 C 100.847656 248.503906 101.925781 248.53125 103 248.53125 L 112.390625 248.53125 C 113.003906 248.53125 113.617188 248.472656 114.21875 248.351562 C 114.824219 248.230469 115.414062 248.054688 115.980469 247.816406 C 116.550781 247.582031 117.09375 247.292969 117.605469 246.949219 C 118.117188 246.605469 118.59375 246.21875 119.027344 245.78125 C 119.464844 245.347656 119.851562 244.871094 120.195312 244.359375 C 120.539062 243.847656 120.828125 243.304688 121.0625 242.734375 C 121.300781 242.167969 121.476562 241.578125 121.597656 240.976562 C 121.71875 240.371094 121.777344 239.757812 121.777344 239.144531 C 121.777344 238.527344 121.71875 237.914062 121.597656 237.3125 C 121.476562 236.707031 121.300781 236.121094 121.0625 235.550781 C 120.828125 234.980469 120.539062 234.4375 120.195312 233.925781 C 119.851562 233.414062 119.464844 232.941406 119.027344 232.503906 C 118.59375 232.066406 118.117188 231.679688 117.605469 231.335938 C 117.09375 230.992188 116.550781 230.703125 115.980469 230.46875 C 115.414062 230.234375 114.824219 230.054688 114.21875 229.933594 C 113.617188 229.8125 113.003906 229.753906 112.390625 229.753906 L 103 229.753906 C 101.359375 229.753906 99.726562 229.667969 98.097656 229.496094 C 96.46875 229.324219 94.851562 229.070312 93.25 228.730469 C 91.644531 228.386719 90.066406 227.964844 88.507812 227.457031 C 86.949219 226.953125 85.421875 226.367188 83.921875 225.699219 C 82.425781 225.035156 80.96875 224.292969 79.546875 223.472656 C 78.128906 222.652344 76.753906 221.761719 75.429688 220.800781 C 74.101562 219.839844 72.832031 218.808594 71.613281 217.714844 C 70.394531 216.617188 69.238281 215.460938 68.140625 214.242188 C 67.042969 213.027344 66.011719 211.753906 65.046875 210.429688 C 64.082031 209.105469 63.191406 207.734375 62.371094 206.316406 C 61.550781 204.898438 60.804688 203.441406 60.136719 201.941406 C 59.46875 200.445312 58.882812 198.917969 58.375 197.363281 C 57.867188 195.804688 57.441406 194.222656 57.097656 192.621094 C 56.753906 191.019531 56.496094 189.402344 56.324219 187.773438 C 56.152344 186.144531 56.0625 184.507812 56.0625 182.871094 C 56.058594 181.230469 56.140625 179.597656 56.3125 177.96875 C 56.480469 176.339844 56.734375 174.722656 57.074219 173.117188 C 57.410156 171.515625 57.832031 169.933594 58.335938 168.375 C 58.839844 166.816406 59.421875 165.285156 60.085938 163.789062 C 60.75 162.289062 61.492188 160.832031 62.308594 159.410156 C 63.125 157.988281 64.015625 156.613281 64.976562 155.289062 C 65.9375 153.960938 66.964844 152.6875 68.058594 151.464844 C 69.152344 150.246094 70.304688 149.085938 71.523438 147.988281 C 72.738281 146.890625 74.007812 145.855469 75.332031 144.890625 C 76.652344 143.925781 78.023438 143.03125 79.441406 142.207031 C 80.859375 141.386719 82.316406 140.640625 83.8125 139.96875 C 85.304688 139.296875 86.832031 138.707031 88.390625 138.199219 C 89.945312 137.6875 91.527344 137.261719 93.128906 136.917969 C 94.730469 136.570312 96.347656 136.3125 97.976562 136.136719 C 99.605469 135.960938 101.238281 135.871094 102.878906 135.867188 C 104.515625 135.859375 106.152344 135.941406 107.78125 136.109375 C 109.410156 136.277344 111.027344 136.527344 112.632812 136.863281 C 113.222656 136.984375 113.820312 137.050781 114.425781 137.058594 C 115.03125 137.066406 115.628906 137.015625 116.222656 136.90625 C 116.816406 136.800781 117.394531 136.636719 117.960938 136.414062 C 118.523438 136.195312 119.058594 135.925781 119.570312 135.601562 C 120.078125 135.277344 120.554688 134.910156 120.992188 134.492188 C 121.433594 134.078125 121.828125 133.625 122.179688 133.132812 C 122.53125 132.640625 122.832031 132.121094 123.082031 131.574219 C 123.332031 131.023438 123.53125 130.453125 123.671875 129.867188 C 124.097656 128.089844 124.597656 126.335938 125.167969 124.597656 C 125.742188 122.863281 126.386719 121.15625 127.101562 119.472656 C 127.816406 117.792969 128.601562 116.144531 129.453125 114.527344 C 130.308594 112.914062 131.226562 111.335938 132.210938 109.796875 C 133.195312 108.257812 134.242188 106.761719 135.351562 105.308594 C 136.464844 103.859375 137.632812 102.457031 138.859375 101.101562 C 140.085938 99.746094 141.367188 98.445312 142.703125 97.199219 C 144.039062 95.953125 145.421875 94.761719 146.855469 93.632812 C 148.292969 92.5 149.769531 91.429688 151.296875 90.421875 C 152.820312 89.414062 154.382812 88.472656 155.984375 87.59375 C 157.589844 86.71875 159.226562 85.910156 160.894531 85.167969 C 162.566406 84.429688 164.265625 83.757812 165.992188 83.160156 C 167.71875 82.5625 169.464844 82.035156 171.234375 81.582031 C 173.007812 81.128906 174.792969 80.75 176.59375 80.449219 C 178.394531 80.144531 180.207031 79.917969 182.027344 79.765625 C 183.847656 79.613281 185.671875 79.535156 187.5 79.535156 C 189.328125 79.535156 191.152344 79.613281 192.972656 79.765625 C 194.792969 79.917969 196.605469 80.144531 198.40625 80.449219 C 200.207031 80.75 201.992188 81.128906 203.765625 81.582031 C 205.535156 82.035156 207.28125 82.5625 209.007812 83.160156 C 210.734375 83.757812 212.433594 84.429688 214.105469 85.167969 C 215.773438 85.910156 217.410156 86.71875 219.015625 87.59375 C 220.617188 88.472656 222.179688 89.414062 223.703125 90.421875 C 225.230469 91.429688 226.707031 92.5 228.144531 93.632812 C 229.578125 94.761719 230.960938 95.953125 232.296875 97.199219 C 233.632812 98.445312 234.914062 99.746094 236.140625 101.101562 C 237.367188 102.457031 238.535156 103.859375 239.648438 105.308594 C 240.757812 106.761719 241.804688 108.257812 242.789062 109.796875 C 243.773438 111.335938 244.691406 112.914062 245.546875 114.527344 C 246.398438 116.144531 247.183594 117.792969 247.898438 119.472656 C 248.613281 121.15625 249.257812 122.863281 249.832031 124.597656 C 250.402344 126.335938 250.902344 128.089844 251.328125 129.867188 C 251.46875 130.453125 251.667969 131.023438 251.917969 131.570312 C 252.167969 132.121094 252.472656 132.640625 252.824219 133.132812 C 253.175781 133.621094 253.570312 134.074219 254.007812 134.492188 C 254.449219 134.90625 254.921875 135.273438 255.433594 135.597656 C 255.945312 135.921875 256.480469 136.191406 257.042969 136.410156 C 257.605469 136.632812 258.183594 136.796875 258.777344 136.902344 C 259.371094 137.011719 259.972656 137.0625 260.574219 137.054688 C 261.179688 137.046875 261.777344 136.980469 262.367188 136.859375 C 263.972656 136.523438 265.589844 136.273438 267.21875 136.105469 C 268.847656 135.941406 270.480469 135.859375 272.121094 135.867188 C 273.757812 135.871094 275.390625 135.960938 277.019531 136.136719 C 278.648438 136.3125 280.265625 136.574219 281.867188 136.917969 C 283.46875 137.265625 285.046875 137.691406 286.605469 138.203125 C 288.160156 138.714844 289.6875 139.304688 291.179688 139.972656 C 292.675781 140.644531 294.132812 141.390625 295.546875 142.214844 C 296.964844 143.035156 298.335938 143.929688 299.65625 144.894531 C 300.980469 145.863281 302.25 146.894531 303.464844 147.992188 C 304.679688 149.09375 305.835938 150.253906 306.929688 151.472656 C 308.023438 152.691406 309.046875 153.964844 310.007812 155.292969 C 310.96875 156.621094 311.859375 157.992188 312.675781 159.414062 C 313.492188 160.835938 314.230469 162.292969 314.894531 163.792969 C 315.558594 165.289062 316.140625 166.816406 316.644531 168.375 C 317.148438 169.933594 317.570312 171.515625 317.910156 173.121094 C 318.246094 174.722656 318.5 176.339844 318.667969 177.96875 C 318.835938 179.597656 318.921875 181.230469 318.917969 182.871094 C 318.917969 184.507812 318.828125 186.140625 318.65625 187.769531 C 318.484375 189.398438 318.226562 191.015625 317.882812 192.617188 C 317.539062 194.21875 317.117188 195.800781 316.609375 197.355469 C 316.101562 198.914062 315.511719 200.441406 314.84375 201.9375 C 314.179688 203.433594 313.433594 204.890625 312.613281 206.308594 C 311.792969 207.726562 310.902344 209.097656 309.9375 210.425781 C 308.976562 211.75 307.945312 213.019531 306.847656 214.238281 C 305.75 215.453125 304.59375 216.609375 303.375 217.707031 C 302.15625 218.800781 300.886719 219.832031 299.5625 220.792969 C 298.234375 221.757812 296.863281 222.648438 295.445312 223.464844 C 294.023438 224.285156 292.566406 225.027344 291.070312 225.695312 C 289.574219 226.359375 288.046875 226.949219 286.488281 227.453125 C 284.929688 227.960938 283.351562 228.382812 281.75 228.726562 C 280.144531 229.066406 278.53125 229.324219 276.902344 229.496094 C 275.273438 229.667969 273.636719 229.753906 272 229.753906 L 262.609375 229.753906 C 261.996094 229.753906 261.382812 229.8125 260.78125 229.933594 C 260.175781 230.054688 259.585938 230.234375 259.019531 230.46875 C 258.449219 230.703125 257.90625 230.992188 257.394531 231.335938 C 256.882812 231.679688 256.40625 232.066406 255.972656 232.503906 C 255.535156 232.941406 255.148438 233.414062 254.804688 233.925781 C 254.460938 234.4375 254.171875 234.980469 253.9375 235.550781 C 253.699219 236.121094 253.523438 236.707031 253.402344 237.3125 C 253.28125 237.914062 253.222656 238.527344 253.222656 239.144531 C 253.222656 239.757812 253.28125 240.371094 253.402344 240.976562 C 253.523438 241.578125 253.699219 242.167969 253.9375 242.734375 C 254.171875 243.304688 254.460938 243.847656 254.804688 244.359375 C 255.148438 244.871094 255.535156 245.347656 255.972656 245.78125 C 256.40625 246.21875 256.882812 246.605469 257.394531 246.949219 C 257.90625 247.292969 258.449219 247.582031 259.019531 247.816406 C 259.585938 248.054688 260.175781 248.230469 260.78125 248.351562 C 261.382812 248.472656 261.996094 248.53125 262.609375 248.53125 L 272 248.53125 C 273.074219 248.53125 274.152344 248.503906 275.226562 248.453125 C 276.300781 248.398438 277.371094 248.320312 278.441406 248.214844 C 279.511719 248.109375 280.578125 247.976562 281.644531 247.820312 C 282.707031 247.664062 283.765625 247.480469 284.820312 247.269531 C 285.875 247.058594 286.925781 246.824219 287.96875 246.5625 C 289.011719 246.300781 290.046875 246.015625 291.078125 245.703125 C 292.105469 245.390625 293.128906 245.050781 294.140625 244.691406 C 295.152344 244.328125 296.15625 243.941406 297.152344 243.527344 C 298.144531 243.117188 299.128906 242.683594 300.101562 242.222656 C 301.070312 241.761719 302.03125 241.277344 302.980469 240.769531 C 303.929688 240.265625 304.867188 239.734375 305.789062 239.179688 C 306.710938 238.628906 307.617188 238.054688 308.511719 237.457031 C 309.40625 236.859375 310.285156 236.238281 311.152344 235.597656 C 312.015625 234.957031 312.863281 234.296875 313.695312 233.613281 C 314.523438 232.929688 315.339844 232.230469 316.136719 231.507812 C 316.933594 230.785156 317.710938 230.042969 318.472656 229.28125 C 319.234375 228.523438 319.972656 227.742188 320.695312 226.945312 C 321.417969 226.148438 322.121094 225.335938 322.804688 224.503906 C 323.484375 223.671875 324.148438 222.824219 324.789062 221.960938 C 325.429688 221.097656 326.046875 220.21875 326.644531 219.324219 C 327.242188 218.429688 327.820312 217.519531 328.371094 216.597656 C 328.925781 215.675781 329.453125 214.738281 329.960938 213.789062 C 330.46875 212.84375 330.953125 211.882812 331.414062 210.910156 C 331.871094 209.9375 332.308594 208.953125 332.71875 207.960938 C 333.132812 206.964844 333.519531 205.964844 333.878906 204.949219 C 334.242188 203.9375 334.578125 202.917969 334.890625 201.886719 C 335.203125 200.859375 335.492188 199.820312 335.753906 198.777344 C 336.015625 197.734375 336.25 196.6875 336.460938 195.632812 C 336.667969 194.578125 336.851562 193.515625 337.011719 192.453125 C 337.167969 191.390625 337.300781 190.320312 337.40625 189.25 C 337.511719 188.179688 337.589844 187.109375 337.644531 186.035156 C 337.695312 184.960938 337.722656 183.886719 337.722656 182.808594 C 337.722656 181.734375 337.695312 180.660156 337.644531 179.585938 C 337.589844 178.511719 337.511719 177.4375 337.40625 176.367188 C 337.300781 175.296875 337.167969 174.230469 337.011719 173.167969 C 336.851562 172.101562 336.667969 171.042969 336.460938 169.988281 C 336.25 168.933594 336.015625 167.882812 335.753906 166.839844 C 335.492188 165.796875 335.203125 164.761719 334.890625 163.730469 C 334.578125 162.703125 334.242188 161.679688 333.878906 160.667969 C 333.519531 159.65625 333.132812 158.652344 332.71875 157.660156 C 332.308594 156.664062 331.871094 155.683594 331.414062 154.710938 C 330.953125 153.738281 330.46875 152.777344 329.960938 151.828125 C 329.453125 150.878906 328.925781 149.945312 328.371094 149.023438 C 327.820312 148.097656 327.242188 147.191406 326.644531 146.296875 C 326.046875 145.402344 325.429688 144.523438 324.789062 143.660156 C 324.148438 142.796875 323.484375 141.949219 322.804688 141.117188 C 322.121094 140.285156 321.417969 139.46875 320.695312 138.671875 C 319.972656 137.875 319.234375 137.097656 318.472656 136.335938 C 317.710938 135.578125 316.933594 134.835938 316.136719 134.113281 C 315.339844 133.390625 314.523438 132.6875 313.695312 132.003906 C 312.863281 131.324219 312.015625 130.660156 311.152344 130.019531 C 310.285156 129.378906 309.40625 128.761719 308.511719 128.164062 C 307.617188 127.566406 306.710938 126.992188 305.789062 126.4375 C 304.867188 125.886719 303.929688 125.355469 302.980469 124.847656 C 302.03125 124.339844 301.070312 123.855469 300.101562 123.398438 C 299.128906 122.9375 298.144531 122.5 297.152344 122.089844 C 296.15625 121.679688 295.152344 121.292969 294.140625 120.929688 C 293.128906 120.566406 292.105469 120.230469 291.078125 119.917969 C 290.046875 119.605469 289.011719 119.320312 287.96875 119.058594 C 286.925781 118.796875 285.875 118.558594 284.820312 118.351562 C 283.765625 118.140625 282.707031 117.957031 281.644531 117.796875 C 280.578125 117.640625 279.511719 117.507812 278.441406 117.402344 C 277.371094 117.296875 276.300781 117.21875 275.226562 117.167969 C 274.152344 117.113281 273.074219 117.085938 272 117.085938 Z M 272 117.085938 " fill-opacity="1" fill-rule="nonzero"/></g></svg>