<svg xmlns="http://www.w3.org/2000/svg" xmlns:xlink="http://www.w3.org/1999/xlink" width="500" zoomAndPan="magnify" viewBox="0 0 375 374.999991" height="500" preserveAspectRatio="xMidYMid meet" version="1.0"><defs><clipPath id="e2c9ae7a35"><path d="M 137 87.5625 L 238 87.5625 L 238 188 L 137 188 Z M 137 87.5625 " clip-rule="nonzero"/></clipPath><clipPath id="f864c8b493"><path d="M 237 87.5625 L 337.5 87.5625 L 337.5 188 L 237 188 Z M 237 87.5625 " clip-rule="nonzero"/></clipPath><clipPath id="0cb717fceb"><path d="M 37.5 87.5625 L 138 87.5625 L 138 188 L 37.5 188 Z M 37.5 87.5625 " clip-rule="nonzero"/></clipPath><clipPath id="17cced2252"><path d="M 137 187 L 238 187 L 238 287.8125 L 137 287.8125 Z M 137 187 " clip-rule="nonzero"/></clipPath></defs><g clip-path="url(#e2c9ae7a35)"><path fill="#ffffff" d="M 137.648438 137.550781 L 187.617188 87.527344 L 237.644531 137.492188 L 187.675781 187.519531 Z M 137.648438 137.550781 " fill-opacity="1" fill-rule="nonzero"/></g><g clip-path="url(#f864c8b493)"><path fill="#ffffff" d="M 337.40625 137.53125 L 287.699219 87.875 L 237.992188 137.53125 L 287.699219 187.1875 Z M 337.40625 137.53125 " fill-opacity="1" fill-rule="nonzero"/></g><g clip-path="url(#0cb717fceb)"><path fill="#ffffff" d="M 37.617188 137.507812 L 87.636719 87.535156 L 137.609375 137.554688 L 87.589844 187.527344 Z M 37.617188 137.507812 " fill-opacity="1" fill-rule="nonzero"/></g><g clip-path="url(#17cced2252)"><path fill="#ffffff" d="M 137.648438 237.433594 L 187.671875 187.464844 L 237.644531 237.484375 L 187.621094 287.457031 Z M 137.648438 237.433594 " fill-opacity="1" fill-rule="nonzero"/></g></svg>