<svg xmlns="http://www.w3.org/2000/svg" xmlns:xlink="http://www.w3.org/1999/xlink" width="500" zoomAndPan="magnify" viewBox="0 0 375 374.999991" height="500" preserveAspectRatio="xMidYMid meet" version="1.0"><defs><clipPath id="b73093b259"><path d="M 42.5625 37.5 L 332.8125 37.5 L 332.8125 337.5 L 42.5625 337.5 Z M 42.5625 37.5 " clip-rule="nonzero"/></clipPath></defs><path fill="#ffffff" d="M 117.53125 156.464844 L 107.535156 163.160156 L 107.535156 127.527344 L 97.539062 127.527344 L 97.539062 181.503906 L 87.542969 174.804688 L 87.542969 152.515625 L 77.546875 152.515625 L 77.546875 177.503906 C 77.550781 178.339844 77.753906 179.125 78.152344 179.859375 C 78.550781 180.59375 79.097656 181.191406 79.796875 181.652344 L 97.539062 193.496094 L 97.539062 207.492188 L 107.535156 207.492188 L 107.535156 175.207031 L 125.328125 163.308594 C 126.015625 162.84375 126.554688 162.246094 126.945312 161.511719 C 127.332031 160.777344 127.527344 159.992188 127.527344 159.164062 L 127.527344 142.519531 L 117.53125 142.519531 Z M 117.53125 156.464844 " fill-opacity="1" fill-rule="nonzero"/><g clip-path="url(#b73093b259)"><path fill="#ffffff" d="M 327.441406 242.476562 L 322.441406 242.476562 L 322.441406 212.488281 C 322.441406 212.160156 322.410156 211.835938 322.347656 211.515625 C 322.28125 211.191406 322.1875 210.878906 322.0625 210.578125 C 321.9375 210.273438 321.78125 209.984375 321.597656 209.710938 C 321.417969 209.441406 321.210938 209.1875 320.976562 208.957031 C 320.746094 208.722656 320.492188 208.515625 320.21875 208.332031 C 319.949219 208.152344 319.660156 207.996094 319.355469 207.871094 C 319.054688 207.746094 318.742188 207.652344 318.417969 207.585938 C 318.097656 207.523438 317.773438 207.492188 317.445312 207.492188 L 312.445312 207.492188 L 312.445312 97.539062 C 312.445312 95.574219 312.351562 93.613281 312.15625 91.660156 C 311.964844 89.707031 311.675781 87.765625 311.292969 85.839844 C 310.910156 83.910156 310.433594 82.007812 309.863281 80.128906 C 309.292969 78.25 308.632812 76.402344 307.878906 74.585938 C 307.128906 72.773438 306.289062 71 305.363281 69.265625 C 304.4375 67.535156 303.429688 65.851562 302.339844 64.21875 C 301.246094 62.585938 300.078125 61.011719 298.832031 59.492188 C 297.585938 57.972656 296.269531 56.519531 294.878906 55.128906 C 293.492188 53.742188 292.039062 52.425781 290.519531 51.179688 C 289 49.933594 287.425781 48.761719 285.792969 47.671875 C 284.160156 46.582031 282.476562 45.570312 280.742188 44.644531 C 279.011719 43.71875 277.238281 42.882812 275.421875 42.128906 C 273.609375 41.378906 271.761719 40.71875 269.882812 40.148438 C 268 39.578125 266.097656 39.101562 264.171875 38.71875 C 262.246094 38.332031 260.304688 38.046875 258.351562 37.851562 C 256.394531 37.660156 254.4375 37.566406 252.472656 37.566406 C 250.507812 37.566406 248.546875 37.660156 246.59375 37.851562 C 244.640625 38.046875 242.699219 38.332031 240.773438 38.71875 C 238.84375 39.101562 236.941406 39.578125 235.0625 40.148438 C 233.183594 40.71875 231.335938 41.378906 229.519531 42.128906 C 227.707031 42.882812 225.933594 43.71875 224.199219 44.644531 C 222.46875 45.570312 220.785156 46.582031 219.152344 47.671875 C 217.519531 48.761719 215.941406 49.933594 214.425781 51.179688 C 212.90625 52.425781 211.453125 53.742188 210.0625 55.128906 C 208.675781 56.519531 207.359375 57.972656 206.113281 59.492188 C 204.867188 61.011719 203.695312 62.585938 202.605469 64.21875 C 201.515625 65.851562 200.503906 67.535156 199.578125 69.265625 C 198.652344 71 197.816406 72.773438 197.0625 74.585938 C 196.3125 76.402344 195.652344 78.25 195.082031 80.128906 C 194.511719 82.007812 194.035156 83.910156 193.648438 85.839844 C 193.265625 87.765625 192.980469 89.707031 192.785156 91.660156 C 192.59375 93.613281 192.496094 95.574219 192.496094 97.539062 L 192.496094 277.460938 C 192.496094 278.769531 192.433594 280.078125 192.304688 281.378906 C 192.175781 282.683594 191.984375 283.976562 191.730469 285.261719 C 191.472656 286.546875 191.15625 287.816406 190.777344 289.066406 C 190.394531 290.320312 189.957031 291.550781 189.453125 292.761719 C 188.953125 293.972656 188.394531 295.152344 187.777344 296.308594 C 187.160156 297.464844 186.488281 298.585938 185.757812 299.675781 C 185.03125 300.761719 184.253906 301.8125 183.421875 302.824219 C 182.589844 303.839844 181.714844 304.808594 180.789062 305.734375 C 179.859375 306.660156 178.890625 307.539062 177.878906 308.367188 C 176.867188 309.199219 175.816406 309.976562 174.726562 310.707031 C 173.640625 311.433594 172.519531 312.105469 171.363281 312.722656 C 170.207031 313.339844 169.027344 313.898438 167.816406 314.402344 C 166.605469 314.902344 165.375 315.34375 164.121094 315.722656 C 162.867188 316.101562 161.601562 316.421875 160.316406 316.675781 C 159.03125 316.929688 157.738281 317.125 156.433594 317.25 C 155.132812 317.378906 153.824219 317.445312 152.515625 317.445312 C 151.207031 317.445312 149.898438 317.378906 148.597656 317.25 C 147.292969 317.125 146 316.929688 144.714844 316.675781 C 143.429688 316.421875 142.160156 316.101562 140.910156 315.722656 C 139.65625 315.34375 138.425781 314.902344 137.214844 314.402344 C 136.003906 313.898438 134.820312 313.339844 133.667969 312.722656 C 132.511719 312.105469 131.390625 311.433594 130.300781 310.707031 C 129.214844 309.976562 128.164062 309.199219 127.148438 308.367188 C 126.136719 307.539062 125.167969 306.660156 124.242188 305.734375 C 123.316406 304.808594 122.4375 303.839844 121.609375 302.824219 C 120.777344 301.8125 120 300.761719 119.269531 299.675781 C 118.542969 298.585938 117.871094 297.464844 117.253906 296.308594 C 116.636719 295.152344 116.078125 293.972656 115.574219 292.761719 C 115.074219 291.550781 114.632812 290.320312 114.253906 289.066406 C 113.875 287.816406 113.554688 286.546875 113.300781 285.261719 C 113.046875 283.976562 112.851562 282.683594 112.726562 281.378906 C 112.597656 280.078125 112.53125 278.769531 112.53125 277.460938 L 112.53125 257.46875 L 137.523438 257.46875 C 137.851562 257.46875 138.175781 257.4375 138.496094 257.375 C 138.820312 257.308594 139.132812 257.214844 139.433594 257.089844 C 139.738281 256.964844 140.023438 256.808594 140.296875 256.628906 C 140.570312 256.445312 140.824219 256.238281 141.054688 256.007812 C 141.289062 255.773438 141.496094 255.519531 141.675781 255.25 C 141.859375 254.976562 142.011719 254.6875 142.140625 254.382812 C 142.265625 254.082031 142.359375 253.769531 142.421875 253.445312 C 142.488281 253.125 142.519531 252.800781 142.519531 252.472656 L 142.519531 227.484375 L 157.511719 227.484375 C 157.839844 227.484375 158.167969 227.449219 158.488281 227.386719 C 158.808594 227.324219 159.121094 227.226562 159.425781 227.101562 C 159.730469 226.976562 160.015625 226.824219 160.289062 226.640625 C 160.5625 226.457031 160.816406 226.25 161.046875 226.019531 C 161.277344 225.785156 161.484375 225.535156 161.667969 225.261719 C 161.851562 224.988281 162.003906 224.699219 162.128906 224.398438 C 162.257812 224.09375 162.351562 223.78125 162.414062 223.460938 C 162.480469 223.136719 162.511719 222.8125 162.511719 222.484375 L 162.511719 112.53125 C 162.511719 112.203125 162.480469 111.878906 162.414062 111.558594 C 162.351562 111.234375 162.257812 110.921875 162.128906 110.621094 C 162.003906 110.316406 161.851562 110.027344 161.667969 109.753906 C 161.484375 109.484375 161.277344 109.230469 161.046875 109 C 160.816406 108.765625 160.5625 108.558594 160.289062 108.375 C 160.015625 108.195312 159.730469 108.039062 159.425781 107.914062 C 159.121094 107.789062 158.808594 107.695312 158.488281 107.628906 C 158.167969 107.566406 157.839844 107.535156 157.511719 107.535156 L 152.515625 107.535156 L 152.515625 42.5625 C 152.515625 42.234375 152.484375 41.910156 152.417969 41.585938 C 152.355469 41.265625 152.261719 40.953125 152.132812 40.648438 C 152.007812 40.347656 151.855469 40.058594 151.671875 39.785156 C 151.492188 39.511719 151.285156 39.261719 151.050781 39.027344 C 150.820312 38.796875 150.566406 38.589844 150.292969 38.40625 C 150.019531 38.226562 149.734375 38.070312 149.429688 37.945312 C 149.125 37.820312 148.8125 37.726562 148.492188 37.660156 C 148.171875 37.597656 147.84375 37.566406 147.515625 37.566406 L 57.554688 37.566406 C 57.226562 37.566406 56.902344 37.597656 56.582031 37.660156 C 56.257812 37.726562 55.945312 37.820312 55.644531 37.945312 C 55.339844 38.070312 55.050781 38.226562 54.78125 38.40625 C 54.507812 38.589844 54.253906 38.796875 54.023438 39.027344 C 53.789062 39.261719 53.582031 39.511719 53.402344 39.785156 C 53.21875 40.058594 53.0625 40.347656 52.9375 40.648438 C 52.8125 40.953125 52.71875 41.265625 52.652344 41.585938 C 52.589844 41.910156 52.558594 42.234375 52.558594 42.5625 L 52.558594 107.535156 L 47.558594 107.535156 C 47.230469 107.535156 46.90625 107.566406 46.585938 107.628906 C 46.261719 107.695312 45.949219 107.789062 45.648438 107.914062 C 45.34375 108.039062 45.054688 108.195312 44.785156 108.375 C 44.511719 108.558594 44.257812 108.765625 44.027344 109 C 43.792969 109.230469 43.585938 109.484375 43.40625 109.753906 C 43.222656 110.027344 43.070312 110.316406 42.941406 110.621094 C 42.816406 110.921875 42.722656 111.234375 42.660156 111.558594 C 42.59375 111.878906 42.5625 112.203125 42.5625 112.53125 L 42.5625 222.484375 C 42.5625 222.8125 42.59375 223.136719 42.660156 223.460938 C 42.722656 223.78125 42.816406 224.09375 42.941406 224.398438 C 43.070312 224.699219 43.222656 224.988281 43.40625 225.261719 C 43.585938 225.535156 43.792969 225.785156 44.027344 226.019531 C 44.257812 226.25 44.511719 226.457031 44.785156 226.640625 C 45.054688 226.824219 45.34375 226.976562 45.648438 227.101562 C 45.949219 227.226562 46.261719 227.324219 46.585938 227.386719 C 46.90625 227.449219 47.230469 227.484375 47.558594 227.484375 L 62.554688 227.484375 L 62.554688 252.472656 C 62.554688 252.800781 62.585938 253.125 62.648438 253.445312 C 62.714844 253.769531 62.808594 254.082031 62.933594 254.382812 C 63.058594 254.6875 63.214844 254.976562 63.394531 255.25 C 63.578125 255.519531 63.785156 255.773438 64.019531 256.007812 C 64.25 256.238281 64.503906 256.445312 64.773438 256.628906 C 65.046875 256.808594 65.335938 256.964844 65.640625 257.089844 C 65.941406 257.214844 66.253906 257.308594 66.578125 257.375 C 66.898438 257.4375 67.222656 257.46875 67.550781 257.46875 L 92.539062 257.46875 L 92.539062 277.460938 C 92.539062 279.425781 92.636719 281.386719 92.828125 283.339844 C 93.023438 285.292969 93.308594 287.234375 93.691406 289.160156 C 94.078125 291.089844 94.554688 292.992188 95.125 294.871094 C 95.695312 296.75 96.355469 298.597656 97.105469 300.414062 C 97.859375 302.226562 98.695312 304 99.621094 305.734375 C 100.546875 307.464844 101.558594 309.148438 102.648438 310.78125 C 103.738281 312.414062 104.910156 313.988281 106.15625 315.507812 C 107.402344 317.027344 108.71875 318.480469 110.105469 319.871094 C 111.496094 321.257812 112.949219 322.574219 114.46875 323.820312 C 115.984375 325.066406 117.5625 326.238281 119.195312 327.328125 C 120.828125 328.417969 122.511719 329.425781 124.242188 330.355469 C 125.976562 331.28125 127.75 332.117188 129.5625 332.871094 C 131.378906 333.621094 133.226562 334.28125 135.105469 334.851562 C 136.984375 335.421875 138.886719 335.898438 140.816406 336.28125 C 142.742188 336.667969 144.683594 336.953125 146.636719 337.148438 C 148.589844 337.339844 150.550781 337.433594 152.515625 337.433594 C 154.480469 337.433594 156.4375 337.339844 158.394531 337.148438 C 160.347656 336.953125 162.289062 336.667969 164.214844 336.28125 C 166.140625 335.898438 168.046875 335.421875 169.925781 334.851562 C 171.804688 334.28125 173.652344 333.621094 175.464844 332.871094 C 177.28125 332.117188 179.054688 331.28125 180.785156 330.355469 C 182.519531 329.425781 184.203125 328.417969 185.835938 327.328125 C 187.46875 326.238281 189.042969 325.066406 190.5625 323.820312 C 192.082031 322.574219 193.535156 321.257812 194.921875 319.871094 C 196.3125 318.480469 197.628906 317.027344 198.875 315.507812 C 200.121094 313.988281 201.289062 312.414062 202.382812 310.78125 C 203.472656 309.148438 204.480469 307.464844 205.40625 305.734375 C 206.332031 304 207.171875 302.226562 207.925781 300.414062 C 208.675781 298.597656 209.335938 296.75 209.90625 294.871094 C 210.476562 292.992188 210.953125 291.089844 211.335938 289.160156 C 211.71875 287.234375 212.007812 285.292969 212.199219 283.339844 C 212.394531 281.386719 212.488281 279.425781 212.488281 277.460938 L 212.488281 97.539062 C 212.488281 96.230469 212.554688 94.921875 212.683594 93.621094 C 212.808594 92.316406 213.003906 91.023438 213.257812 89.738281 C 213.511719 88.453125 213.832031 87.183594 214.210938 85.933594 C 214.589844 84.679688 215.03125 83.449219 215.53125 82.238281 C 216.035156 81.027344 216.59375 79.847656 217.210938 78.691406 C 217.828125 77.535156 218.5 76.414062 219.226562 75.324219 C 219.953125 74.238281 220.734375 73.1875 221.566406 72.175781 C 222.394531 71.160156 223.273438 70.191406 224.199219 69.265625 C 225.125 68.339844 226.09375 67.460938 227.105469 66.632812 C 228.121094 65.800781 229.167969 65.023438 230.257812 64.292969 C 231.347656 63.566406 232.46875 62.894531 233.625 62.277344 C 234.777344 61.660156 235.960938 61.101562 237.171875 60.597656 C 238.382812 60.097656 239.613281 59.65625 240.867188 59.277344 C 242.117188 58.898438 243.386719 58.578125 244.671875 58.324219 C 245.957031 58.070312 247.25 57.875 248.554688 57.75 C 249.855469 57.621094 251.164062 57.554688 252.472656 57.554688 C 253.78125 57.554688 255.085938 57.621094 256.390625 57.75 C 257.695312 57.875 258.988281 58.070312 260.273438 58.324219 C 261.554688 58.578125 262.824219 58.898438 264.078125 59.277344 C 265.332031 59.65625 266.5625 60.097656 267.773438 60.597656 C 268.984375 61.101562 270.164062 61.660156 271.320312 62.277344 C 272.472656 62.894531 273.597656 63.566406 274.683594 64.292969 C 275.773438 65.023438 276.824219 65.800781 277.835938 66.632812 C 278.847656 67.460938 279.816406 68.339844 280.742188 69.265625 C 281.671875 70.191406 282.546875 71.160156 283.378906 72.175781 C 284.210938 73.1875 284.988281 74.238281 285.714844 75.324219 C 286.445312 76.414062 287.117188 77.535156 287.734375 78.691406 C 288.351562 79.847656 288.910156 81.027344 289.410156 82.238281 C 289.914062 83.449219 290.351562 84.679688 290.734375 85.933594 C 291.113281 87.183594 291.429688 88.453125 291.6875 89.738281 C 291.941406 91.023438 292.132812 92.316406 292.261719 93.621094 C 292.390625 94.921875 292.453125 96.230469 292.453125 97.539062 L 292.453125 207.492188 L 287.457031 207.492188 C 287.128906 207.492188 286.804688 207.523438 286.480469 207.585938 C 286.160156 207.652344 285.847656 207.746094 285.542969 207.871094 C 285.242188 207.996094 284.953125 208.152344 284.679688 208.332031 C 284.40625 208.515625 284.15625 208.722656 283.921875 208.957031 C 283.691406 209.1875 283.484375 209.441406 283.300781 209.710938 C 283.117188 209.984375 282.964844 210.273438 282.839844 210.578125 C 282.714844 210.878906 282.617188 211.191406 282.554688 211.515625 C 282.492188 211.835938 282.460938 212.160156 282.460938 212.488281 L 282.460938 242.476562 L 277.460938 242.476562 C 277.132812 242.476562 276.808594 242.507812 276.484375 242.574219 C 276.164062 242.636719 275.851562 242.730469 275.546875 242.855469 C 275.246094 242.980469 274.957031 243.136719 274.683594 243.320312 C 274.410156 243.5 274.160156 243.707031 273.925781 243.941406 C 273.695312 244.171875 273.488281 244.425781 273.304688 244.699219 C 273.125 244.96875 272.96875 245.257812 272.84375 245.5625 C 272.71875 245.863281 272.625 246.175781 272.558594 246.5 C 272.496094 246.820312 272.464844 247.144531 272.464844 247.472656 L 272.464844 307.449219 C 272.464844 307.777344 272.496094 308.101562 272.558594 308.421875 C 272.625 308.746094 272.71875 309.058594 272.84375 309.359375 C 272.96875 309.664062 273.125 309.953125 273.304688 310.226562 C 273.488281 310.496094 273.695312 310.75 273.925781 310.980469 C 274.160156 311.214844 274.410156 311.421875 274.683594 311.605469 C 274.957031 311.785156 275.246094 311.941406 275.546875 312.066406 C 275.851562 312.191406 276.164062 312.285156 276.484375 312.351562 C 276.808594 312.414062 277.132812 312.445312 277.460938 312.445312 L 282.460938 312.445312 L 282.460938 332.4375 C 282.460938 332.765625 282.492188 333.089844 282.554688 333.414062 C 282.617188 333.734375 282.714844 334.046875 282.839844 334.351562 C 282.964844 334.652344 283.117188 334.941406 283.300781 335.214844 C 283.484375 335.488281 283.691406 335.738281 283.921875 335.972656 C 284.15625 336.203125 284.40625 336.410156 284.679688 336.59375 C 284.953125 336.773438 285.242188 336.929688 285.542969 337.054688 C 285.847656 337.179688 286.160156 337.273438 286.480469 337.339844 C 286.804688 337.402344 287.128906 337.433594 287.457031 337.433594 L 317.445312 337.433594 C 317.773438 337.433594 318.097656 337.402344 318.417969 337.339844 C 318.742188 337.273438 319.054688 337.179688 319.355469 337.054688 C 319.660156 336.929688 319.949219 336.773438 320.21875 336.59375 C 320.492188 336.410156 320.746094 336.203125 320.976562 335.972656 C 321.210938 335.738281 321.417969 335.488281 321.597656 335.214844 C 321.78125 334.941406 321.9375 334.652344 322.0625 334.351562 C 322.1875 334.046875 322.28125 333.734375 322.347656 333.414062 C 322.410156 333.089844 322.441406 332.765625 322.441406 332.4375 L 322.441406 312.445312 L 327.441406 312.445312 C 327.769531 312.445312 328.09375 312.414062 328.414062 312.351562 C 328.738281 312.285156 329.050781 312.191406 329.351562 312.066406 C 329.65625 311.941406 329.945312 311.785156 330.214844 311.605469 C 330.488281 311.421875 330.742188 311.214844 330.972656 310.980469 C 331.207031 310.75 331.414062 310.496094 331.59375 310.226562 C 331.777344 309.953125 331.929688 309.664062 332.058594 309.359375 C 332.183594 309.058594 332.277344 308.746094 332.339844 308.421875 C 332.40625 308.101562 332.4375 307.777344 332.4375 307.449219 L 332.4375 247.472656 C 332.4375 247.144531 332.40625 246.820312 332.339844 246.5 C 332.277344 246.175781 332.183594 245.863281 332.058594 245.5625 C 331.929688 245.257812 331.777344 244.96875 331.59375 244.699219 C 331.414062 244.425781 331.207031 244.171875 330.972656 243.941406 C 330.742188 243.707031 330.488281 243.5 330.214844 243.320312 C 329.945312 243.136719 329.65625 242.980469 329.351562 242.855469 C 329.050781 242.730469 328.738281 242.636719 328.414062 242.574219 C 328.09375 242.507812 327.769531 242.476562 327.441406 242.476562 Z M 112.53125 67.550781 L 132.523438 67.550781 L 132.523438 87.542969 L 112.53125 87.542969 Z M 72.550781 67.550781 L 92.539062 67.550781 L 92.539062 87.542969 L 72.550781 87.542969 Z M 52.558594 217.488281 L 52.558594 117.53125 L 152.515625 117.53125 L 152.515625 217.488281 Z M 322.441406 302.449219 L 282.460938 302.449219 L 282.460938 252.472656 L 322.441406 252.472656 Z M 322.441406 302.449219 " fill-opacity="1" fill-rule="nonzero"/></g></svg>