<svg xmlns="http://www.w3.org/2000/svg" xmlns:xlink="http://www.w3.org/1999/xlink" width="500" zoomAndPan="magnify" viewBox="0 0 375 374.999991" height="500" preserveAspectRatio="xMidYMid meet" version="1.0"><defs><clipPath id="49707b8088"><path d="M 86 30 L 289 30 L 289 345.929688 L 86 345.929688 Z M 86 30 " clip-rule="nonzero"/></clipPath></defs><g clip-path="url(#49707b8088)"><path fill="#ffffff" d="M 282.542969 31.75 C 278.730469 29.851562 274.160156 30.242188 270.765625 32.796875 L 153.382812 120.558594 L 97.492188 120.558594 C 91.273438 120.558594 86.242188 125.597656 86.242188 131.808594 L 86.242188 244.3125 C 86.242188 250.527344 91.273438 255.566406 97.492188 255.566406 L 153.382812 255.566406 L 270.765625 343.328125 C 272.742188 344.808594 275.113281 345.566406 277.5 345.566406 C 279.210938 345.566406 280.949219 345.171875 282.542969 344.375 C 286.34375 342.46875 288.75 338.574219 288.75 334.316406 L 288.75 41.808594 C 288.75 37.550781 286.34375 33.65625 282.542969 31.75 Z M 282.542969 31.75 " fill-opacity="1" fill-rule="nonzero"/></g></svg>