<svg xmlns="http://www.w3.org/2000/svg" xmlns:xlink="http://www.w3.org/1999/xlink" width="500" zoomAndPan="magnify" viewBox="0 0 375 374.999991" height="500" preserveAspectRatio="xMidYMid meet" version="1.0"><defs><clipPath id="04e49b9a0e"><path d="M 37.5 57 L 337.5 57 L 337.5 318 L 37.5 318 Z M 37.5 57 " clip-rule="nonzero"/></clipPath></defs><g clip-path="url(#04e49b9a0e)"><path fill="#ffffff" d="M 300 57.804688 L 75 57.804688 C 73.773438 57.804688 72.546875 57.867188 71.324219 57.988281 C 70.105469 58.109375 68.890625 58.289062 67.6875 58.53125 C 66.484375 58.769531 65.292969 59.070312 64.117188 59.425781 C 62.945312 59.785156 61.789062 60.199219 60.65625 60.667969 C 59.523438 61.140625 58.414062 61.664062 57.332031 62.242188 C 56.25 62.824219 55.195312 63.453125 54.175781 64.136719 C 53.15625 64.820312 52.171875 65.550781 51.222656 66.328125 C 50.273438 67.105469 49.363281 67.929688 48.496094 68.800781 C 47.628906 69.667969 46.804688 70.574219 46.023438 71.523438 C 45.246094 72.472656 44.515625 73.457031 43.832031 74.480469 C 43.148438 75.5 42.519531 76.550781 41.941406 77.632812 C 41.359375 78.71875 40.835938 79.824219 40.367188 80.960938 C 39.894531 82.09375 39.480469 83.246094 39.125 84.421875 C 38.765625 85.597656 38.46875 86.785156 38.226562 87.992188 C 37.988281 89.195312 37.804688 90.40625 37.683594 91.628906 C 37.5625 92.851562 37.5 94.074219 37.5 95.304688 L 37.5 280.230469 C 37.5 281.460938 37.5625 282.683594 37.683594 283.90625 C 37.804688 285.128906 37.988281 286.339844 38.226562 287.546875 C 38.46875 288.75 38.765625 289.9375 39.125 291.113281 C 39.480469 292.289062 39.894531 293.441406 40.367188 294.578125 C 40.835938 295.710938 41.359375 296.820312 41.941406 297.902344 C 42.519531 298.984375 43.148438 300.035156 43.832031 301.054688 C 44.515625 302.078125 45.246094 303.0625 46.023438 304.011719 C 46.804688 304.960938 47.628906 305.867188 48.496094 306.738281 C 49.363281 307.605469 50.273438 308.429688 51.222656 309.207031 C 52.171875 309.988281 53.15625 310.71875 54.175781 311.398438 C 55.195312 312.082031 56.25 312.710938 57.332031 313.292969 C 58.414062 313.871094 59.523438 314.394531 60.65625 314.867188 C 61.789062 315.335938 62.945312 315.75 64.117188 316.109375 C 65.292969 316.464844 66.484375 316.765625 67.6875 317.003906 C 68.890625 317.246094 70.105469 317.425781 71.324219 317.546875 C 72.546875 317.667969 73.773438 317.730469 75 317.730469 L 300 317.730469 C 301.226562 317.730469 302.453125 317.667969 303.675781 317.546875 C 304.894531 317.425781 306.109375 317.246094 307.3125 317.003906 C 308.515625 316.765625 309.707031 316.464844 310.882812 316.109375 C 312.054688 315.75 313.210938 315.335938 314.34375 314.867188 C 315.476562 314.394531 316.585938 313.871094 317.667969 313.292969 C 318.75 312.710938 319.804688 312.082031 320.824219 311.398438 C 321.84375 310.71875 322.828125 309.988281 323.777344 309.207031 C 324.726562 308.429688 325.636719 307.605469 326.503906 306.738281 C 327.371094 305.867188 328.195312 304.960938 328.976562 304.011719 C 329.753906 303.0625 330.484375 302.078125 331.167969 301.054688 C 331.851562 300.035156 332.480469 298.984375 333.058594 297.902344 C 333.640625 296.820312 334.164062 295.710938 334.632812 294.578125 C 335.105469 293.441406 335.519531 292.289062 335.875 291.113281 C 336.234375 289.9375 336.53125 288.75 336.773438 287.546875 C 337.011719 286.339844 337.195312 285.128906 337.316406 283.90625 C 337.4375 282.683594 337.5 281.460938 337.5 280.230469 L 337.5 95.304688 C 337.5 94.074219 337.4375 92.851562 337.316406 91.628906 C 337.195312 90.40625 337.011719 89.195312 336.773438 87.992188 C 336.53125 86.785156 336.234375 85.597656 335.875 84.421875 C 335.519531 83.246094 335.105469 82.09375 334.632812 80.960938 C 334.164062 79.824219 333.640625 78.71875 333.058594 77.632812 C 332.480469 76.550781 331.851562 75.5 331.167969 74.480469 C 330.484375 73.457031 329.753906 72.472656 328.976562 71.523438 C 328.195312 70.574219 327.371094 69.667969 326.503906 68.800781 C 325.636719 67.929688 324.726562 67.105469 323.777344 66.328125 C 322.828125 65.550781 321.84375 64.820312 320.824219 64.136719 C 319.804688 63.453125 318.75 62.824219 317.667969 62.242188 C 316.585938 61.664062 315.476562 61.140625 314.34375 60.667969 C 313.210938 60.199219 312.054688 59.785156 310.882812 59.425781 C 309.707031 59.070312 308.515625 58.769531 307.3125 58.53125 C 306.109375 58.289062 304.894531 58.109375 303.675781 57.988281 C 302.453125 57.867188 301.226562 57.804688 300 57.804688 Z M 241.070312 111 C 241.078125 110.652344 241.117188 110.308594 241.1875 109.964844 C 241.261719 109.625 241.363281 109.292969 241.5 108.972656 C 241.640625 108.652344 241.804688 108.351562 242 108.0625 C 242.199219 107.773438 242.421875 107.507812 242.667969 107.261719 C 242.917969 107.019531 243.1875 106.800781 243.476562 106.609375 C 243.769531 106.417969 244.074219 106.253906 244.398438 106.121094 C 244.71875 105.988281 245.050781 105.890625 245.394531 105.824219 C 245.734375 105.753906 246.082031 105.722656 246.429688 105.722656 C 246.777344 105.722656 247.121094 105.753906 247.464844 105.824219 C 247.804688 105.890625 248.136719 105.988281 248.460938 106.121094 C 248.78125 106.253906 249.089844 106.417969 249.378906 106.609375 C 249.671875 106.800781 249.941406 107.019531 250.1875 107.261719 C 250.4375 107.507812 250.660156 107.773438 250.855469 108.0625 C 251.050781 108.351562 251.21875 108.652344 251.355469 108.972656 C 251.492188 109.292969 251.597656 109.625 251.667969 109.964844 C 251.742188 110.308594 251.78125 110.652344 251.785156 111 L 251.785156 143.570312 C 251.78125 143.917969 251.742188 144.265625 251.667969 144.605469 C 251.597656 144.945312 251.492188 145.277344 251.355469 145.597656 C 251.21875 145.917969 251.050781 146.222656 250.855469 146.507812 C 250.660156 146.796875 250.4375 147.0625 250.1875 147.308594 C 249.941406 147.554688 249.671875 147.769531 249.378906 147.964844 C 249.089844 148.15625 248.78125 148.316406 248.460938 148.449219 C 248.136719 148.582031 247.804688 148.679688 247.464844 148.75 C 247.121094 148.816406 246.777344 148.847656 246.429688 148.847656 C 246.078125 148.847656 245.734375 148.816406 245.394531 148.75 C 245.050781 148.679688 244.71875 148.582031 244.398438 148.449219 C 244.074219 148.316406 243.765625 148.15625 243.476562 147.960938 C 243.1875 147.769531 242.917969 147.550781 242.667969 147.308594 C 242.421875 147.0625 242.199219 146.796875 242 146.507812 C 241.804688 146.222656 241.640625 145.917969 241.5 145.597656 C 241.363281 145.277344 241.261719 144.945312 241.1875 144.605469 C 241.117188 144.265625 241.078125 143.917969 241.070312 143.570312 Z M 214.285156 102.054688 C 214.289062 101.703125 214.328125 101.359375 214.402344 101.019531 C 214.472656 100.675781 214.578125 100.347656 214.714844 100.027344 C 214.851562 99.703125 215.015625 99.398438 215.214844 99.113281 C 215.410156 98.824219 215.632812 98.554688 215.878906 98.3125 C 216.128906 98.066406 216.398438 97.847656 216.6875 97.65625 C 216.980469 97.464844 217.285156 97.300781 217.609375 97.167969 C 217.933594 97.035156 218.265625 96.9375 218.605469 96.867188 C 218.949219 96.800781 219.292969 96.769531 219.644531 96.769531 C 219.992188 96.769531 220.335938 96.800781 220.679688 96.867188 C 221.019531 96.9375 221.355469 97.035156 221.675781 97.167969 C 222 97.300781 222.304688 97.464844 222.597656 97.65625 C 222.886719 97.847656 223.15625 98.066406 223.40625 98.3125 C 223.652344 98.554688 223.875 98.824219 224.074219 99.113281 C 224.269531 99.398438 224.433594 99.703125 224.570312 100.027344 C 224.707031 100.347656 224.8125 100.675781 224.886719 101.019531 C 224.957031 101.359375 224.996094 101.703125 225 102.054688 L 225 152.464844 C 224.996094 152.8125 224.957031 153.15625 224.882812 153.5 C 224.8125 153.839844 224.707031 154.167969 224.570312 154.488281 C 224.433594 154.808594 224.265625 155.113281 224.070312 155.402344 C 223.875 155.691406 223.652344 155.957031 223.402344 156.199219 C 223.15625 156.445312 222.886719 156.664062 222.59375 156.855469 C 222.304688 157.046875 221.996094 157.210938 221.675781 157.34375 C 221.351562 157.472656 221.019531 157.574219 220.679688 157.640625 C 220.335938 157.707031 219.992188 157.742188 219.644531 157.742188 C 219.292969 157.742188 218.949219 157.707031 218.605469 157.640625 C 218.265625 157.574219 217.933594 157.472656 217.609375 157.34375 C 217.289062 157.210938 216.980469 157.046875 216.691406 156.855469 C 216.398438 156.664062 216.128906 156.445312 215.882812 156.199219 C 215.632812 155.957031 215.410156 155.691406 215.214844 155.402344 C 215.019531 155.113281 214.851562 154.808594 214.714844 154.488281 C 214.578125 154.167969 214.472656 153.839844 214.402344 153.496094 C 214.328125 153.15625 214.289062 152.8125 214.285156 152.464844 Z M 150 102.269531 C 150.003906 101.917969 150.042969 101.574219 150.117188 101.234375 C 150.1875 100.894531 150.292969 100.5625 150.429688 100.242188 C 150.566406 99.921875 150.734375 99.617188 150.929688 99.328125 C 151.125 99.042969 151.347656 98.777344 151.597656 98.53125 C 151.84375 98.285156 152.113281 98.066406 152.40625 97.875 C 152.695312 97.683594 153.003906 97.523438 153.324219 97.390625 C 153.648438 97.257812 153.980469 97.15625 154.320312 97.089844 C 154.664062 97.023438 155.007812 96.988281 155.355469 96.988281 C 155.707031 96.988281 156.050781 97.023438 156.394531 97.089844 C 156.734375 97.15625 157.066406 97.257812 157.390625 97.390625 C 157.710938 97.523438 158.019531 97.683594 158.308594 97.875 C 158.601562 98.066406 158.871094 98.285156 159.117188 98.53125 C 159.367188 98.777344 159.585938 99.042969 159.785156 99.328125 C 159.980469 99.617188 160.148438 99.921875 160.285156 100.242188 C 160.421875 100.5625 160.527344 100.894531 160.597656 101.234375 C 160.671875 101.574219 160.710938 101.917969 160.714844 102.269531 L 160.714844 152.679688 C 160.710938 153.027344 160.671875 153.371094 160.597656 153.710938 C 160.527344 154.054688 160.421875 154.382812 160.285156 154.703125 C 160.148438 155.023438 159.980469 155.328125 159.785156 155.617188 C 159.585938 155.90625 159.367188 156.171875 159.117188 156.414062 C 158.871094 156.660156 158.601562 156.878906 158.308594 157.070312 C 158.019531 157.261719 157.710938 157.425781 157.390625 157.554688 C 157.066406 157.6875 156.734375 157.789062 156.394531 157.855469 C 156.050781 157.921875 155.707031 157.957031 155.355469 157.957031 C 155.007812 157.957031 154.664062 157.921875 154.320312 157.855469 C 153.980469 157.789062 153.648438 157.6875 153.324219 157.554688 C 153.003906 157.425781 152.695312 157.261719 152.40625 157.070312 C 152.113281 156.878906 151.84375 156.660156 151.597656 156.414062 C 151.347656 156.171875 151.125 155.90625 150.929688 155.617188 C 150.734375 155.328125 150.566406 155.023438 150.429688 154.703125 C 150.292969 154.382812 150.1875 154.054688 150.117188 153.710938 C 150.042969 153.371094 150.003906 153.027344 150 152.679688 Z M 123.214844 111.160156 C 123.21875 110.8125 123.257812 110.46875 123.332031 110.125 C 123.402344 109.785156 123.507812 109.457031 123.644531 109.136719 C 123.78125 108.816406 123.949219 108.511719 124.144531 108.222656 C 124.339844 107.933594 124.5625 107.667969 124.8125 107.421875 C 125.058594 107.179688 125.328125 106.960938 125.621094 106.769531 C 125.910156 106.578125 126.21875 106.414062 126.539062 106.28125 C 126.863281 106.152344 127.195312 106.050781 127.535156 105.984375 C 127.878906 105.914062 128.222656 105.882812 128.570312 105.882812 C 128.917969 105.882812 129.265625 105.914062 129.605469 105.984375 C 129.949219 106.050781 130.28125 106.152344 130.601562 106.28125 C 130.925781 106.414062 131.234375 106.578125 131.523438 106.769531 C 131.8125 106.960938 132.082031 107.179688 132.332031 107.421875 C 132.578125 107.667969 132.800781 107.933594 133 108.222656 C 133.195312 108.511719 133.359375 108.816406 133.5 109.136719 C 133.636719 109.457031 133.738281 109.785156 133.8125 110.125 C 133.882812 110.46875 133.921875 110.8125 133.929688 111.160156 L 133.929688 143.679688 C 133.929688 144.03125 133.894531 144.378906 133.824219 144.722656 C 133.757812 145.070312 133.65625 145.402344 133.519531 145.730469 C 133.386719 146.054688 133.222656 146.363281 133.027344 146.65625 C 132.832031 146.949219 132.609375 147.21875 132.359375 147.464844 C 132.109375 147.714844 131.839844 147.9375 131.546875 148.132812 C 131.253906 148.328125 130.945312 148.492188 130.621094 148.628906 C 130.296875 148.761719 129.960938 148.863281 129.617188 148.933594 C 129.273438 149 128.921875 149.035156 128.570312 149.035156 C 128.21875 149.035156 127.871094 149 127.527344 148.933594 C 127.179688 148.863281 126.847656 148.761719 126.519531 148.628906 C 126.195312 148.492188 125.886719 148.328125 125.59375 148.132812 C 125.300781 147.9375 125.03125 147.714844 124.785156 147.464844 C 124.535156 147.21875 124.3125 146.949219 124.117188 146.65625 C 123.921875 146.363281 123.757812 146.054688 123.621094 145.730469 C 123.488281 145.402344 123.386719 145.070312 123.316406 144.722656 C 123.25 144.378906 123.214844 144.03125 123.214844 143.679688 Z M 80.410156 143.839844 C 80.40625 144.1875 80.367188 144.535156 80.296875 144.875 C 80.222656 145.214844 80.121094 145.546875 79.984375 145.867188 C 79.847656 146.191406 79.679688 146.496094 79.484375 146.78125 C 79.289062 147.070312 79.066406 147.339844 78.816406 147.582031 C 78.570312 147.828125 78.300781 148.046875 78.007812 148.242188 C 77.71875 148.433594 77.410156 148.59375 77.089844 148.726562 C 76.765625 148.859375 76.433594 148.960938 76.089844 149.027344 C 75.746094 149.09375 75.402344 149.128906 75.054688 149.128906 C 74.703125 149.128906 74.359375 149.09375 74.015625 149.027344 C 73.675781 148.960938 73.339844 148.859375 73.019531 148.726562 C 72.695312 148.59375 72.390625 148.433594 72.097656 148.238281 C 71.808594 148.046875 71.539062 147.828125 71.289062 147.582031 C 71.039062 147.339844 70.820312 147.070312 70.621094 146.78125 C 70.425781 146.496094 70.261719 146.191406 70.125 145.867188 C 69.988281 145.546875 69.882812 145.214844 69.8125 144.875 C 69.738281 144.53125 69.699219 144.1875 69.695312 143.839844 L 69.695312 111 C 69.703125 110.652344 69.742188 110.308594 69.8125 109.964844 C 69.886719 109.625 69.988281 109.292969 70.125 108.972656 C 70.265625 108.652344 70.429688 108.351562 70.625 108.0625 C 70.824219 107.773438 71.046875 107.507812 71.292969 107.261719 C 71.542969 107.019531 71.8125 106.800781 72.101562 106.609375 C 72.394531 106.417969 72.699219 106.253906 73.023438 106.121094 C 73.34375 105.988281 73.675781 105.890625 74.019531 105.824219 C 74.359375 105.753906 74.707031 105.722656 75.054688 105.722656 C 75.402344 105.722656 75.746094 105.753906 76.089844 105.824219 C 76.429688 105.890625 76.761719 105.988281 77.085938 106.121094 C 77.40625 106.253906 77.714844 106.417969 78.003906 106.609375 C 78.296875 106.800781 78.566406 107.019531 78.8125 107.261719 C 79.0625 107.507812 79.285156 107.773438 79.480469 108.0625 C 79.675781 108.351562 79.84375 108.652344 79.980469 108.972656 C 80.117188 109.292969 80.222656 109.625 80.292969 109.964844 C 80.367188 110.308594 80.40625 110.652344 80.410156 111 Z M 107.195312 152.679688 C 107.191406 153.027344 107.152344 153.371094 107.078125 153.710938 C 107.007812 154.054688 106.902344 154.382812 106.765625 154.703125 C 106.628906 155.023438 106.460938 155.328125 106.265625 155.617188 C 106.070312 155.90625 105.847656 156.171875 105.597656 156.414062 C 105.351562 156.660156 105.082031 156.878906 104.789062 157.070312 C 104.5 157.261719 104.195312 157.425781 103.871094 157.554688 C 103.546875 157.6875 103.214844 157.789062 102.875 157.855469 C 102.53125 157.921875 102.1875 157.957031 101.839844 157.957031 C 101.492188 157.957031 101.144531 157.921875 100.804688 157.855469 C 100.460938 157.789062 100.128906 157.6875 99.808594 157.554688 C 99.484375 157.425781 99.179688 157.261719 98.886719 157.070312 C 98.597656 156.878906 98.328125 156.660156 98.078125 156.414062 C 97.832031 156.171875 97.609375 155.90625 97.414062 155.617188 C 97.214844 155.328125 97.050781 155.023438 96.914062 154.703125 C 96.777344 154.382812 96.671875 154.054688 96.597656 153.710938 C 96.527344 153.371094 96.488281 153.027344 96.480469 152.679688 L 96.480469 102.269531 C 96.488281 101.917969 96.527344 101.574219 96.597656 101.234375 C 96.671875 100.894531 96.777344 100.5625 96.914062 100.242188 C 97.050781 99.921875 97.214844 99.617188 97.414062 99.328125 C 97.609375 99.042969 97.832031 98.773438 98.078125 98.53125 C 98.328125 98.285156 98.597656 98.066406 98.886719 97.875 C 99.179688 97.683594 99.484375 97.523438 99.808594 97.390625 C 100.128906 97.257812 100.460938 97.15625 100.804688 97.089844 C 101.144531 97.023438 101.492188 96.988281 101.839844 96.988281 C 102.1875 96.988281 102.53125 97.023438 102.875 97.089844 C 103.214844 97.15625 103.550781 97.257812 103.871094 97.390625 C 104.195312 97.523438 104.5 97.683594 104.792969 97.875 C 105.082031 98.066406 105.351562 98.285156 105.597656 98.53125 C 105.847656 98.773438 106.070312 99.042969 106.265625 99.328125 C 106.460938 99.617188 106.628906 99.921875 106.765625 100.242188 C 106.902344 100.5625 107.007812 100.894531 107.082031 101.234375 C 107.152344 101.574219 107.191406 101.917969 107.195312 102.269531 Z M 164.304688 227.195312 C 164.652344 227.203125 164.996094 227.242188 165.335938 227.3125 C 165.679688 227.386719 166.007812 227.488281 166.328125 227.625 C 166.648438 227.765625 166.953125 227.929688 167.242188 228.125 C 167.53125 228.324219 167.796875 228.546875 168.039062 228.792969 C 168.285156 229.042969 168.503906 229.3125 168.695312 229.601562 C 168.886719 229.894531 169.050781 230.199219 169.179688 230.523438 C 169.3125 230.84375 169.414062 231.175781 169.480469 231.519531 C 169.546875 231.859375 169.582031 232.207031 169.582031 232.554688 C 169.582031 232.902344 169.546875 233.246094 169.480469 233.589844 C 169.414062 233.929688 169.3125 234.261719 169.179688 234.585938 C 169.050781 234.90625 168.886719 235.214844 168.695312 235.503906 C 168.503906 235.796875 168.285156 236.066406 168.039062 236.3125 C 167.796875 236.5625 167.53125 236.785156 167.242188 236.980469 C 166.953125 237.175781 166.648438 237.34375 166.328125 237.480469 C 166.007812 237.617188 165.679688 237.722656 165.335938 237.792969 C 164.996094 237.867188 164.652344 237.90625 164.304688 237.910156 L 130.125 237.910156 L 130.125 264.695312 C 130.121094 265.046875 130.082031 265.390625 130.011719 265.730469 C 129.9375 266.074219 129.832031 266.402344 129.695312 266.722656 C 129.558594 267.046875 129.394531 267.351562 129.195312 267.636719 C 129 267.925781 128.777344 268.191406 128.53125 268.4375 C 128.28125 268.683594 128.011719 268.902344 127.722656 269.09375 C 127.429688 269.285156 127.125 269.449219 126.800781 269.582031 C 126.480469 269.714844 126.144531 269.8125 125.804688 269.878906 C 125.460938 269.949219 125.117188 269.980469 124.769531 269.980469 C 124.417969 269.980469 124.074219 269.949219 123.730469 269.878906 C 123.390625 269.8125 123.058594 269.714844 122.734375 269.582031 C 122.410156 269.449219 122.105469 269.285156 121.8125 269.09375 C 121.523438 268.902344 121.253906 268.683594 121.003906 268.4375 C 120.757812 268.191406 120.535156 267.925781 120.339844 267.636719 C 120.140625 267.347656 119.976562 267.042969 119.839844 266.722656 C 119.703125 266.402344 119.597656 266.070312 119.527344 265.730469 C 119.453125 265.390625 119.414062 265.042969 119.410156 264.695312 L 119.410156 200.410156 C 119.410156 200.058594 119.445312 199.710938 119.515625 199.367188 C 119.585938 199.023438 119.6875 198.6875 119.824219 198.363281 C 119.957031 198.039062 120.121094 197.730469 120.320312 197.4375 C 120.515625 197.144531 120.734375 196.875 120.984375 196.628906 C 121.234375 196.378906 121.503906 196.15625 121.796875 195.960938 C 122.085938 195.765625 122.394531 195.601562 122.71875 195.464844 C 123.042969 195.332031 123.378906 195.226562 123.722656 195.160156 C 124.070312 195.089844 124.417969 195.054688 124.769531 195.054688 L 164.304688 195.054688 C 164.652344 195.058594 164.996094 195.097656 165.339844 195.167969 C 165.679688 195.242188 166.011719 195.347656 166.332031 195.484375 C 166.652344 195.621094 166.957031 195.785156 167.242188 195.980469 C 167.53125 196.179688 167.796875 196.402344 168.042969 196.648438 C 168.289062 196.898438 168.507812 197.167969 168.699219 197.457031 C 168.890625 197.75 169.054688 198.054688 169.183594 198.378906 C 169.316406 198.699219 169.417969 199.03125 169.484375 199.375 C 169.550781 199.71875 169.585938 200.0625 169.585938 200.410156 C 169.585938 200.757812 169.550781 201.105469 169.484375 201.445312 C 169.417969 201.789062 169.316406 202.121094 169.183594 202.445312 C 169.050781 202.765625 168.890625 203.074219 168.699219 203.363281 C 168.507812 203.65625 168.289062 203.925781 168.042969 204.171875 C 167.796875 204.421875 167.53125 204.644531 167.242188 204.839844 C 166.957031 205.035156 166.652344 205.203125 166.332031 205.339844 C 166.007812 205.476562 165.679688 205.578125 165.335938 205.652344 C 164.996094 205.722656 164.652344 205.761719 164.304688 205.769531 L 130.125 205.769531 L 130.125 227.195312 Z M 182.144531 165.105469 L 182.144531 89.839844 C 182.148438 89.492188 182.1875 89.148438 182.257812 88.804688 C 182.332031 88.464844 182.4375 88.132812 182.574219 87.816406 C 182.710938 87.496094 182.878906 87.191406 183.074219 86.902344 C 183.269531 86.613281 183.492188 86.347656 183.742188 86.105469 C 183.988281 85.859375 184.257812 85.640625 184.550781 85.449219 C 184.839844 85.257812 185.144531 85.097656 185.46875 84.964844 C 185.792969 84.832031 186.125 84.734375 186.464844 84.664062 C 186.804688 84.597656 187.152344 84.5625 187.5 84.5625 C 187.847656 84.5625 188.191406 84.597656 188.535156 84.664062 C 188.875 84.734375 189.207031 84.832031 189.53125 84.964844 C 189.851562 85.097656 190.160156 85.257812 190.449219 85.449219 C 190.742188 85.640625 191.011719 85.859375 191.257812 86.105469 C 191.507812 86.347656 191.730469 86.613281 191.925781 86.902344 C 192.121094 87.191406 192.289062 87.496094 192.425781 87.816406 C 192.5625 88.132812 192.667969 88.464844 192.738281 88.804688 C 192.8125 89.148438 192.851562 89.492188 192.855469 89.839844 L 192.855469 165.105469 C 192.851562 165.457031 192.8125 165.800781 192.738281 166.140625 C 192.667969 166.480469 192.5625 166.8125 192.425781 167.132812 C 192.289062 167.453125 192.121094 167.757812 191.925781 168.042969 C 191.730469 168.332031 191.507812 168.597656 191.257812 168.84375 C 191.011719 169.085938 190.742188 169.304688 190.449219 169.496094 C 190.160156 169.6875 189.851562 169.851562 189.53125 169.980469 C 189.207031 170.113281 188.875 170.214844 188.535156 170.28125 C 188.191406 170.347656 187.847656 170.382812 187.5 170.382812 C 187.152344 170.382812 186.804688 170.347656 186.464844 170.28125 C 186.125 170.214844 185.792969 170.113281 185.46875 169.980469 C 185.144531 169.851562 184.839844 169.6875 184.550781 169.496094 C 184.257812 169.304688 183.988281 169.085938 183.742188 168.84375 C 183.492188 168.597656 183.269531 168.332031 183.074219 168.042969 C 182.878906 167.757812 182.710938 167.453125 182.574219 167.132812 C 182.4375 166.8125 182.332031 166.480469 182.257812 166.140625 C 182.1875 165.800781 182.148438 165.457031 182.144531 165.105469 Z M 255.589844 264.695312 C 255.585938 265.046875 255.546875 265.390625 255.476562 265.730469 C 255.402344 266.074219 255.296875 266.40625 255.164062 266.726562 C 255.027344 267.046875 254.859375 267.351562 254.664062 267.640625 C 254.46875 267.929688 254.246094 268.195312 253.996094 268.441406 C 253.746094 268.6875 253.476562 268.90625 253.1875 269.097656 C 252.894531 269.289062 252.589844 269.453125 252.265625 269.585938 C 251.945312 269.71875 251.609375 269.816406 251.269531 269.886719 C 250.925781 269.953125 250.582031 269.984375 250.230469 269.984375 C 249.882812 269.984375 249.539062 269.953125 249.195312 269.882812 C 248.851562 269.816406 248.519531 269.71875 248.199219 269.585938 C 247.875 269.453125 247.566406 269.289062 247.277344 269.097656 C 246.984375 268.90625 246.714844 268.6875 246.46875 268.441406 C 246.21875 268.195312 245.996094 267.929688 245.800781 267.640625 C 245.605469 267.351562 245.4375 267.046875 245.300781 266.726562 C 245.164062 266.40625 245.0625 266.074219 244.988281 265.730469 C 244.917969 265.390625 244.878906 265.046875 244.875 264.695312 L 244.875 215.304688 L 226.875 237 C 226.621094 237.300781 226.339844 237.566406 226.027344 237.804688 C 225.714844 238.042969 225.378906 238.246094 225.023438 238.410156 C 224.667969 238.574219 224.296875 238.699219 223.914062 238.785156 C 223.53125 238.871094 223.140625 238.914062 222.75 238.914062 C 222.355469 238.914062 221.96875 238.871094 221.585938 238.785156 C 221.203125 238.699219 220.832031 238.574219 220.476562 238.410156 C 220.121094 238.246094 219.785156 238.042969 219.472656 237.804688 C 219.160156 237.566406 218.878906 237.300781 218.625 237 L 200.679688 215.304688 L 200.679688 264.695312 C 200.671875 265.046875 200.636719 265.390625 200.5625 265.730469 C 200.492188 266.070312 200.386719 266.402344 200.25 266.722656 C 200.113281 267.042969 199.945312 267.347656 199.75 267.636719 C 199.554688 267.925781 199.332031 268.191406 199.082031 268.4375 C 198.835938 268.679688 198.566406 268.898438 198.273438 269.089844 C 197.984375 269.285156 197.675781 269.445312 197.355469 269.578125 C 197.03125 269.710938 196.699219 269.808594 196.355469 269.878906 C 196.015625 269.945312 195.667969 269.976562 195.320312 269.976562 C 194.972656 269.976562 194.628906 269.945312 194.285156 269.878906 C 193.941406 269.808594 193.609375 269.710938 193.289062 269.578125 C 192.964844 269.445312 192.660156 269.285156 192.367188 269.089844 C 192.078125 268.898438 191.808594 268.679688 191.558594 268.4375 C 191.3125 268.191406 191.089844 267.925781 190.894531 267.636719 C 190.695312 267.347656 190.53125 267.042969 190.394531 266.722656 C 190.257812 266.402344 190.152344 266.070312 190.078125 265.730469 C 190.007812 265.390625 189.96875 265.042969 189.964844 264.695312 L 189.964844 200.410156 C 189.972656 199.863281 190.066406 199.332031 190.238281 198.8125 C 190.410156 198.296875 190.65625 197.8125 190.972656 197.371094 C 191.289062 196.925781 191.667969 196.539062 192.101562 196.207031 C 192.539062 195.878906 193.011719 195.621094 193.527344 195.4375 C 194.039062 195.25 194.570312 195.144531 195.117188 195.121094 C 195.660156 195.09375 196.199219 195.152344 196.726562 195.289062 C 197.253906 195.425781 197.75 195.640625 198.214844 195.929688 C 198.679688 196.21875 199.089844 196.570312 199.445312 196.980469 L 222.75 225.214844 L 246.105469 196.980469 C 246.464844 196.570312 246.875 196.21875 247.339844 195.929688 C 247.804688 195.644531 248.300781 195.429688 248.828125 195.292969 C 249.355469 195.15625 249.890625 195.097656 250.4375 195.125 C 250.984375 195.148438 251.511719 195.253906 252.027344 195.441406 C 252.539062 195.625 253.011719 195.882812 253.449219 196.214844 C 253.882812 196.542969 254.261719 196.929688 254.578125 197.371094 C 254.898438 197.816406 255.140625 198.296875 255.3125 198.816406 C 255.488281 199.332031 255.578125 199.867188 255.589844 200.410156 Z M 278.519531 152.464844 C 278.511719 152.8125 278.472656 153.15625 278.402344 153.5 C 278.328125 153.839844 278.222656 154.167969 278.085938 154.488281 C 277.949219 154.808594 277.785156 155.113281 277.585938 155.402344 C 277.390625 155.691406 277.167969 155.957031 276.921875 156.199219 C 276.671875 156.445312 276.402344 156.664062 276.113281 156.855469 C 275.820312 157.046875 275.515625 157.210938 275.191406 157.34375 C 274.871094 157.472656 274.539062 157.574219 274.195312 157.640625 C 273.855469 157.707031 273.507812 157.742188 273.160156 157.742188 C 272.8125 157.742188 272.46875 157.707031 272.125 157.640625 C 271.78125 157.574219 271.449219 157.472656 271.128906 157.34375 C 270.804688 157.210938 270.5 157.046875 270.207031 156.855469 C 269.917969 156.664062 269.648438 156.445312 269.398438 156.199219 C 269.152344 155.957031 268.929688 155.691406 268.734375 155.402344 C 268.539062 155.113281 268.371094 154.808594 268.234375 154.488281 C 268.097656 154.167969 267.992188 153.839844 267.921875 153.496094 C 267.847656 153.15625 267.808594 152.8125 267.804688 152.464844 L 267.804688 102.054688 C 267.808594 101.703125 267.847656 101.359375 267.917969 101.019531 C 267.992188 100.675781 268.09375 100.347656 268.230469 100.027344 C 268.367188 99.703125 268.535156 99.398438 268.730469 99.113281 C 268.925781 98.824219 269.148438 98.554688 269.398438 98.3125 C 269.644531 98.066406 269.914062 97.847656 270.207031 97.65625 C 270.496094 97.464844 270.804688 97.300781 271.128906 97.167969 C 271.449219 97.035156 271.78125 96.9375 272.125 96.867188 C 272.464844 96.800781 272.8125 96.769531 273.160156 96.769531 C 273.507812 96.769531 273.855469 96.800781 274.195312 96.867188 C 274.539062 96.9375 274.871094 97.035156 275.195312 97.167969 C 275.515625 97.300781 275.824219 97.464844 276.113281 97.65625 C 276.40625 97.847656 276.675781 98.066406 276.921875 98.3125 C 277.171875 98.554688 277.394531 98.824219 277.589844 99.113281 C 277.785156 99.398438 277.953125 99.703125 278.089844 100.027344 C 278.226562 100.347656 278.332031 100.675781 278.402344 101.019531 C 278.476562 101.359375 278.511719 101.703125 278.519531 102.054688 Z M 305.304688 143.679688 C 305.300781 144.027344 305.261719 144.371094 305.1875 144.714844 C 305.117188 145.054688 305.011719 145.386719 304.875 145.707031 C 304.738281 146.027344 304.574219 146.332031 304.378906 146.621094 C 304.179688 146.910156 303.957031 147.179688 303.710938 147.421875 C 303.460938 147.667969 303.191406 147.886719 302.902344 148.078125 C 302.609375 148.273438 302.304688 148.433594 301.980469 148.566406 C 301.65625 148.699219 301.324219 148.800781 300.984375 148.867188 C 300.640625 148.933594 300.296875 148.96875 299.945312 148.96875 C 299.597656 148.96875 299.25 148.933594 298.910156 148.867188 C 298.566406 148.800781 298.234375 148.699219 297.910156 148.566406 C 297.589844 148.433594 297.28125 148.273438 296.992188 148.078125 C 296.699219 147.886719 296.429688 147.667969 296.183594 147.421875 C 295.933594 147.175781 295.710938 146.910156 295.515625 146.621094 C 295.320312 146.332031 295.152344 146.027344 295.015625 145.707031 C 294.878906 145.386719 294.777344 145.054688 294.703125 144.714844 C 294.632812 144.371094 294.59375 144.027344 294.589844 143.679688 L 294.589844 110.839844 C 294.59375 110.492188 294.632812 110.144531 294.707031 109.804688 C 294.777344 109.464844 294.882812 109.132812 295.019531 108.8125 C 295.15625 108.492188 295.324219 108.1875 295.519531 107.902344 C 295.714844 107.613281 295.9375 107.347656 296.1875 107.101562 C 296.433594 106.855469 296.703125 106.640625 296.996094 106.445312 C 297.285156 106.253906 297.59375 106.09375 297.914062 105.960938 C 298.238281 105.828125 298.570312 105.730469 298.910156 105.660156 C 299.253906 105.59375 299.597656 105.558594 299.945312 105.558594 C 300.292969 105.558594 300.640625 105.59375 300.980469 105.660156 C 301.324219 105.730469 301.65625 105.828125 301.976562 105.960938 C 302.300781 106.09375 302.609375 106.253906 302.898438 106.445312 C 303.1875 106.640625 303.457031 106.855469 303.707031 107.101562 C 303.957031 107.347656 304.175781 107.613281 304.375 107.902344 C 304.570312 108.1875 304.738281 108.492188 304.875 108.8125 C 305.011719 109.132812 305.113281 109.464844 305.1875 109.804688 C 305.257812 110.144531 305.296875 110.492188 305.304688 110.839844 Z M 305.304688 143.679688 " fill-opacity="1" fill-rule="nonzero"/></g></svg>