<svg xmlns="http://www.w3.org/2000/svg" xmlns:xlink="http://www.w3.org/1999/xlink" width="500" zoomAndPan="magnify" viewBox="0 0 375 374.999991" height="500" preserveAspectRatio="xMidYMid meet" version="1.0"><defs><clipPath id="954eeb89a0"><path d="M 112.5 116.25 L 142 116.25 L 142 220 L 112.5 220 Z M 112.5 116.25 " clip-rule="nonzero"/></clipPath><clipPath id="cb4a2741d1"><path d="M 117 232 L 138 232 L 138 258.75 L 117 258.75 Z M 117 232 " clip-rule="nonzero"/></clipPath><clipPath id="a0eb367ebd"><path d="M 232 116.25 L 262 116.25 L 262 220 L 232 220 Z M 232 116.25 " clip-rule="nonzero"/></clipPath><clipPath id="a2aed589e3"><path d="M 237 232 L 258 232 L 258 258.75 L 237 258.75 Z M 237 232 " clip-rule="nonzero"/></clipPath><clipPath id="71e070f4ce"><path d="M 153 190 L 222 190 L 222 258.75 L 153 258.75 Z M 153 190 " clip-rule="nonzero"/></clipPath><clipPath id="79a9395e0d"><path d="M 132 39.085938 L 178 39.085938 L 178 50 L 132 50 Z M 132 39.085938 " clip-rule="nonzero"/></clipPath><clipPath id="de2a505404"><path d="M 39.085938 156 L 178 156 L 178 178 L 39.085938 178 Z M 39.085938 156 " clip-rule="nonzero"/></clipPath><clipPath id="6e95952ef9"><path d="M 132 327 L 178 327 L 178 337.585938 L 132 337.585938 Z M 132 327 " clip-rule="nonzero"/></clipPath><clipPath id="d8f583f17c"><path d="M 198 40 L 337.585938 40 L 337.585938 337 L 198 337 Z M 198 40 " clip-rule="nonzero"/></clipPath><clipPath id="7d1024fad3"><path d="M 39.085938 199 L 178 199 L 178 221 L 39.085938 221 Z M 39.085938 199 " clip-rule="nonzero"/></clipPath></defs><path fill="#000000" d="M 127.410156 139.75 C 127.066406 139.742188 126.734375 139.804688 126.417969 139.941406 C 126.097656 140.074219 125.824219 140.265625 125.589844 140.515625 C 125.351562 140.765625 125.179688 141.054688 125.066406 141.378906 C 124.953125 141.707031 124.914062 142.039062 124.941406 142.382812 C 124.925781 142.722656 124.972656 143.050781 125.089844 143.367188 C 125.207031 143.683594 125.382812 143.96875 125.613281 144.214844 C 125.847656 144.460938 126.117188 144.648438 126.429688 144.785156 C 126.742188 144.917969 127.066406 144.984375 127.40625 144.984375 C 127.742188 144.984375 128.070312 144.917969 128.378906 144.785156 C 128.691406 144.648438 128.964844 144.460938 129.195312 144.214844 C 129.429688 143.96875 129.601562 143.683594 129.71875 143.367188 C 129.835938 143.050781 129.886719 142.722656 129.867188 142.382812 C 129.894531 142.039062 129.855469 141.707031 129.742188 141.382812 C 129.628906 141.058594 129.457031 140.773438 129.222656 140.519531 C 128.988281 140.269531 128.710938 140.078125 128.398438 139.945312 C 128.082031 139.808594 127.75 139.746094 127.410156 139.75 Z M 127.410156 139.75 " fill-opacity="1" fill-rule="nonzero"/><g clip-path="url(#954eeb89a0)"><path fill="#000000" d="M 112.601562 117.003906 L 113.0625 219.71875 L 141.710938 219.71875 L 141.710938 116.566406 Z M 127.410156 203.710938 C 126.800781 203.714844 126.199219 203.660156 125.601562 203.546875 C 125.003906 203.433594 124.425781 203.261719 123.859375 203.035156 C 123.296875 202.804688 122.761719 202.523438 122.253906 202.191406 C 121.746094 201.859375 121.277344 201.476562 120.84375 201.050781 C 120.410156 200.625 120.023438 200.160156 119.679688 199.65625 C 119.339844 199.15625 119.050781 198.625 118.8125 198.0625 C 118.574219 197.503906 118.394531 196.925781 118.273438 196.332031 C 118.148438 195.734375 118.085938 195.132812 118.082031 194.527344 C 118.097656 193.925781 118.171875 193.332031 118.304688 192.746094 C 118.4375 192.160156 118.625 191.589844 118.867188 191.039062 C 119.109375 190.488281 119.402344 189.96875 119.742188 189.472656 C 120.085938 188.980469 120.472656 188.523438 120.90625 188.105469 C 121.335938 187.683594 121.804688 187.3125 122.304688 186.984375 C 122.808594 186.652344 123.339844 186.375 123.898438 186.148438 C 124.453125 185.925781 125.027344 185.753906 125.617188 185.636719 C 126.207031 185.523438 126.804688 185.464844 127.40625 185.464844 C 128.007812 185.464844 128.601562 185.523438 129.191406 185.636719 C 129.78125 185.753906 130.355469 185.925781 130.914062 186.148438 C 131.46875 186.375 132 186.652344 132.503906 186.984375 C 133.007812 187.3125 133.472656 187.683594 133.90625 188.105469 C 134.335938 188.523438 134.722656 188.980469 135.066406 189.472656 C 135.410156 189.96875 135.703125 190.488281 135.945312 191.039062 C 136.183594 191.589844 136.371094 192.160156 136.503906 192.746094 C 136.636719 193.332031 136.710938 193.925781 136.726562 194.527344 C 136.722656 195.132812 136.660156 195.734375 136.535156 196.332031 C 136.414062 196.925781 136.234375 197.503906 135.996094 198.0625 C 135.761719 198.621094 135.472656 199.152344 135.132812 199.65625 C 134.789062 200.15625 134.402344 200.621094 133.96875 201.046875 C 133.539062 201.476562 133.066406 201.855469 132.558594 202.1875 C 132.050781 202.523438 131.515625 202.804688 130.953125 203.03125 C 130.390625 203.261719 129.8125 203.433594 129.214844 203.546875 C 128.617188 203.660156 128.015625 203.714844 127.410156 203.710938 Z M 127.410156 151.632812 C 126.796875 151.632812 126.191406 151.570312 125.59375 151.449219 C 124.996094 151.328125 124.414062 151.152344 123.851562 150.917969 C 123.289062 150.679688 122.753906 150.394531 122.246094 150.054688 C 121.738281 149.710938 121.269531 149.324219 120.839844 148.890625 C 120.410156 148.460938 120.023438 147.988281 119.6875 147.480469 C 119.347656 146.96875 119.0625 146.433594 118.832031 145.867188 C 118.601562 145.304688 118.425781 144.722656 118.308594 144.121094 C 118.191406 143.523438 118.132812 142.917969 118.136719 142.308594 C 118.136719 141.695312 118.199219 141.089844 118.320312 140.492188 C 118.441406 139.894531 118.621094 139.3125 118.855469 138.75 C 119.089844 138.1875 119.378906 137.652344 119.71875 137.144531 C 120.0625 136.636719 120.449219 136.171875 120.882812 135.738281 C 121.316406 135.308594 121.785156 134.925781 122.296875 134.589844 C 122.804688 134.25 123.34375 133.964844 123.90625 133.734375 C 124.472656 133.503906 125.054688 133.328125 125.652344 133.210938 C 126.253906 133.09375 126.859375 133.039062 127.46875 133.039062 C 128.078125 133.042969 128.683594 133.105469 129.28125 133.226562 C 129.882812 133.347656 130.460938 133.527344 131.027344 133.765625 C 131.589844 134 132.125 134.289062 132.628906 134.628906 C 133.136719 134.972656 133.605469 135.359375 134.035156 135.792969 C 134.464844 136.226562 134.847656 136.699219 135.183594 137.207031 C 135.523438 137.71875 135.804688 138.253906 136.035156 138.820312 C 136.269531 139.386719 136.441406 139.96875 136.558594 140.566406 C 136.675781 141.167969 136.730469 141.773438 136.726562 142.382812 C 136.71875 142.988281 136.648438 143.589844 136.523438 144.183594 C 136.394531 144.777344 136.210938 145.355469 135.972656 145.914062 C 135.734375 146.472656 135.445312 147.003906 135.105469 147.507812 C 134.765625 148.007812 134.378906 148.476562 133.945312 148.902344 C 133.515625 149.332031 133.046875 149.714844 132.542969 150.050781 C 132.039062 150.390625 131.503906 150.675781 130.945312 150.910156 C 130.386719 151.144531 129.808594 151.324219 129.210938 151.445312 C 128.617188 151.570312 128.015625 151.632812 127.410156 151.640625 Z M 127.410156 151.632812 " fill-opacity="1" fill-rule="nonzero"/></g><path fill="#000000" d="M 127.410156 191.910156 C 127.066406 191.914062 126.742188 191.980469 126.429688 192.117188 C 126.117188 192.253906 125.84375 192.445312 125.613281 192.691406 C 125.378906 192.941406 125.203125 193.226562 125.089844 193.542969 C 124.972656 193.863281 124.921875 194.195312 124.941406 194.535156 C 124.925781 194.871094 124.972656 195.199219 125.089844 195.519531 C 125.207031 195.835938 125.382812 196.121094 125.613281 196.367188 C 125.847656 196.613281 126.117188 196.800781 126.429688 196.933594 C 126.742188 197.070312 127.066406 197.136719 127.40625 197.136719 C 127.742188 197.136719 128.070312 197.070312 128.378906 196.933594 C 128.691406 196.800781 128.964844 196.613281 129.195312 196.367188 C 129.429688 196.121094 129.601562 195.835938 129.71875 195.519531 C 129.835938 195.199219 129.886719 194.871094 129.867188 194.535156 C 129.882812 194.195312 129.835938 193.867188 129.71875 193.546875 C 129.601562 193.230469 129.425781 192.949219 129.195312 192.699219 C 128.964844 192.453125 128.691406 192.261719 128.382812 192.125 C 128.074219 191.984375 127.746094 191.914062 127.410156 191.910156 Z M 127.410156 191.910156 " fill-opacity="1" fill-rule="nonzero"/><g clip-path="url(#cb4a2741d1)"><path fill="#000000" d="M 130.816406 232.136719 L 123.964844 232.136719 L 123.964844 252.152344 L 117.042969 252.152344 L 117.042969 258.691406 L 137.738281 258.691406 L 137.738281 252.152344 L 130.816406 252.152344 Z M 130.816406 232.136719 " fill-opacity="1" fill-rule="nonzero"/></g><path fill="#000000" d="M 247.386719 191.910156 C 247.046875 191.914062 246.722656 191.984375 246.414062 192.121094 C 246.101562 192.257812 245.832031 192.449219 245.597656 192.699219 C 245.367188 192.945312 245.191406 193.230469 245.074219 193.546875 C 244.960938 193.867188 244.910156 194.195312 244.929688 194.535156 C 244.929688 194.859375 244.992188 195.175781 245.117188 195.476562 C 245.242188 195.777344 245.417969 196.042969 245.648438 196.273438 C 245.878906 196.503906 246.144531 196.679688 246.445312 196.804688 C 246.75 196.929688 247.0625 196.992188 247.386719 196.992188 C 247.714844 196.992188 248.027344 196.929688 248.328125 196.804688 C 248.628906 196.679688 248.894531 196.503906 249.125 196.273438 C 249.355469 196.042969 249.535156 195.777344 249.660156 195.476562 C 249.785156 195.175781 249.84375 194.859375 249.84375 194.535156 C 249.867188 194.195312 249.820312 193.867188 249.703125 193.546875 C 249.589844 193.226562 249.414062 192.941406 249.183594 192.691406 C 248.949219 192.445312 248.675781 192.253906 248.367188 192.117188 C 248.054688 191.980469 247.726562 191.914062 247.386719 191.910156 Z M 247.386719 191.910156 " fill-opacity="1" fill-rule="nonzero"/><path fill="#000000" d="M 247.386719 139.75 C 247.042969 139.746094 246.714844 139.808594 246.398438 139.945312 C 246.082031 140.078125 245.808594 140.269531 245.574219 140.519531 C 245.339844 140.773438 245.167969 141.058594 245.054688 141.382812 C 244.941406 141.707031 244.902344 142.039062 244.929688 142.382812 C 244.929688 142.707031 244.992188 143.023438 245.117188 143.324219 C 245.242188 143.625 245.417969 143.890625 245.648438 144.121094 C 245.878906 144.351562 246.144531 144.527344 246.445312 144.652344 C 246.75 144.777344 247.0625 144.839844 247.386719 144.839844 C 247.714844 144.839844 248.027344 144.777344 248.328125 144.652344 C 248.628906 144.527344 248.894531 144.351562 249.125 144.121094 C 249.355469 143.890625 249.535156 143.625 249.660156 143.324219 C 249.785156 143.023438 249.84375 142.707031 249.84375 142.382812 C 249.875 142.039062 249.835938 141.707031 249.726562 141.382812 C 249.613281 141.054688 249.441406 140.765625 249.207031 140.515625 C 248.972656 140.265625 248.695312 140.074219 248.378906 139.9375 C 248.0625 139.804688 247.730469 139.742188 247.386719 139.75 Z M 247.386719 139.75 " fill-opacity="1" fill-rule="nonzero"/><g clip-path="url(#a0eb367ebd)"><path fill="#000000" d="M 232.585938 117.003906 L 233.046875 219.71875 L 261.699219 219.71875 L 261.699219 116.566406 Z M 247.386719 203.710938 C 246.78125 203.714844 246.179688 203.660156 245.582031 203.546875 C 244.984375 203.433594 244.40625 203.261719 243.84375 203.03125 C 243.277344 202.804688 242.742188 202.523438 242.238281 202.1875 C 241.730469 201.855469 241.257812 201.476562 240.828125 201.046875 C 240.394531 200.621094 240.007812 200.15625 239.664062 199.65625 C 239.324219 199.152344 239.035156 198.621094 238.796875 198.0625 C 238.5625 197.503906 238.382812 196.925781 238.257812 196.332031 C 238.136719 195.734375 238.074219 195.132812 238.070312 194.527344 C 238.070312 193.914062 238.128906 193.308594 238.246094 192.707031 C 238.367188 192.109375 238.542969 191.527344 238.777344 190.960938 C 239.011719 190.394531 239.300781 189.859375 239.640625 189.347656 C 239.980469 188.839844 240.367188 188.371094 240.796875 187.9375 C 241.230469 187.503906 241.703125 187.117188 242.210938 186.777344 C 242.71875 186.4375 243.257812 186.152344 243.820312 185.917969 C 244.386719 185.683594 244.96875 185.507812 245.570312 185.386719 C 246.167969 185.269531 246.777344 185.207031 247.386719 185.207031 C 248 185.207031 248.605469 185.269531 249.207031 185.386719 C 249.804688 185.507812 250.386719 185.683594 250.953125 185.917969 C 251.519531 186.152344 252.054688 186.4375 252.566406 186.777344 C 253.074219 187.117188 253.542969 187.503906 253.976562 187.9375 C 254.410156 188.371094 254.796875 188.839844 255.136719 189.347656 C 255.476562 189.859375 255.761719 190.394531 255.996094 190.960938 C 256.230469 191.527344 256.410156 192.109375 256.527344 192.707031 C 256.648438 193.308594 256.707031 193.914062 256.707031 194.527344 C 256.703125 195.132812 256.636719 195.734375 256.515625 196.332031 C 256.394531 196.925781 256.214844 197.503906 255.976562 198.0625 C 255.738281 198.621094 255.453125 199.152344 255.109375 199.65625 C 254.769531 200.15625 254.382812 200.621094 253.949219 201.046875 C 253.515625 201.476562 253.046875 201.855469 252.539062 202.1875 C 252.03125 202.523438 251.496094 202.804688 250.933594 203.03125 C 250.371094 203.261719 249.789062 203.433594 249.195312 203.546875 C 248.597656 203.660156 247.996094 203.714844 247.386719 203.710938 Z M 247.386719 151.632812 C 246.777344 151.632812 246.171875 151.570312 245.574219 151.449219 C 244.976562 151.328125 244.394531 151.152344 243.832031 150.917969 C 243.265625 150.683594 242.730469 150.394531 242.226562 150.054688 C 241.71875 149.710938 241.25 149.324219 240.820312 148.894531 C 240.386719 148.460938 240.003906 147.988281 239.667969 147.480469 C 239.328125 146.972656 239.042969 146.433594 238.8125 145.871094 C 238.578125 145.304688 238.40625 144.722656 238.289062 144.125 C 238.171875 143.523438 238.113281 142.921875 238.113281 142.308594 C 238.117188 141.699219 238.175781 141.09375 238.296875 140.496094 C 238.417969 139.898438 238.597656 139.316406 238.832031 138.753906 C 239.066406 138.191406 239.355469 137.65625 239.695312 137.148438 C 240.039062 136.640625 240.425781 136.171875 240.859375 135.742188 C 241.292969 135.3125 241.761719 134.929688 242.269531 134.589844 C 242.78125 134.253906 243.316406 133.96875 243.882812 133.738281 C 244.445312 133.503906 245.027344 133.332031 245.628906 133.214844 C 246.226562 133.097656 246.832031 133.039062 247.441406 133.039062 C 248.054688 133.042969 248.660156 133.105469 249.257812 133.226562 C 249.855469 133.347656 250.4375 133.527344 251 133.761719 C 251.5625 133.996094 252.097656 134.285156 252.605469 134.625 C 253.109375 134.96875 253.578125 135.355469 254.007812 135.789062 C 254.4375 136.222656 254.824219 136.691406 255.160156 137.203125 C 255.496094 137.710938 255.78125 138.25 256.011719 138.8125 C 256.246094 139.378906 256.417969 139.960938 256.535156 140.558594 C 256.652344 141.160156 256.710938 141.765625 256.707031 142.375 C 256.695312 142.984375 256.628906 143.582031 256.5 144.179688 C 256.375 144.773438 256.191406 145.351562 255.953125 145.910156 C 255.71875 146.46875 255.425781 147 255.085938 147.503906 C 254.746094 148.007812 254.359375 148.472656 253.929688 148.898438 C 253.496094 149.328125 253.03125 149.710938 252.523438 150.050781 C 252.019531 150.386719 251.488281 150.675781 250.925781 150.910156 C 250.367188 151.144531 249.789062 151.324219 249.191406 151.445312 C 248.597656 151.570312 247.996094 151.632812 247.386719 151.640625 Z M 247.386719 151.632812 " fill-opacity="1" fill-rule="nonzero"/></g><g clip-path="url(#a2aed589e3)"><path fill="#000000" d="M 250.804688 232.136719 L 243.941406 232.136719 L 243.941406 252.152344 L 237.019531 252.152344 L 237.019531 258.691406 L 257.738281 258.691406 L 257.738281 252.152344 L 250.804688 252.152344 Z M 250.804688 232.136719 " fill-opacity="1" fill-rule="nonzero"/></g><path fill="#000000" d="M 187.402344 222.339844 C 187.09375 222.359375 186.804688 222.4375 186.527344 222.566406 C 186.25 222.699219 186.003906 222.875 185.792969 223.101562 C 185.585938 223.324219 185.421875 223.578125 185.308594 223.863281 C 185.195312 224.148438 185.140625 224.445312 185.140625 224.753906 C 185.140625 225.054688 185.199219 225.347656 185.3125 225.625 C 185.429688 225.90625 185.59375 226.152344 185.808594 226.367188 C 186.023438 226.582031 186.269531 226.746094 186.546875 226.859375 C 186.828125 226.976562 187.117188 227.035156 187.421875 227.035156 C 187.722656 227.035156 188.015625 226.976562 188.292969 226.859375 C 188.574219 226.746094 188.820312 226.582031 189.035156 226.367188 C 189.246094 226.152344 189.414062 225.90625 189.527344 225.625 C 189.644531 225.347656 189.703125 225.054688 189.703125 224.753906 C 189.703125 224.441406 189.644531 224.144531 189.53125 223.855469 C 189.414062 223.566406 189.25 223.3125 189.035156 223.085938 C 188.820312 222.863281 188.574219 222.683594 188.289062 222.554688 C 188.007812 222.425781 187.710938 222.355469 187.402344 222.339844 Z M 187.402344 222.339844 " fill-opacity="1" fill-rule="nonzero"/><path fill="#000000" d="M 187.402344 229.203125 C 187.101562 229.214844 186.804688 229.195312 186.511719 229.144531 C 186.21875 229.097656 185.929688 229.019531 185.652344 228.910156 C 185.371094 228.804688 185.105469 228.671875 184.855469 228.511719 C 184.601562 228.351562 184.367188 228.167969 184.152344 227.957031 C 183.9375 227.75 183.746094 227.523438 183.578125 227.277344 C 183.410156 227.03125 183.265625 226.769531 183.152344 226.492188 C 183.035156 226.21875 182.949219 225.933594 182.890625 225.640625 C 182.832031 225.347656 182.800781 225.050781 182.804688 224.753906 C 182.789062 224.445312 182.808594 224.136719 182.859375 223.832031 C 182.90625 223.527344 182.988281 223.230469 183.097656 222.941406 C 183.207031 222.652344 183.34375 222.378906 183.507812 222.117188 C 183.671875 221.855469 183.863281 221.617188 184.078125 221.394531 C 184.289062 221.167969 184.523438 220.972656 184.777344 220.796875 C 185.03125 220.621094 185.300781 220.472656 185.585938 220.351562 C 185.871094 220.230469 186.164062 220.136719 186.464844 220.078125 C 186.769531 220.015625 187.074219 219.984375 187.382812 219.984375 C 187.691406 219.984375 187.996094 220.015625 188.300781 220.078125 C 188.601562 220.136719 188.894531 220.230469 189.179688 220.351562 C 189.464844 220.472656 189.734375 220.621094 189.988281 220.796875 C 190.242188 220.972656 190.476562 221.167969 190.691406 221.394531 C 190.902344 221.617188 191.09375 221.855469 191.257812 222.117188 C 191.421875 222.378906 191.558594 222.652344 191.667969 222.941406 C 191.777344 223.230469 191.859375 223.527344 191.90625 223.832031 C 191.957031 224.136719 191.976562 224.445312 191.964844 224.753906 C 191.964844 225.050781 191.9375 225.347656 191.882812 225.636719 C 191.824219 225.929688 191.738281 226.214844 191.625 226.488281 C 191.511719 226.761719 191.371094 227.023438 191.203125 227.269531 C 191.035156 227.515625 190.84375 227.742188 190.632812 227.953125 C 190.417969 228.160156 190.1875 228.34375 189.9375 228.503906 C 189.6875 228.664062 189.421875 228.800781 189.144531 228.90625 C 188.867188 229.015625 188.582031 229.09375 188.289062 229.144531 C 187.996094 229.191406 187.699219 229.210938 187.402344 229.203125 Z M 187.402344 229.203125 " fill-opacity="1" fill-rule="nonzero"/><g clip-path="url(#71e070f4ce)"><path fill="#000000" d="M 217.886719 190.847656 L 156.875 190.847656 C 156.429688 190.859375 156 190.957031 155.59375 191.136719 C 155.183594 191.316406 154.824219 191.570312 154.511719 191.886719 C 154.203125 192.207031 153.960938 192.574219 153.792969 192.988281 C 153.625 193.402344 153.542969 193.832031 153.542969 194.277344 L 153.542969 255.136719 C 153.558594 255.578125 153.652344 256.003906 153.824219 256.410156 C 154 256.816406 154.238281 257.175781 154.546875 257.492188 C 154.855469 257.808594 155.210938 258.058594 155.609375 258.242188 C 156.011719 258.425781 156.433594 258.535156 156.875 258.5625 L 217.886719 258.5625 C 218.328125 258.535156 218.75 258.429688 219.15625 258.246094 C 219.558594 258.0625 219.914062 257.816406 220.226562 257.5 C 220.535156 257.183594 220.78125 256.820312 220.957031 256.414062 C 221.132812 256.007812 221.230469 255.582031 221.246094 255.136719 L 221.246094 194.277344 C 221.246094 193.828125 221.15625 193.398438 220.988281 192.984375 C 220.816406 192.570312 220.574219 192.203125 220.261719 191.882812 C 219.945312 191.5625 219.585938 191.3125 219.171875 191.132812 C 218.761719 190.953125 218.332031 190.859375 217.886719 190.847656 Z M 187.402344 243.21875 C 186.792969 243.21875 186.183594 243.191406 185.578125 243.128906 C 184.96875 243.070312 184.367188 242.984375 183.769531 242.863281 C 183.171875 242.746094 182.582031 242.597656 181.996094 242.421875 C 181.414062 242.246094 180.839844 242.039062 180.277344 241.808594 C 179.714844 241.574219 179.164062 241.3125 178.625 241.027344 C 178.085938 240.738281 177.566406 240.425781 177.058594 240.089844 C 176.550781 239.75 176.0625 239.386719 175.589844 239 C 175.117188 238.613281 174.667969 238.203125 174.238281 237.773438 C 173.804688 237.34375 173.398438 236.890625 173.011719 236.417969 C 172.625 235.949219 172.261719 235.460938 171.921875 234.953125 C 171.582031 234.445312 171.269531 233.921875 170.984375 233.382812 C 170.695312 232.847656 170.4375 232.296875 170.203125 231.734375 C 169.972656 231.167969 169.765625 230.597656 169.589844 230.011719 C 169.414062 229.429688 169.265625 228.835938 169.148438 228.238281 C 169.03125 227.640625 168.941406 227.039062 168.882812 226.433594 C 168.824219 225.824219 168.792969 225.21875 168.792969 224.609375 C 168.796875 223.996094 168.824219 223.390625 168.886719 222.78125 C 168.949219 222.175781 169.039062 221.574219 169.15625 220.976562 C 169.277344 220.378906 169.425781 219.789062 169.605469 219.203125 C 169.78125 218.621094 169.988281 218.050781 170.222656 217.484375 C 170.457031 216.921875 170.71875 216.375 171.007812 215.835938 C 171.296875 215.300781 171.609375 214.777344 171.949219 214.273438 C 172.289062 213.765625 172.65625 213.277344 173.042969 212.808594 C 173.429688 212.335938 173.839844 211.886719 174.273438 211.457031 C 174.703125 211.027344 175.15625 210.617188 175.628906 210.234375 C 176.101562 209.847656 176.59375 209.488281 177.101562 209.148438 C 177.609375 208.8125 178.132812 208.5 178.671875 208.214844 C 179.207031 207.929688 179.761719 207.671875 180.324219 207.4375 C 180.886719 207.207031 181.460938 207.003906 182.046875 206.828125 C 182.628906 206.65625 183.222656 206.507812 183.820312 206.390625 C 184.417969 206.273438 185.019531 206.1875 185.628906 206.128906 C 186.234375 206.074219 186.84375 206.046875 187.453125 206.046875 C 188.0625 206.050781 188.671875 206.082031 189.277344 206.144531 C 189.882812 206.207031 190.484375 206.296875 191.082031 206.421875 C 191.679688 206.542969 192.269531 206.691406 192.851562 206.871094 C 193.4375 207.050781 194.007812 207.257812 194.570312 207.496094 C 195.132812 207.730469 195.683594 207.992188 196.21875 208.285156 C 196.753906 208.574219 197.273438 208.890625 197.78125 209.230469 C 198.285156 209.570312 198.773438 209.9375 199.242188 210.324219 C 199.710938 210.714844 200.160156 211.125 200.589844 211.558594 C 201.019531 211.992188 201.425781 212.445312 201.808594 212.917969 C 202.195312 213.394531 202.554688 213.882812 202.890625 214.394531 C 203.226562 214.902344 203.535156 215.425781 203.820312 215.964844 C 204.105469 216.503906 204.363281 217.054688 204.589844 217.621094 C 204.820312 218.1875 205.023438 218.761719 205.195312 219.34375 C 205.371094 219.929688 205.515625 220.519531 205.628906 221.121094 C 205.746094 221.71875 205.832031 222.320312 205.886719 222.929688 C 205.941406 223.535156 205.96875 224.144531 205.964844 224.753906 C 205.960938 225.359375 205.929688 225.964844 205.867188 226.566406 C 205.804688 227.167969 205.714844 227.769531 205.59375 228.363281 C 205.472656 228.957031 205.320312 229.542969 205.144531 230.121094 C 204.964844 230.699219 204.757812 231.269531 204.527344 231.828125 C 204.292969 232.386719 204.03125 232.933594 203.742188 233.46875 C 203.457031 234 203.144531 234.519531 202.804688 235.019531 C 202.464844 235.523438 202.105469 236.007812 201.71875 236.476562 C 201.332031 236.945312 200.925781 237.390625 200.496094 237.816406 C 200.066406 238.246094 199.617188 238.652344 199.148438 239.035156 C 198.675781 239.417969 198.191406 239.777344 197.6875 240.113281 C 197.179688 240.449219 196.660156 240.757812 196.125 241.042969 C 195.59375 241.328125 195.042969 241.585938 194.484375 241.816406 C 193.925781 242.046875 193.355469 242.25 192.773438 242.425781 C 192.195312 242.601562 191.605469 242.746094 191.011719 242.863281 C 190.417969 242.984375 189.820312 243.070312 189.214844 243.128906 C 188.613281 243.1875 188.007812 243.21875 187.402344 243.21875 Z M 187.402344 243.21875 " fill-opacity="1" fill-rule="nonzero"/></g><path fill="#000000" d="M 203.015625 166.261719 C 202.007812 165.210938 200.902344 164.273438 199.699219 163.449219 C 198.5 162.625 197.230469 161.929688 195.886719 161.367188 C 194.542969 160.800781 193.160156 160.375 191.730469 160.09375 C 190.300781 159.808594 188.859375 159.675781 187.402344 159.6875 C 185.941406 159.671875 184.492188 159.804688 183.0625 160.085938 C 181.628906 160.367188 180.238281 160.792969 178.890625 161.355469 C 177.542969 161.921875 176.265625 162.617188 175.0625 163.445312 C 173.855469 164.269531 172.746094 165.207031 171.734375 166.261719 L 176.417969 171.085938 C 177.875 169.628906 179.554688 168.511719 181.457031 167.726562 C 183.359375 166.941406 185.34375 166.554688 187.402344 166.5625 C 189.453125 166.5625 191.429688 166.953125 193.328125 167.738281 C 195.226562 168.523438 196.902344 169.636719 198.355469 171.085938 Z M 203.015625 166.261719 " fill-opacity="1" fill-rule="nonzero"/><path fill="#000000" d="M 185.238281 180.140625 C 185.53125 179.878906 185.859375 179.675781 186.230469 179.535156 C 186.597656 179.394531 186.976562 179.324219 187.371094 179.324219 C 187.765625 179.324219 188.148438 179.394531 188.515625 179.535156 C 188.882812 179.675781 189.210938 179.878906 189.503906 180.140625 L 194.148438 175.300781 C 193.699219 174.863281 193.214844 174.46875 192.6875 174.125 C 192.164062 173.78125 191.609375 173.492188 191.027344 173.253906 C 190.445312 173.015625 189.847656 172.839844 189.230469 172.71875 C 188.613281 172.597656 187.992188 172.535156 187.363281 172.535156 C 186.734375 172.535156 186.113281 172.597656 185.496094 172.71875 C 184.882812 172.839844 184.28125 173.015625 183.699219 173.253906 C 183.117188 173.492188 182.566406 173.78125 182.039062 174.125 C 181.515625 174.46875 181.027344 174.863281 180.578125 175.300781 Z M 185.238281 180.140625 " fill-opacity="1" fill-rule="nonzero"/><path fill="#000000" d="M 213.308594 156.148438 C 212.460938 155.300781 211.570312 154.492188 210.644531 153.730469 C 209.714844 152.964844 208.753906 152.25 207.753906 151.582031 C 206.757812 150.914062 205.726562 150.296875 204.667969 149.726562 C 203.609375 149.160156 202.527344 148.648438 201.414062 148.1875 C 200.304688 147.726562 199.175781 147.320312 198.027344 146.972656 C 196.878906 146.621094 195.714844 146.332031 194.535156 146.09375 C 193.355469 145.859375 192.171875 145.683594 190.976562 145.566406 C 189.777344 145.449219 188.582031 145.390625 187.378906 145.390625 C 186.179688 145.390625 184.980469 145.449219 183.785156 145.566406 C 182.589844 145.683594 181.402344 145.859375 180.222656 146.09375 C 179.042969 146.332031 177.882812 146.621094 176.730469 146.972656 C 175.582031 147.320312 174.453125 147.726562 173.34375 148.1875 C 172.234375 148.648438 171.148438 149.160156 170.089844 149.726562 C 169.03125 150.296875 168.003906 150.914062 167.003906 151.582031 C 166.003906 152.25 165.042969 152.964844 164.113281 153.730469 C 163.1875 154.492188 162.296875 155.300781 161.449219 156.148438 L 166.125 160.878906 C 166.824219 160.1875 167.554688 159.53125 168.316406 158.910156 C 169.082031 158.289062 169.871094 157.707031 170.691406 157.164062 C 171.511719 156.621094 172.355469 156.117188 173.226562 155.65625 C 174.09375 155.199219 174.984375 154.78125 175.890625 154.40625 C 176.800781 154.03125 177.726562 153.703125 178.667969 153.417969 C 179.609375 153.136719 180.5625 152.898438 181.527344 152.707031 C 182.492188 152.519531 183.464844 152.375 184.445312 152.277344 C 185.421875 152.183594 186.402344 152.136719 187.386719 152.136719 C 188.371094 152.136719 189.351562 152.183594 190.328125 152.277344 C 191.308594 152.375 192.28125 152.519531 193.246094 152.707031 C 194.210938 152.898438 195.164062 153.136719 196.105469 153.417969 C 197.046875 153.703125 197.972656 154.03125 198.882812 154.40625 C 199.789062 154.78125 200.679688 155.199219 201.546875 155.65625 C 202.417969 156.117188 203.261719 156.621094 204.082031 157.164062 C 204.902344 157.707031 205.691406 158.289062 206.457031 158.910156 C 207.21875 159.53125 207.949219 160.1875 208.648438 160.878906 Z M 213.308594 156.148438 " fill-opacity="1" fill-rule="nonzero"/><path fill="#000000" d="M 150.910156 145.59375 L 155.902344 150.414062 C 156.9375 149.386719 158.019531 148.414062 159.148438 147.496094 C 160.277344 146.574219 161.449219 145.714844 162.664062 144.910156 C 163.878906 144.101562 165.128906 143.359375 166.414062 142.675781 C 167.699219 141.992188 169.019531 141.375 170.363281 140.820312 C 171.710938 140.265625 173.082031 139.777344 174.476562 139.359375 C 175.871094 138.9375 177.285156 138.585938 178.714844 138.304688 C 180.140625 138.019531 181.582031 137.808594 183.03125 137.667969 C 184.480469 137.523438 185.933594 137.453125 187.390625 137.453125 C 188.847656 137.453125 190.300781 137.523438 191.75 137.667969 C 193.199219 137.808594 194.640625 138.019531 196.066406 138.304688 C 197.496094 138.585938 198.910156 138.9375 200.304688 139.359375 C 201.699219 139.777344 203.070312 140.265625 204.417969 140.820312 C 205.761719 141.375 207.082031 141.992188 208.367188 142.675781 C 209.652344 143.359375 210.902344 144.101562 212.117188 144.910156 C 213.332031 145.714844 214.503906 146.574219 215.632812 147.496094 C 216.761719 148.414062 217.84375 149.386719 218.878906 150.414062 L 223.863281 145.59375 C 222.667969 144.40625 221.414062 143.277344 220.105469 142.210938 C 218.796875 141.144531 217.441406 140.144531 216.035156 139.207031 C 214.628906 138.273438 213.179688 137.410156 211.691406 136.621094 C 210.199219 135.828125 208.675781 135.109375 207.113281 134.464844 C 205.554688 133.824219 203.964844 133.257812 202.347656 132.769531 C 200.734375 132.28125 199.097656 131.875 197.441406 131.546875 C 195.785156 131.21875 194.117188 130.972656 192.4375 130.808594 C 190.757812 130.640625 189.074219 130.558594 187.386719 130.558594 C 185.699219 130.558594 184.015625 130.640625 182.335938 130.808594 C 180.65625 130.972656 178.988281 131.21875 177.332031 131.546875 C 175.675781 131.875 174.039062 132.28125 172.425781 132.769531 C 170.808594 133.257812 169.21875 133.824219 167.660156 134.464844 C 166.097656 135.109375 164.574219 135.828125 163.082031 136.621094 C 161.59375 137.410156 160.144531 138.273438 158.738281 139.207031 C 157.332031 140.144531 155.976562 141.144531 154.667969 142.210938 C 153.359375 143.277344 152.109375 144.40625 150.910156 145.59375 Z M 150.910156 145.59375 " fill-opacity="1" fill-rule="nonzero"/><path fill="#ffffff" d="M 56.089844 117.324219 C 54.699219 119.890625 53.363281 122.671875 52.132812 125.128906 C 52.007812 125.398438 51.902344 125.671875 51.8125 125.953125 C 51.726562 126.230469 51.652344 126.515625 51.601562 126.804688 C 51.546875 127.09375 51.511719 127.386719 51.496094 127.679688 C 51.480469 127.972656 51.480469 128.265625 51.503906 128.5625 C 51.523438 128.855469 51.5625 129.144531 51.621094 129.433594 C 51.675781 129.722656 51.75 130.003906 51.84375 130.285156 C 51.9375 130.5625 52.046875 130.835938 52.175781 131.101562 C 52.300781 131.367188 52.445312 131.621094 52.605469 131.871094 C 52.765625 132.117188 52.9375 132.351562 53.128906 132.578125 C 53.316406 132.804688 53.519531 133.015625 53.734375 133.214844 C 53.949219 133.414062 54.179688 133.601562 54.417969 133.773438 C 54.65625 133.941406 54.90625 134.097656 55.164062 134.238281 C 55.425781 134.378906 55.691406 134.5 55.964844 134.605469 C 56.238281 134.710938 56.519531 134.800781 56.804688 134.871094 C 57.089844 134.941406 57.378906 134.996094 57.671875 135.027344 C 57.964844 135.0625 58.257812 135.078125 58.550781 135.078125 L 170 135.078125 C 170.460938 135.078125 170.921875 135.03125 171.375 134.941406 C 171.828125 134.851562 172.269531 134.71875 172.699219 134.539062 C 173.128906 134.363281 173.535156 134.144531 173.921875 133.886719 C 174.304688 133.628906 174.660156 133.335938 174.988281 133.007812 C 175.316406 132.683594 175.609375 132.324219 175.867188 131.941406 C 176.125 131.554688 176.34375 131.148438 176.519531 130.71875 C 176.699219 130.292969 176.832031 129.851562 176.921875 129.394531 C 177.011719 128.941406 177.058594 128.480469 177.058594 128.019531 L 177.058594 120.746094 C 177.058594 120.28125 177.011719 119.824219 176.921875 119.367188 C 176.832031 118.914062 176.699219 118.472656 176.519531 118.042969 C 176.34375 117.617188 176.125 117.207031 175.867188 116.824219 C 175.609375 116.4375 175.316406 116.082031 174.988281 115.753906 C 174.660156 115.425781 174.304688 115.132812 173.921875 114.875 C 173.535156 114.617188 173.128906 114.402344 172.699219 114.222656 C 172.269531 114.046875 171.828125 113.914062 171.375 113.820312 C 170.921875 113.730469 170.460938 113.6875 170 113.6875 L 62.242188 113.6875 C 61.609375 113.683594 60.992188 113.761719 60.386719 113.925781 C 59.777344 114.089844 59.203125 114.332031 58.664062 114.652344 C 58.121094 114.972656 57.632812 115.359375 57.195312 115.8125 C 56.757812 116.265625 56.390625 116.769531 56.089844 117.324219 Z M 56.089844 117.324219 " fill-opacity="1" fill-rule="nonzero"/><g clip-path="url(#79a9395e0d)"><path fill="#ffffff" d="M 177.058594 44.59375 C 177.058594 44.25 177.023438 43.914062 176.957031 43.582031 C 176.886719 43.246094 176.785156 42.925781 176.648438 42.613281 C 176.507812 42.300781 176.339844 42.003906 176.144531 41.730469 C 175.945312 41.453125 175.71875 41.199219 175.464844 40.96875 C 175.214844 40.738281 174.941406 40.539062 174.648438 40.367188 C 174.351562 40.195312 174.042969 40.054688 173.71875 39.949219 C 173.394531 39.839844 173.066406 39.769531 172.726562 39.730469 C 172.386719 39.695312 172.046875 39.691406 171.710938 39.726562 C 158.082031 41.15625 144.910156 44.417969 132.1875 49.511719 L 172.136719 49.511719 C 172.460938 49.511719 172.78125 49.480469 173.097656 49.417969 C 173.414062 49.355469 173.722656 49.261719 174.019531 49.136719 C 174.320312 49.015625 174.601562 48.863281 174.871094 48.683594 C 175.140625 48.503906 175.386719 48.300781 175.617188 48.070312 C 175.84375 47.84375 176.046875 47.59375 176.226562 47.324219 C 176.40625 47.058594 176.558594 46.773438 176.683594 46.476562 C 176.804688 46.175781 176.898438 45.871094 176.960938 45.550781 C 177.027344 45.234375 177.058594 44.914062 177.058594 44.59375 Z M 177.058594 44.59375 " fill-opacity="1" fill-rule="nonzero"/></g><path fill="#ffffff" d="M 177.058594 291.875 C 177.058594 291.410156 177.011719 290.953125 176.921875 290.496094 C 176.832031 290.042969 176.699219 289.601562 176.519531 289.171875 C 176.34375 288.746094 176.125 288.335938 175.867188 287.953125 C 175.609375 287.566406 175.316406 287.210938 174.988281 286.882812 C 174.660156 286.554688 174.304688 286.261719 173.921875 286.003906 C 173.535156 285.746094 173.128906 285.53125 172.699219 285.351562 C 172.269531 285.175781 171.828125 285.042969 171.375 284.949219 C 170.921875 284.859375 170.460938 284.816406 170 284.816406 L 89.355469 284.816406 C 88.644531 284.816406 87.953125 284.925781 87.273438 285.136719 C 86.597656 285.347656 85.96875 285.65625 85.382812 286.054688 C 84.800781 286.457031 84.289062 286.9375 83.847656 287.492188 C 83.40625 288.046875 83.058594 288.65625 82.800781 289.316406 C 82.546875 289.976562 82.390625 290.660156 82.339844 291.367188 C 82.289062 292.074219 82.34375 292.773438 82.503906 293.464844 C 82.664062 294.15625 82.921875 294.808594 83.277344 295.421875 C 83.632812 296.035156 84.074219 296.582031 84.59375 297.0625 C 86.152344 298.527344 87.835938 299.832031 89.644531 300.980469 C 91.453125 302.125 93.355469 303.089844 95.347656 303.871094 C 97.339844 304.652344 99.386719 305.242188 101.492188 305.636719 C 103.59375 306.027344 105.714844 306.21875 107.855469 306.207031 L 170.050781 306.207031 C 170.515625 306.207031 170.972656 306.160156 171.425781 306.070312 C 171.878906 305.980469 172.316406 305.84375 172.746094 305.667969 C 173.171875 305.488281 173.578125 305.273438 173.960938 305.015625 C 174.34375 304.757812 174.699219 304.464844 175.023438 304.136719 C 175.351562 303.808594 175.640625 303.449219 175.894531 303.066406 C 176.148438 302.679688 176.363281 302.273438 176.539062 301.84375 C 176.714844 301.417969 176.84375 300.976562 176.933594 300.519531 C 177.019531 300.066406 177.0625 299.609375 177.058594 299.148438 Z M 177.058594 291.875 " fill-opacity="1" fill-rule="nonzero"/><path fill="#ffffff" d="M 84.808594 79.835938 C 84.253906 80.300781 83.78125 80.839844 83.394531 81.449219 C 83.007812 82.0625 82.71875 82.714844 82.53125 83.417969 C 82.347656 84.117188 82.269531 84.828125 82.300781 85.550781 C 82.332031 86.273438 82.472656 86.976562 82.722656 87.65625 C 82.96875 88.335938 83.3125 88.960938 83.753906 89.535156 C 84.195312 90.109375 84.714844 90.605469 85.304688 91.019531 C 85.898438 91.433594 86.542969 91.75 87.230469 91.96875 C 87.921875 92.1875 88.628906 92.296875 89.355469 92.296875 L 170.050781 92.296875 C 170.515625 92.296875 170.972656 92.25 171.425781 92.160156 C 171.878906 92.070312 172.316406 91.933594 172.746094 91.757812 C 173.171875 91.578125 173.578125 91.359375 173.960938 91.101562 C 174.34375 90.84375 174.699219 90.550781 175.023438 90.222656 C 175.351562 89.894531 175.640625 89.539062 175.894531 89.152344 C 176.148438 88.769531 176.363281 88.359375 176.539062 87.933594 C 176.714844 87.503906 176.84375 87.0625 176.933594 86.609375 C 177.019531 86.15625 177.0625 85.699219 177.058594 85.234375 L 177.058594 77.960938 C 177.058594 77.5 177.011719 77.039062 176.921875 76.585938 C 176.832031 76.132812 176.699219 75.691406 176.519531 75.261719 C 176.34375 74.832031 176.125 74.425781 175.867188 74.042969 C 175.609375 73.65625 175.316406 73.300781 174.988281 72.972656 C 174.660156 72.644531 174.304688 72.351562 173.921875 72.09375 C 173.535156 71.835938 173.128906 71.617188 172.699219 71.441406 C 172.269531 71.265625 171.828125 71.128906 171.375 71.039062 C 170.921875 70.949219 170.460938 70.902344 170 70.902344 L 107.855469 70.902344 C 105.742188 70.890625 103.644531 71.078125 101.5625 71.457031 C 99.484375 71.839844 97.457031 72.414062 95.484375 73.179688 C 93.511719 73.941406 91.628906 74.886719 89.832031 76.003906 C 88.039062 77.125 86.363281 78.398438 84.808594 79.835938 Z M 84.808594 79.835938 " fill-opacity="1" fill-rule="nonzero"/><g clip-path="url(#de2a505404)"><path fill="#ffffff" d="M 40.367188 162.136719 C 39.941406 164.703125 39.511719 167.484375 39.246094 169.835938 C 39.175781 170.335938 39.160156 170.835938 39.199219 171.335938 C 39.238281 171.835938 39.328125 172.328125 39.472656 172.808594 C 39.613281 173.292969 39.804688 173.753906 40.046875 174.191406 C 40.289062 174.632812 40.574219 175.042969 40.902344 175.421875 C 41.234375 175.804688 41.597656 176.144531 42 176.445312 C 42.402344 176.746094 42.832031 177.003906 43.289062 177.214844 C 43.742188 177.421875 44.21875 177.582031 44.707031 177.691406 C 45.199219 177.800781 45.695312 177.855469 46.195312 177.859375 L 170 177.859375 C 170.460938 177.859375 170.921875 177.8125 171.375 177.722656 C 171.828125 177.632812 172.269531 177.5 172.699219 177.320312 C 173.128906 177.144531 173.535156 176.925781 173.921875 176.667969 C 174.304688 176.414062 174.660156 176.121094 174.988281 175.792969 C 175.316406 175.464844 175.609375 175.109375 175.867188 174.722656 C 176.125 174.335938 176.34375 173.929688 176.519531 173.5 C 176.699219 173.074219 176.832031 172.632812 176.921875 172.175781 C 177.011719 171.722656 177.058594 171.265625 177.058594 170.800781 L 177.058594 163.527344 C 177.058594 163.0625 177.011719 162.605469 176.921875 162.148438 C 176.832031 161.695312 176.699219 161.253906 176.519531 160.824219 C 176.34375 160.398438 176.125 159.992188 175.867188 159.605469 C 175.609375 159.21875 175.316406 158.863281 174.988281 158.535156 C 174.660156 158.207031 174.304688 157.914062 173.921875 157.65625 C 173.535156 157.402344 173.128906 157.183594 172.699219 157.003906 C 172.269531 156.828125 171.828125 156.695312 171.375 156.605469 C 170.921875 156.511719 170.460938 156.46875 170 156.46875 L 47.320312 156.46875 C 46.914062 156.464844 46.507812 156.496094 46.109375 156.5625 C 45.707031 156.625 45.316406 156.726562 44.929688 156.859375 C 44.546875 156.996094 44.175781 157.160156 43.824219 157.359375 C 43.46875 157.558594 43.132812 157.785156 42.816406 158.042969 C 42.503906 158.300781 42.210938 158.582031 41.945312 158.890625 C 41.679688 159.199219 41.441406 159.527344 41.234375 159.875 C 41.023438 160.222656 40.847656 160.589844 40.703125 160.96875 C 40.558594 161.347656 40.445312 161.738281 40.367188 162.136719 Z M 40.367188 162.136719 " fill-opacity="1" fill-rule="nonzero"/></g><g clip-path="url(#6e95952ef9)"><path fill="#ffffff" d="M 132.1875 327.597656 C 144.910156 332.691406 158.082031 335.957031 171.710938 337.382812 C 172.050781 337.429688 172.390625 337.441406 172.730469 337.417969 C 173.074219 337.394531 173.410156 337.335938 173.738281 337.242188 C 174.066406 337.148438 174.382812 337.019531 174.6875 336.859375 C 174.988281 336.699219 175.273438 336.511719 175.535156 336.292969 C 175.800781 336.074219 176.039062 335.828125 176.25 335.558594 C 176.460938 335.289062 176.644531 335.003906 176.796875 334.695312 C 176.949219 334.386719 177.066406 334.070312 177.152344 333.738281 C 177.238281 333.40625 177.289062 333.066406 177.304688 332.726562 C 177.320312 332.382812 177.296875 332.042969 177.242188 331.707031 C 177.1875 331.367188 177.09375 331.039062 176.96875 330.71875 C 176.847656 330.398438 176.6875 330.097656 176.5 329.8125 C 176.3125 329.523438 176.097656 329.261719 175.855469 329.019531 C 175.609375 328.777344 175.347656 328.5625 175.058594 328.378906 C 174.769531 328.191406 174.464844 328.039062 174.144531 327.914062 C 173.824219 327.792969 173.496094 327.707031 173.160156 327.652344 C 172.820312 327.597656 172.480469 327.578125 172.136719 327.597656 Z M 132.1875 327.597656 " fill-opacity="1" fill-rule="nonzero"/></g><g clip-path="url(#d8f583f17c)"><path fill="#ffffff" d="M 213.636719 41.117188 C 213.175781 41.027344 212.710938 40.964844 212.246094 40.929688 C 211.777344 40.890625 211.3125 40.878906 210.84375 40.894531 C 210.375 40.90625 209.910156 40.949219 209.445312 41.011719 C 208.980469 41.078125 208.523438 41.167969 208.070312 41.285156 C 207.613281 41.402344 207.167969 41.542969 206.730469 41.707031 C 206.292969 41.871094 205.863281 42.058594 205.445312 42.269531 C 205.027344 42.484375 204.625 42.71875 204.230469 42.972656 C 203.839844 43.230469 203.464844 43.507812 203.101562 43.804688 C 202.742188 44.101562 202.394531 44.417969 202.070312 44.753906 C 201.742188 45.089844 201.4375 45.445312 201.148438 45.8125 C 200.859375 46.183594 200.59375 46.566406 200.347656 46.964844 C 200.101562 47.363281 199.878906 47.773438 199.679688 48.199219 C 199.476562 48.621094 199.300781 49.054688 199.148438 49.496094 C 198.996094 49.941406 198.867188 50.390625 198.765625 50.847656 C 198.660156 51.304688 198.582031 51.765625 198.53125 52.230469 C 198.476562 52.695312 198.449219 53.160156 198.449219 53.628906 L 198.449219 323.480469 C 198.449219 323.949219 198.476562 324.414062 198.53125 324.878906 C 198.582031 325.34375 198.660156 325.808594 198.765625 326.261719 C 198.867188 326.71875 198.996094 327.171875 199.148438 327.613281 C 199.300781 328.054688 199.476562 328.488281 199.679688 328.910156 C 199.878906 329.335938 200.101562 329.746094 200.347656 330.144531 C 200.59375 330.542969 200.859375 330.925781 201.148438 331.296875 C 201.4375 331.667969 201.742188 332.019531 202.070312 332.355469 C 202.394531 332.691406 202.742188 333.007812 203.101562 333.304688 C 203.464844 333.601562 203.839844 333.878906 204.230469 334.136719 C 204.625 334.394531 205.027344 334.625 205.445312 334.839844 C 205.863281 335.050781 206.292969 335.238281 206.730469 335.402344 C 207.167969 335.570312 207.613281 335.710938 208.070312 335.824219 C 208.523438 335.941406 208.980469 336.03125 209.445312 336.097656 C 209.910156 336.164062 210.375 336.203125 210.84375 336.214844 C 211.3125 336.230469 211.777344 336.21875 212.246094 336.179688 C 212.710938 336.144531 213.175781 336.082031 213.636719 335.992188 C 215.78125 335.613281 217.914062 335.1875 220.039062 334.714844 C 222.164062 334.242188 224.277344 333.722656 226.378906 333.15625 C 228.480469 332.589844 230.570312 331.980469 232.644531 331.324219 C 234.71875 330.667969 236.78125 329.964844 238.824219 329.21875 C 240.871094 328.472656 242.898438 327.683594 244.90625 326.847656 C 246.917969 326.015625 248.910156 325.136719 250.882812 324.214844 C 252.851562 323.292969 254.804688 322.328125 256.734375 321.324219 C 258.664062 320.316406 260.570312 319.269531 262.457031 318.179688 C 264.339844 317.089844 266.199219 315.957031 268.035156 314.789062 C 269.871094 313.617188 271.679688 312.40625 273.460938 311.15625 C 275.242188 309.90625 276.996094 308.621094 278.722656 307.292969 C 280.449219 305.96875 282.144531 304.605469 283.8125 303.203125 C 285.480469 301.804688 287.113281 300.367188 288.71875 298.894531 C 290.324219 297.425781 291.894531 295.917969 293.433594 294.378906 C 294.96875 292.839844 296.472656 291.265625 297.945312 289.660156 C 299.414062 288.054688 300.847656 286.417969 302.246094 284.75 C 303.644531 283.082031 305.007812 281.382812 306.332031 279.65625 C 307.65625 277.929688 308.941406 276.175781 310.1875 274.390625 C 311.4375 272.605469 312.644531 270.796875 313.8125 268.960938 C 314.980469 267.125 316.109375 265.261719 317.199219 263.378906 C 318.285156 261.492188 319.332031 259.585938 320.335938 257.652344 C 321.339844 255.722656 322.304688 253.769531 323.222656 251.796875 C 324.140625 249.824219 325.015625 247.832031 325.851562 245.820312 C 326.683594 243.808594 327.46875 241.78125 328.214844 239.734375 C 328.957031 237.691406 329.65625 235.628906 330.3125 233.550781 C 330.964844 231.476562 331.574219 229.386719 332.136719 227.285156 C 332.699219 225.183594 333.21875 223.066406 333.6875 220.941406 C 334.160156 218.816406 334.582031 216.683594 334.960938 214.539062 C 335.339844 212.394531 335.667969 210.246094 335.953125 208.085938 C 336.238281 205.929688 336.472656 203.765625 336.664062 201.597656 C 336.851562 199.429688 336.996094 197.257812 337.089844 195.082031 C 337.183594 192.90625 337.234375 190.730469 337.234375 188.554688 C 337.234375 186.378906 337.183594 184.203125 337.089844 182.027344 C 336.996094 179.851562 336.851562 177.683594 336.664062 175.511719 C 336.472656 173.34375 336.238281 171.179688 335.953125 169.023438 C 335.667969 166.867188 335.339844 164.714844 334.960938 162.570312 C 334.582031 160.425781 334.160156 158.292969 333.6875 156.167969 C 333.21875 154.042969 332.699219 151.929688 332.136719 149.824219 C 331.574219 147.722656 330.964844 145.632812 330.3125 143.558594 C 329.65625 141.480469 328.957031 139.421875 328.214844 137.375 C 327.46875 135.328125 326.683594 133.300781 325.851562 131.289062 C 325.015625 129.277344 324.140625 127.285156 323.222656 125.3125 C 322.304688 123.339844 321.339844 121.386719 320.335938 119.457031 C 319.332031 117.527344 318.285156 115.617188 317.199219 113.730469 C 316.109375 111.847656 314.980469 109.984375 313.8125 108.148438 C 312.644531 106.3125 311.4375 104.503906 310.1875 102.71875 C 308.941406 100.9375 307.65625 99.179688 306.332031 97.453125 C 305.007812 95.726562 303.644531 94.027344 302.246094 92.359375 C 300.847656 90.691406 299.414062 89.054688 297.945312 87.449219 C 296.472656 85.84375 294.96875 84.269531 293.433594 82.730469 C 291.894531 81.191406 290.324219 79.683594 288.71875 78.214844 C 287.113281 76.742188 285.480469 75.304688 283.8125 73.90625 C 282.144531 72.507812 280.449219 71.144531 278.722656 69.816406 C 276.996094 68.492188 275.242188 67.203125 273.460938 65.953125 C 271.679688 64.703125 269.871094 63.492188 268.035156 62.320312 C 266.199219 61.152344 264.339844 60.019531 262.457031 58.929688 C 260.570312 57.839844 258.664062 56.792969 256.734375 55.785156 C 254.804688 54.78125 252.851562 53.816406 250.882812 52.894531 C 248.910156 51.972656 246.917969 51.09375 244.90625 50.261719 C 242.898438 49.425781 240.871094 48.636719 238.824219 47.890625 C 236.78125 47.144531 234.71875 46.441406 232.644531 45.785156 C 230.570312 45.128906 228.480469 44.519531 226.378906 43.953125 C 224.277344 43.386719 222.164062 42.871094 220.039062 42.394531 C 217.914062 41.921875 215.78125 41.496094 213.636719 41.117188 Z M 213.636719 41.117188 " fill-opacity="1" fill-rule="nonzero"/></g><path fill="#ffffff" d="M 177.058594 249.09375 C 177.058594 248.628906 177.011719 248.167969 176.921875 247.714844 C 176.832031 247.261719 176.699219 246.820312 176.519531 246.390625 C 176.34375 245.960938 176.125 245.554688 175.867188 245.171875 C 175.609375 244.785156 175.316406 244.429688 174.988281 244.101562 C 174.660156 243.773438 174.304688 243.480469 173.921875 243.222656 C 173.535156 242.964844 173.128906 242.746094 172.699219 242.570312 C 172.269531 242.394531 171.828125 242.257812 171.375 242.167969 C 170.921875 242.078125 170.460938 242.03125 170 242.03125 L 58.550781 242.03125 C 58.257812 242.03125 57.964844 242.046875 57.671875 242.082031 C 57.378906 242.113281 57.089844 242.167969 56.804688 242.238281 C 56.519531 242.308594 56.238281 242.398438 55.964844 242.503906 C 55.691406 242.609375 55.425781 242.734375 55.164062 242.871094 C 54.90625 243.011719 54.65625 243.167969 54.417969 243.339844 C 54.179688 243.507812 53.949219 243.695312 53.734375 243.894531 C 53.519531 244.09375 53.316406 244.304688 53.128906 244.53125 C 52.9375 244.757812 52.765625 244.992188 52.605469 245.242188 C 52.445312 245.488281 52.300781 245.742188 52.175781 246.007812 C 52.046875 246.273438 51.9375 246.546875 51.84375 246.824219 C 51.75 247.105469 51.675781 247.386719 51.621094 247.675781 C 51.5625 247.964844 51.523438 248.257812 51.503906 248.550781 C 51.480469 248.84375 51.480469 249.136719 51.496094 249.429688 C 51.511719 249.722656 51.546875 250.015625 51.601562 250.304688 C 51.652344 250.59375 51.726562 250.878906 51.8125 251.160156 C 51.902344 251.4375 52.007812 251.710938 52.132812 251.980469 C 53.363281 254.652344 54.699219 257.328125 56.089844 259.789062 C 56.390625 260.339844 56.757812 260.84375 57.195312 261.296875 C 57.632812 261.75 58.121094 262.136719 58.664062 262.457031 C 59.203125 262.777344 59.777344 263.019531 60.386719 263.183594 C 60.992188 263.347656 61.609375 263.425781 62.242188 263.425781 L 170 263.425781 C 170.460938 263.425781 170.921875 263.378906 171.375 263.289062 C 171.828125 263.199219 172.269531 263.0625 172.699219 262.886719 C 173.128906 262.710938 173.535156 262.492188 173.921875 262.234375 C 174.304688 261.976562 174.660156 261.683594 174.988281 261.355469 C 175.316406 261.027344 175.609375 260.671875 175.867188 260.285156 C 176.125 259.902344 176.34375 259.496094 176.519531 259.066406 C 176.699219 258.636719 176.832031 258.195312 176.921875 257.742188 C 177.011719 257.289062 177.058594 256.828125 177.058594 256.363281 Z M 177.058594 249.09375 " fill-opacity="1" fill-rule="nonzero"/><g clip-path="url(#7d1024fad3)"><path fill="#ffffff" d="M 39.246094 207.273438 C 39.246094 209.839844 39.941406 212.621094 40.367188 214.972656 C 40.445312 215.371094 40.558594 215.761719 40.703125 216.140625 C 40.847656 216.519531 41.023438 216.886719 41.234375 217.234375 C 41.441406 217.582031 41.679688 217.910156 41.945312 218.21875 C 42.210938 218.527344 42.503906 218.808594 42.816406 219.066406 C 43.132812 219.324219 43.46875 219.550781 43.824219 219.75 C 44.175781 219.949219 44.546875 220.113281 44.929688 220.25 C 45.316406 220.382812 45.707031 220.484375 46.109375 220.550781 C 46.507812 220.617188 46.914062 220.644531 47.320312 220.640625 L 170 220.640625 C 170.460938 220.640625 170.921875 220.597656 171.375 220.507812 C 171.828125 220.414062 172.269531 220.28125 172.699219 220.105469 C 173.128906 219.925781 173.535156 219.710938 173.921875 219.453125 C 174.304688 219.195312 174.660156 218.902344 174.988281 218.574219 C 175.316406 218.246094 175.609375 217.890625 175.867188 217.503906 C 176.125 217.117188 176.34375 216.710938 176.519531 216.285156 C 176.699219 215.855469 176.832031 215.414062 176.921875 214.960938 C 177.011719 214.503906 177.058594 214.046875 177.058594 213.582031 L 177.058594 206.308594 C 177.058594 205.847656 177.011719 205.386719 176.921875 204.933594 C 176.832031 204.476562 176.699219 204.035156 176.519531 203.609375 C 176.34375 203.179688 176.125 202.773438 175.867188 202.386719 C 175.609375 202.003906 175.316406 201.644531 174.988281 201.316406 C 174.660156 200.992188 174.304688 200.699219 173.921875 200.441406 C 173.535156 200.183594 173.128906 199.964844 172.699219 199.789062 C 172.269531 199.609375 171.828125 199.476562 171.375 199.386719 C 170.921875 199.296875 170.460938 199.25 170 199.25 L 46.195312 199.25 C 45.695312 199.253906 45.199219 199.308594 44.707031 199.417969 C 44.21875 199.527344 43.742188 199.6875 43.289062 199.898438 C 42.832031 200.105469 42.402344 200.363281 42 200.664062 C 41.597656 200.964844 41.234375 201.308594 40.902344 201.6875 C 40.574219 202.066406 40.289062 202.476562 40.046875 202.917969 C 39.804688 203.355469 39.613281 203.820312 39.472656 204.300781 C 39.328125 204.78125 39.238281 205.273438 39.199219 205.773438 C 39.160156 206.273438 39.175781 206.773438 39.246094 207.273438 Z M 39.246094 207.273438 " fill-opacity="1" fill-rule="nonzero"/></g></svg>