<svg xmlns="http://www.w3.org/2000/svg" xmlns:xlink="http://www.w3.org/1999/xlink" width="500" zoomAndPan="magnify" viewBox="0 0 375 374.999991" height="500" preserveAspectRatio="xMidYMid meet" version="1.0"><defs><clipPath id="c79493ab5e"><path d="M 112.5 116.25 L 142 116.25 L 142 220 L 112.5 220 Z M 112.5 116.25 " clip-rule="nonzero"/></clipPath><clipPath id="cda30a6524"><path d="M 117 232 L 138 232 L 138 258.75 L 117 258.75 Z M 117 232 " clip-rule="nonzero"/></clipPath><clipPath id="304555a20f"><path d="M 232 116.25 L 262 116.25 L 262 220 L 232 220 Z M 232 116.25 " clip-rule="nonzero"/></clipPath><clipPath id="f5cbb22b33"><path d="M 237 232 L 258 232 L 258 258.75 L 237 258.75 Z M 237 232 " clip-rule="nonzero"/></clipPath><clipPath id="0185fdd1e4"><path d="M 153 190 L 222 190 L 222 258.75 L 153 258.75 Z M 153 190 " clip-rule="nonzero"/></clipPath><clipPath id="e5d0d68760"><path d="M 30.164062 30.164062 L 345 30.164062 L 345 345 L 30.164062 345 Z M 30.164062 30.164062 " clip-rule="nonzero"/></clipPath></defs><path fill="#000000" d="M 127.410156 139.75 C 127.066406 139.742188 126.734375 139.804688 126.417969 139.941406 C 126.097656 140.074219 125.824219 140.265625 125.589844 140.515625 C 125.351562 140.765625 125.179688 141.054688 125.066406 141.378906 C 124.953125 141.707031 124.914062 142.039062 124.941406 142.382812 C 124.925781 142.722656 124.972656 143.050781 125.089844 143.367188 C 125.207031 143.683594 125.382812 143.96875 125.613281 144.214844 C 125.847656 144.460938 126.117188 144.648438 126.429688 144.785156 C 126.742188 144.917969 127.066406 144.984375 127.40625 144.984375 C 127.742188 144.984375 128.070312 144.917969 128.378906 144.785156 C 128.691406 144.648438 128.964844 144.460938 129.195312 144.214844 C 129.429688 143.96875 129.601562 143.683594 129.71875 143.367188 C 129.835938 143.050781 129.886719 142.722656 129.867188 142.382812 C 129.894531 142.039062 129.855469 141.707031 129.742188 141.382812 C 129.628906 141.058594 129.457031 140.773438 129.222656 140.519531 C 128.988281 140.269531 128.710938 140.078125 128.398438 139.945312 C 128.082031 139.808594 127.75 139.746094 127.410156 139.75 Z M 127.410156 139.75 " fill-opacity="1" fill-rule="nonzero"/><g clip-path="url(#c79493ab5e)"><path fill="#000000" d="M 112.601562 117.003906 L 113.0625 219.71875 L 141.710938 219.71875 L 141.710938 116.566406 Z M 127.410156 203.710938 C 126.800781 203.714844 126.199219 203.660156 125.601562 203.546875 C 125.003906 203.433594 124.425781 203.261719 123.859375 203.035156 C 123.296875 202.804688 122.761719 202.523438 122.253906 202.191406 C 121.746094 201.859375 121.277344 201.476562 120.84375 201.050781 C 120.410156 200.625 120.023438 200.160156 119.679688 199.65625 C 119.339844 199.15625 119.050781 198.625 118.8125 198.0625 C 118.574219 197.503906 118.394531 196.925781 118.273438 196.332031 C 118.148438 195.734375 118.085938 195.132812 118.082031 194.527344 C 118.097656 193.925781 118.171875 193.332031 118.304688 192.746094 C 118.4375 192.160156 118.625 191.589844 118.867188 191.039062 C 119.109375 190.488281 119.402344 189.96875 119.742188 189.472656 C 120.085938 188.980469 120.472656 188.523438 120.90625 188.105469 C 121.335938 187.683594 121.804688 187.3125 122.304688 186.984375 C 122.808594 186.652344 123.339844 186.375 123.898438 186.148438 C 124.453125 185.925781 125.027344 185.753906 125.617188 185.636719 C 126.207031 185.523438 126.804688 185.464844 127.40625 185.464844 C 128.007812 185.464844 128.601562 185.523438 129.191406 185.636719 C 129.78125 185.753906 130.355469 185.925781 130.914062 186.148438 C 131.46875 186.375 132 186.652344 132.503906 186.984375 C 133.007812 187.3125 133.472656 187.683594 133.90625 188.105469 C 134.335938 188.523438 134.722656 188.980469 135.066406 189.472656 C 135.410156 189.96875 135.703125 190.488281 135.945312 191.039062 C 136.183594 191.589844 136.371094 192.160156 136.503906 192.746094 C 136.636719 193.332031 136.710938 193.925781 136.726562 194.527344 C 136.722656 195.132812 136.660156 195.734375 136.535156 196.332031 C 136.414062 196.925781 136.234375 197.503906 135.996094 198.0625 C 135.761719 198.621094 135.472656 199.152344 135.132812 199.65625 C 134.789062 200.15625 134.402344 200.621094 133.96875 201.046875 C 133.539062 201.476562 133.066406 201.855469 132.558594 202.1875 C 132.050781 202.523438 131.515625 202.804688 130.953125 203.03125 C 130.390625 203.261719 129.8125 203.433594 129.214844 203.546875 C 128.617188 203.660156 128.015625 203.714844 127.410156 203.710938 Z M 127.410156 151.632812 C 126.796875 151.632812 126.191406 151.570312 125.59375 151.449219 C 124.996094 151.328125 124.414062 151.152344 123.851562 150.917969 C 123.289062 150.679688 122.753906 150.394531 122.246094 150.054688 C 121.738281 149.710938 121.269531 149.324219 120.839844 148.890625 C 120.410156 148.460938 120.023438 147.988281 119.6875 147.480469 C 119.347656 146.96875 119.0625 146.433594 118.832031 145.867188 C 118.601562 145.304688 118.425781 144.722656 118.308594 144.121094 C 118.191406 143.523438 118.132812 142.917969 118.136719 142.308594 C 118.136719 141.695312 118.199219 141.089844 118.320312 140.492188 C 118.441406 139.894531 118.621094 139.3125 118.855469 138.75 C 119.089844 138.1875 119.378906 137.652344 119.71875 137.144531 C 120.0625 136.636719 120.449219 136.171875 120.882812 135.738281 C 121.316406 135.308594 121.785156 134.925781 122.296875 134.589844 C 122.804688 134.25 123.34375 133.964844 123.90625 133.734375 C 124.472656 133.503906 125.054688 133.328125 125.652344 133.210938 C 126.253906 133.09375 126.859375 133.039062 127.46875 133.039062 C 128.078125 133.042969 128.683594 133.105469 129.28125 133.226562 C 129.882812 133.347656 130.460938 133.527344 131.027344 133.765625 C 131.589844 134 132.125 134.289062 132.628906 134.628906 C 133.136719 134.972656 133.605469 135.359375 134.035156 135.792969 C 134.464844 136.226562 134.847656 136.699219 135.183594 137.207031 C 135.523438 137.71875 135.804688 138.253906 136.035156 138.820312 C 136.269531 139.386719 136.441406 139.96875 136.558594 140.566406 C 136.675781 141.167969 136.730469 141.773438 136.726562 142.382812 C 136.71875 142.988281 136.648438 143.589844 136.523438 144.183594 C 136.394531 144.777344 136.210938 145.355469 135.972656 145.914062 C 135.734375 146.472656 135.445312 147.003906 135.105469 147.507812 C 134.765625 148.007812 134.378906 148.476562 133.945312 148.902344 C 133.515625 149.332031 133.046875 149.714844 132.542969 150.050781 C 132.039062 150.390625 131.503906 150.675781 130.945312 150.910156 C 130.386719 151.144531 129.808594 151.324219 129.210938 151.445312 C 128.617188 151.570312 128.015625 151.632812 127.410156 151.640625 Z M 127.410156 151.632812 " fill-opacity="1" fill-rule="nonzero"/></g><path fill="#000000" d="M 127.410156 191.910156 C 127.066406 191.914062 126.742188 191.980469 126.429688 192.117188 C 126.117188 192.253906 125.84375 192.445312 125.613281 192.691406 C 125.378906 192.941406 125.203125 193.226562 125.089844 193.542969 C 124.972656 193.863281 124.921875 194.195312 124.941406 194.535156 C 124.925781 194.871094 124.972656 195.199219 125.089844 195.519531 C 125.207031 195.835938 125.382812 196.121094 125.613281 196.367188 C 125.847656 196.613281 126.117188 196.800781 126.429688 196.933594 C 126.742188 197.070312 127.066406 197.136719 127.40625 197.136719 C 127.742188 197.136719 128.070312 197.070312 128.378906 196.933594 C 128.691406 196.800781 128.964844 196.613281 129.195312 196.367188 C 129.429688 196.121094 129.601562 195.835938 129.71875 195.519531 C 129.835938 195.199219 129.886719 194.871094 129.867188 194.535156 C 129.882812 194.195312 129.835938 193.867188 129.71875 193.546875 C 129.601562 193.230469 129.425781 192.949219 129.195312 192.699219 C 128.964844 192.453125 128.691406 192.261719 128.382812 192.125 C 128.074219 191.984375 127.746094 191.914062 127.410156 191.910156 Z M 127.410156 191.910156 " fill-opacity="1" fill-rule="nonzero"/><g clip-path="url(#cda30a6524)"><path fill="#000000" d="M 130.816406 232.136719 L 123.964844 232.136719 L 123.964844 252.152344 L 117.042969 252.152344 L 117.042969 258.691406 L 137.738281 258.691406 L 137.738281 252.152344 L 130.816406 252.152344 Z M 130.816406 232.136719 " fill-opacity="1" fill-rule="nonzero"/></g><path fill="#000000" d="M 247.386719 191.910156 C 247.046875 191.914062 246.722656 191.984375 246.414062 192.121094 C 246.101562 192.257812 245.832031 192.449219 245.597656 192.699219 C 245.367188 192.945312 245.191406 193.230469 245.074219 193.546875 C 244.960938 193.867188 244.910156 194.195312 244.929688 194.535156 C 244.929688 194.859375 244.992188 195.175781 245.117188 195.476562 C 245.242188 195.777344 245.417969 196.042969 245.648438 196.273438 C 245.878906 196.503906 246.144531 196.679688 246.445312 196.804688 C 246.75 196.929688 247.0625 196.992188 247.386719 196.992188 C 247.714844 196.992188 248.027344 196.929688 248.328125 196.804688 C 248.628906 196.679688 248.894531 196.503906 249.125 196.273438 C 249.355469 196.042969 249.535156 195.777344 249.660156 195.476562 C 249.785156 195.175781 249.84375 194.859375 249.84375 194.535156 C 249.867188 194.195312 249.820312 193.867188 249.703125 193.546875 C 249.589844 193.226562 249.414062 192.941406 249.183594 192.691406 C 248.949219 192.445312 248.675781 192.253906 248.367188 192.117188 C 248.054688 191.980469 247.726562 191.914062 247.386719 191.910156 Z M 247.386719 191.910156 " fill-opacity="1" fill-rule="nonzero"/><path fill="#000000" d="M 247.386719 139.75 C 247.042969 139.746094 246.714844 139.808594 246.398438 139.945312 C 246.082031 140.078125 245.808594 140.269531 245.574219 140.519531 C 245.339844 140.773438 245.167969 141.058594 245.054688 141.382812 C 244.941406 141.707031 244.902344 142.039062 244.929688 142.382812 C 244.929688 142.707031 244.992188 143.023438 245.117188 143.324219 C 245.242188 143.625 245.417969 143.890625 245.648438 144.121094 C 245.878906 144.351562 246.144531 144.527344 246.445312 144.652344 C 246.75 144.777344 247.0625 144.839844 247.386719 144.839844 C 247.714844 144.839844 248.027344 144.777344 248.328125 144.652344 C 248.628906 144.527344 248.894531 144.351562 249.125 144.121094 C 249.355469 143.890625 249.535156 143.625 249.660156 143.324219 C 249.785156 143.023438 249.84375 142.707031 249.84375 142.382812 C 249.875 142.039062 249.835938 141.707031 249.726562 141.382812 C 249.613281 141.054688 249.441406 140.765625 249.207031 140.515625 C 248.972656 140.265625 248.695312 140.074219 248.378906 139.9375 C 248.0625 139.804688 247.730469 139.742188 247.386719 139.75 Z M 247.386719 139.75 " fill-opacity="1" fill-rule="nonzero"/><g clip-path="url(#304555a20f)"><path fill="#000000" d="M 232.585938 117.003906 L 233.046875 219.71875 L 261.699219 219.71875 L 261.699219 116.566406 Z M 247.386719 203.710938 C 246.78125 203.714844 246.179688 203.660156 245.582031 203.546875 C 244.984375 203.433594 244.40625 203.261719 243.84375 203.03125 C 243.277344 202.804688 242.742188 202.523438 242.238281 202.1875 C 241.730469 201.855469 241.257812 201.476562 240.828125 201.046875 C 240.394531 200.621094 240.007812 200.15625 239.664062 199.65625 C 239.324219 199.152344 239.035156 198.621094 238.796875 198.0625 C 238.5625 197.503906 238.382812 196.925781 238.257812 196.332031 C 238.136719 195.734375 238.074219 195.132812 238.070312 194.527344 C 238.070312 193.914062 238.128906 193.308594 238.246094 192.707031 C 238.367188 192.109375 238.542969 191.527344 238.777344 190.960938 C 239.011719 190.394531 239.300781 189.859375 239.640625 189.347656 C 239.980469 188.839844 240.367188 188.371094 240.796875 187.9375 C 241.230469 187.503906 241.703125 187.117188 242.210938 186.777344 C 242.71875 186.4375 243.257812 186.152344 243.820312 185.917969 C 244.386719 185.683594 244.96875 185.507812 245.570312 185.386719 C 246.167969 185.269531 246.777344 185.207031 247.386719 185.207031 C 248 185.207031 248.605469 185.269531 249.207031 185.386719 C 249.804688 185.507812 250.386719 185.683594 250.953125 185.917969 C 251.519531 186.152344 252.054688 186.4375 252.566406 186.777344 C 253.074219 187.117188 253.542969 187.503906 253.976562 187.9375 C 254.410156 188.371094 254.796875 188.839844 255.136719 189.347656 C 255.476562 189.859375 255.761719 190.394531 255.996094 190.960938 C 256.230469 191.527344 256.410156 192.109375 256.527344 192.707031 C 256.648438 193.308594 256.707031 193.914062 256.707031 194.527344 C 256.703125 195.132812 256.636719 195.734375 256.515625 196.332031 C 256.394531 196.925781 256.214844 197.503906 255.976562 198.0625 C 255.738281 198.621094 255.453125 199.152344 255.109375 199.65625 C 254.769531 200.15625 254.382812 200.621094 253.949219 201.046875 C 253.515625 201.476562 253.046875 201.855469 252.539062 202.1875 C 252.03125 202.523438 251.496094 202.804688 250.933594 203.03125 C 250.371094 203.261719 249.789062 203.433594 249.195312 203.546875 C 248.597656 203.660156 247.996094 203.714844 247.386719 203.710938 Z M 247.386719 151.632812 C 246.777344 151.632812 246.171875 151.570312 245.574219 151.449219 C 244.976562 151.328125 244.394531 151.152344 243.832031 150.917969 C 243.265625 150.683594 242.730469 150.394531 242.226562 150.054688 C 241.71875 149.710938 241.25 149.324219 240.820312 148.894531 C 240.386719 148.460938 240.003906 147.988281 239.667969 147.480469 C 239.328125 146.972656 239.042969 146.433594 238.8125 145.871094 C 238.578125 145.304688 238.40625 144.722656 238.289062 144.125 C 238.171875 143.523438 238.113281 142.921875 238.113281 142.308594 C 238.117188 141.699219 238.175781 141.09375 238.296875 140.496094 C 238.417969 139.898438 238.597656 139.316406 238.832031 138.753906 C 239.066406 138.191406 239.355469 137.65625 239.695312 137.148438 C 240.039062 136.640625 240.425781 136.171875 240.859375 135.742188 C 241.292969 135.3125 241.761719 134.929688 242.269531 134.589844 C 242.78125 134.253906 243.316406 133.96875 243.882812 133.738281 C 244.445312 133.503906 245.027344 133.332031 245.628906 133.214844 C 246.226562 133.097656 246.832031 133.039062 247.441406 133.039062 C 248.054688 133.042969 248.660156 133.105469 249.257812 133.226562 C 249.855469 133.347656 250.4375 133.527344 251 133.761719 C 251.5625 133.996094 252.097656 134.285156 252.605469 134.625 C 253.109375 134.96875 253.578125 135.355469 254.007812 135.789062 C 254.4375 136.222656 254.824219 136.691406 255.160156 137.203125 C 255.496094 137.710938 255.78125 138.25 256.011719 138.8125 C 256.246094 139.378906 256.417969 139.960938 256.535156 140.558594 C 256.652344 141.160156 256.710938 141.765625 256.707031 142.375 C 256.695312 142.984375 256.628906 143.582031 256.5 144.179688 C 256.375 144.773438 256.191406 145.351562 255.953125 145.910156 C 255.71875 146.46875 255.425781 147 255.085938 147.503906 C 254.746094 148.007812 254.359375 148.472656 253.929688 148.898438 C 253.496094 149.328125 253.03125 149.710938 252.523438 150.050781 C 252.019531 150.386719 251.488281 150.675781 250.925781 150.910156 C 250.367188 151.144531 249.789062 151.324219 249.191406 151.445312 C 248.597656 151.570312 247.996094 151.632812 247.386719 151.640625 Z M 247.386719 151.632812 " fill-opacity="1" fill-rule="nonzero"/></g><g clip-path="url(#f5cbb22b33)"><path fill="#000000" d="M 250.804688 232.136719 L 243.941406 232.136719 L 243.941406 252.152344 L 237.019531 252.152344 L 237.019531 258.691406 L 257.738281 258.691406 L 257.738281 252.152344 L 250.804688 252.152344 Z M 250.804688 232.136719 " fill-opacity="1" fill-rule="nonzero"/></g><path fill="#000000" d="M 187.402344 222.339844 C 187.09375 222.359375 186.804688 222.4375 186.527344 222.566406 C 186.25 222.699219 186.003906 222.875 185.792969 223.101562 C 185.585938 223.324219 185.421875 223.578125 185.308594 223.863281 C 185.195312 224.148438 185.140625 224.445312 185.140625 224.753906 C 185.140625 225.054688 185.199219 225.347656 185.3125 225.625 C 185.429688 225.90625 185.59375 226.152344 185.808594 226.367188 C 186.023438 226.582031 186.269531 226.746094 186.546875 226.859375 C 186.828125 226.976562 187.117188 227.035156 187.421875 227.035156 C 187.722656 227.035156 188.015625 226.976562 188.292969 226.859375 C 188.574219 226.746094 188.820312 226.582031 189.035156 226.367188 C 189.246094 226.152344 189.414062 225.90625 189.527344 225.625 C 189.644531 225.347656 189.703125 225.054688 189.703125 224.753906 C 189.703125 224.441406 189.644531 224.144531 189.53125 223.855469 C 189.414062 223.566406 189.25 223.3125 189.035156 223.085938 C 188.820312 222.863281 188.574219 222.683594 188.289062 222.554688 C 188.007812 222.425781 187.710938 222.355469 187.402344 222.339844 Z M 187.402344 222.339844 " fill-opacity="1" fill-rule="nonzero"/><path fill="#000000" d="M 187.402344 229.203125 C 187.101562 229.214844 186.804688 229.195312 186.511719 229.144531 C 186.21875 229.097656 185.929688 229.019531 185.652344 228.910156 C 185.371094 228.804688 185.105469 228.671875 184.855469 228.511719 C 184.601562 228.351562 184.367188 228.167969 184.152344 227.957031 C 183.9375 227.75 183.746094 227.523438 183.578125 227.277344 C 183.410156 227.03125 183.265625 226.769531 183.152344 226.492188 C 183.035156 226.21875 182.949219 225.933594 182.890625 225.640625 C 182.832031 225.347656 182.800781 225.050781 182.804688 224.753906 C 182.789062 224.445312 182.808594 224.136719 182.859375 223.832031 C 182.90625 223.527344 182.988281 223.230469 183.097656 222.941406 C 183.207031 222.652344 183.34375 222.378906 183.507812 222.117188 C 183.671875 221.855469 183.863281 221.617188 184.078125 221.394531 C 184.289062 221.167969 184.523438 220.972656 184.777344 220.796875 C 185.03125 220.621094 185.300781 220.472656 185.585938 220.351562 C 185.871094 220.230469 186.164062 220.136719 186.464844 220.078125 C 186.769531 220.015625 187.074219 219.984375 187.382812 219.984375 C 187.691406 219.984375 187.996094 220.015625 188.300781 220.078125 C 188.601562 220.136719 188.894531 220.230469 189.179688 220.351562 C 189.464844 220.472656 189.734375 220.621094 189.988281 220.796875 C 190.242188 220.972656 190.476562 221.167969 190.691406 221.394531 C 190.902344 221.617188 191.09375 221.855469 191.257812 222.117188 C 191.421875 222.378906 191.558594 222.652344 191.667969 222.941406 C 191.777344 223.230469 191.859375 223.527344 191.90625 223.832031 C 191.957031 224.136719 191.976562 224.445312 191.964844 224.753906 C 191.964844 225.050781 191.9375 225.347656 191.882812 225.636719 C 191.824219 225.929688 191.738281 226.214844 191.625 226.488281 C 191.511719 226.761719 191.371094 227.023438 191.203125 227.269531 C 191.035156 227.515625 190.84375 227.742188 190.632812 227.953125 C 190.417969 228.160156 190.1875 228.34375 189.9375 228.503906 C 189.6875 228.664062 189.421875 228.800781 189.144531 228.90625 C 188.867188 229.015625 188.582031 229.09375 188.289062 229.144531 C 187.996094 229.191406 187.699219 229.210938 187.402344 229.203125 Z M 187.402344 229.203125 " fill-opacity="1" fill-rule="nonzero"/><g clip-path="url(#0185fdd1e4)"><path fill="#000000" d="M 217.886719 190.847656 L 156.875 190.847656 C 156.429688 190.859375 156 190.957031 155.59375 191.136719 C 155.183594 191.316406 154.824219 191.570312 154.511719 191.886719 C 154.203125 192.207031 153.960938 192.574219 153.792969 192.988281 C 153.625 193.402344 153.542969 193.832031 153.542969 194.277344 L 153.542969 255.136719 C 153.558594 255.578125 153.652344 256.003906 153.824219 256.410156 C 154 256.816406 154.238281 257.175781 154.546875 257.492188 C 154.855469 257.808594 155.210938 258.058594 155.609375 258.242188 C 156.011719 258.425781 156.433594 258.535156 156.875 258.5625 L 217.886719 258.5625 C 218.328125 258.535156 218.75 258.429688 219.15625 258.246094 C 219.558594 258.0625 219.914062 257.816406 220.226562 257.5 C 220.535156 257.183594 220.78125 256.820312 220.957031 256.414062 C 221.132812 256.007812 221.230469 255.582031 221.246094 255.136719 L 221.246094 194.277344 C 221.246094 193.828125 221.15625 193.398438 220.988281 192.984375 C 220.816406 192.570312 220.574219 192.203125 220.261719 191.882812 C 219.945312 191.5625 219.585938 191.3125 219.171875 191.132812 C 218.761719 190.953125 218.332031 190.859375 217.886719 190.847656 Z M 187.402344 243.21875 C 186.792969 243.21875 186.183594 243.191406 185.578125 243.128906 C 184.96875 243.070312 184.367188 242.984375 183.769531 242.863281 C 183.171875 242.746094 182.582031 242.597656 181.996094 242.421875 C 181.414062 242.246094 180.839844 242.039062 180.277344 241.808594 C 179.714844 241.574219 179.164062 241.3125 178.625 241.027344 C 178.085938 240.738281 177.566406 240.425781 177.058594 240.089844 C 176.550781 239.75 176.0625 239.386719 175.589844 239 C 175.117188 238.613281 174.667969 238.203125 174.238281 237.773438 C 173.804688 237.34375 173.398438 236.890625 173.011719 236.417969 C 172.625 235.949219 172.261719 235.460938 171.921875 234.953125 C 171.582031 234.445312 171.269531 233.921875 170.984375 233.382812 C 170.695312 232.847656 170.4375 232.296875 170.203125 231.734375 C 169.972656 231.167969 169.765625 230.597656 169.589844 230.011719 C 169.414062 229.429688 169.265625 228.835938 169.148438 228.238281 C 169.03125 227.640625 168.941406 227.039062 168.882812 226.433594 C 168.824219 225.824219 168.792969 225.21875 168.792969 224.609375 C 168.796875 223.996094 168.824219 223.390625 168.886719 222.78125 C 168.949219 222.175781 169.039062 221.574219 169.15625 220.976562 C 169.277344 220.378906 169.425781 219.789062 169.605469 219.203125 C 169.78125 218.621094 169.988281 218.050781 170.222656 217.484375 C 170.457031 216.921875 170.71875 216.375 171.007812 215.835938 C 171.296875 215.300781 171.609375 214.777344 171.949219 214.273438 C 172.289062 213.765625 172.65625 213.277344 173.042969 212.808594 C 173.429688 212.335938 173.839844 211.886719 174.273438 211.457031 C 174.703125 211.027344 175.15625 210.617188 175.628906 210.234375 C 176.101562 209.847656 176.59375 209.488281 177.101562 209.148438 C 177.609375 208.8125 178.132812 208.5 178.671875 208.214844 C 179.207031 207.929688 179.761719 207.671875 180.324219 207.4375 C 180.886719 207.207031 181.460938 207.003906 182.046875 206.828125 C 182.628906 206.65625 183.222656 206.507812 183.820312 206.390625 C 184.417969 206.273438 185.019531 206.1875 185.628906 206.128906 C 186.234375 206.074219 186.84375 206.046875 187.453125 206.046875 C 188.0625 206.050781 188.671875 206.082031 189.277344 206.144531 C 189.882812 206.207031 190.484375 206.296875 191.082031 206.421875 C 191.679688 206.542969 192.269531 206.691406 192.851562 206.871094 C 193.4375 207.050781 194.007812 207.257812 194.570312 207.496094 C 195.132812 207.730469 195.683594 207.992188 196.21875 208.285156 C 196.753906 208.574219 197.273438 208.890625 197.78125 209.230469 C 198.285156 209.570312 198.773438 209.9375 199.242188 210.324219 C 199.710938 210.714844 200.160156 211.125 200.589844 211.558594 C 201.019531 211.992188 201.425781 212.445312 201.808594 212.917969 C 202.195312 213.394531 202.554688 213.882812 202.890625 214.394531 C 203.226562 214.902344 203.535156 215.425781 203.820312 215.964844 C 204.105469 216.503906 204.363281 217.054688 204.589844 217.621094 C 204.820312 218.1875 205.023438 218.761719 205.195312 219.34375 C 205.371094 219.929688 205.515625 220.519531 205.628906 221.121094 C 205.746094 221.71875 205.832031 222.320312 205.886719 222.929688 C 205.941406 223.535156 205.96875 224.144531 205.964844 224.753906 C 205.960938 225.359375 205.929688 225.964844 205.867188 226.566406 C 205.804688 227.167969 205.714844 227.769531 205.59375 228.363281 C 205.472656 228.957031 205.320312 229.542969 205.144531 230.121094 C 204.964844 230.699219 204.757812 231.269531 204.527344 231.828125 C 204.292969 232.386719 204.03125 232.933594 203.742188 233.46875 C 203.457031 234 203.144531 234.519531 202.804688 235.019531 C 202.464844 235.523438 202.105469 236.007812 201.71875 236.476562 C 201.332031 236.945312 200.925781 237.390625 200.496094 237.816406 C 200.066406 238.246094 199.617188 238.652344 199.148438 239.035156 C 198.675781 239.417969 198.191406 239.777344 197.6875 240.113281 C 197.179688 240.449219 196.660156 240.757812 196.125 241.042969 C 195.59375 241.328125 195.042969 241.585938 194.484375 241.816406 C 193.925781 242.046875 193.355469 242.25 192.773438 242.425781 C 192.195312 242.601562 191.605469 242.746094 191.011719 242.863281 C 190.417969 242.984375 189.820312 243.070312 189.214844 243.128906 C 188.613281 243.1875 188.007812 243.21875 187.402344 243.21875 Z M 187.402344 243.21875 " fill-opacity="1" fill-rule="nonzero"/></g><path fill="#000000" d="M 203.015625 166.261719 C 202.007812 165.210938 200.902344 164.273438 199.699219 163.449219 C 198.5 162.625 197.230469 161.929688 195.886719 161.367188 C 194.542969 160.800781 193.160156 160.375 191.730469 160.09375 C 190.300781 159.808594 188.859375 159.675781 187.402344 159.6875 C 185.941406 159.671875 184.492188 159.804688 183.0625 160.085938 C 181.628906 160.367188 180.238281 160.792969 178.890625 161.355469 C 177.542969 161.921875 176.265625 162.617188 175.0625 163.445312 C 173.855469 164.269531 172.746094 165.207031 171.734375 166.261719 L 176.417969 171.085938 C 177.875 169.628906 179.554688 168.511719 181.457031 167.726562 C 183.359375 166.941406 185.34375 166.554688 187.402344 166.5625 C 189.453125 166.5625 191.429688 166.953125 193.328125 167.738281 C 195.226562 168.523438 196.902344 169.636719 198.355469 171.085938 Z M 203.015625 166.261719 " fill-opacity="1" fill-rule="nonzero"/><path fill="#000000" d="M 185.238281 180.140625 C 185.53125 179.878906 185.859375 179.675781 186.230469 179.535156 C 186.597656 179.394531 186.976562 179.324219 187.371094 179.324219 C 187.765625 179.324219 188.148438 179.394531 188.515625 179.535156 C 188.882812 179.675781 189.210938 179.878906 189.503906 180.140625 L 194.148438 175.300781 C 193.699219 174.863281 193.214844 174.46875 192.6875 174.125 C 192.164062 173.78125 191.609375 173.492188 191.027344 173.253906 C 190.445312 173.015625 189.847656 172.839844 189.230469 172.71875 C 188.613281 172.597656 187.992188 172.535156 187.363281 172.535156 C 186.734375 172.535156 186.113281 172.597656 185.496094 172.71875 C 184.882812 172.839844 184.28125 173.015625 183.699219 173.253906 C 183.117188 173.492188 182.566406 173.78125 182.039062 174.125 C 181.515625 174.46875 181.027344 174.863281 180.578125 175.300781 Z M 185.238281 180.140625 " fill-opacity="1" fill-rule="nonzero"/><path fill="#000000" d="M 213.308594 156.148438 C 212.460938 155.300781 211.570312 154.492188 210.644531 153.730469 C 209.714844 152.964844 208.753906 152.25 207.753906 151.582031 C 206.757812 150.914062 205.726562 150.296875 204.667969 149.726562 C 203.609375 149.160156 202.527344 148.648438 201.414062 148.1875 C 200.304688 147.726562 199.175781 147.320312 198.027344 146.972656 C 196.878906 146.621094 195.714844 146.332031 194.535156 146.09375 C 193.355469 145.859375 192.171875 145.683594 190.976562 145.566406 C 189.777344 145.449219 188.582031 145.390625 187.378906 145.390625 C 186.179688 145.390625 184.980469 145.449219 183.785156 145.566406 C 182.589844 145.683594 181.402344 145.859375 180.222656 146.09375 C 179.042969 146.332031 177.882812 146.621094 176.730469 146.972656 C 175.582031 147.320312 174.453125 147.726562 173.34375 148.1875 C 172.234375 148.648438 171.148438 149.160156 170.089844 149.726562 C 169.03125 150.296875 168.003906 150.914062 167.003906 151.582031 C 166.003906 152.25 165.042969 152.964844 164.113281 153.730469 C 163.1875 154.492188 162.296875 155.300781 161.449219 156.148438 L 166.125 160.878906 C 166.824219 160.1875 167.554688 159.53125 168.316406 158.910156 C 169.082031 158.289062 169.871094 157.707031 170.691406 157.164062 C 171.511719 156.621094 172.355469 156.117188 173.226562 155.65625 C 174.09375 155.199219 174.984375 154.78125 175.890625 154.40625 C 176.800781 154.03125 177.726562 153.703125 178.667969 153.417969 C 179.609375 153.136719 180.5625 152.898438 181.527344 152.707031 C 182.492188 152.519531 183.464844 152.375 184.445312 152.277344 C 185.421875 152.183594 186.402344 152.136719 187.386719 152.136719 C 188.371094 152.136719 189.351562 152.183594 190.328125 152.277344 C 191.308594 152.375 192.28125 152.519531 193.246094 152.707031 C 194.210938 152.898438 195.164062 153.136719 196.105469 153.417969 C 197.046875 153.703125 197.972656 154.03125 198.882812 154.40625 C 199.789062 154.78125 200.679688 155.199219 201.546875 155.65625 C 202.417969 156.117188 203.261719 156.621094 204.082031 157.164062 C 204.902344 157.707031 205.691406 158.289062 206.457031 158.910156 C 207.21875 159.53125 207.949219 160.1875 208.648438 160.878906 Z M 213.308594 156.148438 " fill-opacity="1" fill-rule="nonzero"/><path fill="#000000" d="M 150.910156 145.59375 L 155.902344 150.414062 C 156.9375 149.386719 158.019531 148.414062 159.148438 147.496094 C 160.277344 146.574219 161.449219 145.714844 162.664062 144.910156 C 163.878906 144.101562 165.128906 143.359375 166.414062 142.675781 C 167.699219 141.992188 169.019531 141.375 170.363281 140.820312 C 171.710938 140.265625 173.082031 139.777344 174.476562 139.359375 C 175.871094 138.9375 177.285156 138.585938 178.714844 138.304688 C 180.140625 138.019531 181.582031 137.808594 183.03125 137.667969 C 184.480469 137.523438 185.933594 137.453125 187.390625 137.453125 C 188.847656 137.453125 190.300781 137.523438 191.75 137.667969 C 193.199219 137.808594 194.640625 138.019531 196.066406 138.304688 C 197.496094 138.585938 198.910156 138.9375 200.304688 139.359375 C 201.699219 139.777344 203.070312 140.265625 204.417969 140.820312 C 205.761719 141.375 207.082031 141.992188 208.367188 142.675781 C 209.652344 143.359375 210.902344 144.101562 212.117188 144.910156 C 213.332031 145.714844 214.503906 146.574219 215.632812 147.496094 C 216.761719 148.414062 217.84375 149.386719 218.878906 150.414062 L 223.863281 145.59375 C 222.667969 144.40625 221.414062 143.277344 220.105469 142.210938 C 218.796875 141.144531 217.441406 140.144531 216.035156 139.207031 C 214.628906 138.273438 213.179688 137.410156 211.691406 136.621094 C 210.199219 135.828125 208.675781 135.109375 207.113281 134.464844 C 205.554688 133.824219 203.964844 133.257812 202.347656 132.769531 C 200.734375 132.28125 199.097656 131.875 197.441406 131.546875 C 195.785156 131.21875 194.117188 130.972656 192.4375 130.808594 C 190.757812 130.640625 189.074219 130.558594 187.386719 130.558594 C 185.699219 130.558594 184.015625 130.640625 182.335938 130.808594 C 180.65625 130.972656 178.988281 131.21875 177.332031 131.546875 C 175.675781 131.875 174.039062 132.28125 172.425781 132.769531 C 170.808594 133.257812 169.21875 133.824219 167.660156 134.464844 C 166.097656 135.109375 164.574219 135.828125 163.082031 136.621094 C 161.59375 137.410156 160.144531 138.273438 158.738281 139.207031 C 157.332031 140.144531 155.976562 141.144531 154.667969 142.210938 C 153.359375 143.277344 152.109375 144.40625 150.910156 145.59375 Z M 150.910156 145.59375 " fill-opacity="1" fill-rule="nonzero"/><g clip-path="url(#e5d0d68760)"><path fill="#ffffff" d="M 187.5 30.164062 C 100.542969 30.164062 30.164062 100.53125 30.164062 187.5 C 30.164062 274.457031 100.53125 344.835938 187.5 344.835938 C 274.457031 344.835938 344.835938 274.46875 344.835938 187.5 C 344.835938 100.542969 274.46875 30.164062 187.5 30.164062 Z M 187.5 326.324219 C 110.949219 326.324219 48.675781 264.046875 48.675781 187.5 C 48.675781 110.949219 110.949219 48.675781 187.5 48.675781 C 264.046875 48.675781 326.324219 110.949219 326.324219 187.5 C 326.324219 264.046875 264.046875 326.324219 187.5 326.324219 Z M 187.5 326.324219 " fill-opacity="1" fill-rule="nonzero"/></g><path fill="#ffffff" d="M 270.796875 243.03125 L 176.652344 243.03125 C 172.832031 232.257812 162.546875 224.519531 150.480469 224.519531 C 138.414062 224.519531 128.125 232.257812 124.304688 243.03125 L 104.203125 243.03125 C 99.09375 243.03125 94.949219 247.171875 94.949219 252.285156 C 94.949219 257.394531 99.09375 261.539062 104.203125 261.539062 L 124.304688 261.539062 C 128.125 272.3125 138.414062 280.050781 150.480469 280.050781 C 162.546875 280.050781 172.832031 272.3125 176.652344 261.539062 L 270.796875 261.539062 C 275.90625 261.539062 280.050781 257.394531 280.050781 252.285156 C 280.050781 247.171875 275.90625 243.03125 270.796875 243.03125 Z M 270.796875 243.03125 " fill-opacity="1" fill-rule="nonzero"/><path fill="#ffffff" d="M 270.796875 122.714844 L 176.652344 122.714844 C 172.832031 111.941406 162.546875 104.203125 150.480469 104.203125 C 138.414062 104.203125 128.125 111.941406 124.304688 122.714844 L 104.203125 122.714844 C 99.09375 122.714844 94.949219 126.859375 94.949219 131.96875 C 94.949219 137.082031 99.09375 141.222656 104.203125 141.222656 L 124.304688 141.222656 C 128.125 151.996094 138.414062 159.734375 150.480469 159.734375 C 162.546875 159.734375 172.832031 151.996094 176.652344 141.222656 L 270.796875 141.222656 C 275.90625 141.222656 280.050781 137.082031 280.050781 131.96875 C 280.050781 126.859375 275.90625 122.714844 270.796875 122.714844 Z M 270.796875 122.714844 " fill-opacity="1" fill-rule="nonzero"/><path fill="#ffffff" d="M 270.796875 178.246094 L 250.691406 178.246094 C 246.871094 167.472656 236.585938 159.734375 224.519531 159.734375 C 212.453125 159.734375 202.167969 167.472656 198.347656 178.246094 L 104.203125 178.246094 C 99.09375 178.246094 94.949219 182.386719 94.949219 187.5 C 94.949219 192.609375 99.09375 196.753906 104.203125 196.753906 L 198.347656 196.753906 C 202.167969 207.527344 212.453125 215.265625 224.519531 215.265625 C 236.585938 215.265625 246.871094 207.527344 250.691406 196.753906 L 270.796875 196.753906 C 275.90625 196.753906 280.050781 192.609375 280.050781 187.5 C 280.050781 182.386719 275.90625 178.246094 270.796875 178.246094 Z M 270.796875 178.246094 " fill-opacity="1" fill-rule="nonzero"/></svg>