<svg xmlns="http://www.w3.org/2000/svg" xmlns:xlink="http://www.w3.org/1999/xlink" width="500" zoomAndPan="magnify" viewBox="0 0 375 374.999991" height="500" preserveAspectRatio="xMidYMid meet" version="1.0"><defs><g/></defs><g fill="#ffffff" fill-opacity="1"><g transform="translate(21.296839, 243.437797)"><g><path d="M 56.390625 0 L 31.671875 -80.546875 L 31.046875 -80.546875 C 31.140625 -78.628906 31.289062 -75.738281 31.5 -71.875 C 31.707031 -68.007812 31.90625 -63.898438 32.09375 -59.546875 C 32.28125 -55.191406 32.375 -51.257812 32.375 -47.75 L 32.375 0 L 12.921875 0 L 12.921875 -102.671875 L 42.5625 -102.671875 L 66.859375 -24.15625 L 67.28125 -24.15625 L 93.046875 -102.671875 L 122.6875 -102.671875 L 122.6875 0 L 102.390625 0 L 102.390625 -48.59375 C 102.390625 -51.820312 102.445312 -55.539062 102.5625 -59.75 C 102.6875 -63.96875 102.84375 -67.984375 103.03125 -71.796875 C 103.21875 -75.617188 103.359375 -78.488281 103.453125 -80.40625 L 102.8125 -80.40625 L 76.34375 0 Z M 56.390625 0 "/></g></g></g><g fill="#ffffff" fill-opacity="1"><g transform="translate(156.904533, 243.437797)"><g><path d="M 45.71875 -102.671875 C 58.96875 -102.671875 68.632812 -99.828125 74.71875 -94.140625 C 80.8125 -88.453125 83.859375 -80.625 83.859375 -70.65625 C 83.859375 -66.15625 83.175781 -61.859375 81.8125 -57.765625 C 80.457031 -53.671875 78.242188 -50.03125 75.171875 -46.84375 C 72.109375 -43.65625 68.023438 -41.132812 62.921875 -39.28125 C 57.816406 -37.4375 51.519531 -36.515625 44.03125 -36.515625 L 34.6875 -36.515625 L 34.6875 0 L 12.921875 0 L 12.921875 -102.671875 Z M 44.59375 -84.84375 L 34.6875 -84.84375 L 34.6875 -54.359375 L 41.859375 -54.359375 C 45.929688 -54.359375 49.460938 -54.894531 52.453125 -55.96875 C 55.453125 -57.050781 57.769531 -58.738281 59.40625 -61.03125 C 61.050781 -63.320312 61.875 -66.269531 61.875 -69.875 C 61.875 -74.9375 60.46875 -78.695312 57.65625 -81.15625 C 54.84375 -83.613281 50.488281 -84.84375 44.59375 -84.84375 Z M 44.59375 -84.84375 "/></g></g></g><g fill="#ffffff" fill-opacity="1"><g transform="translate(247.216012, 243.437797)"><g><path d="M 98.109375 -52.3125 C 98.109375 -40.75 95.894531 -31.09375 91.46875 -23.34375 C 87.050781 -15.601562 80.648438 -9.773438 72.265625 -5.859375 C 63.878906 -1.953125 53.789062 0 42 0 L 12.921875 0 L 12.921875 -102.671875 L 45.15625 -102.671875 C 55.925781 -102.671875 65.265625 -100.765625 73.171875 -96.953125 C 81.085938 -93.140625 87.222656 -87.5 91.578125 -80.03125 C 95.929688 -72.5625 98.109375 -63.320312 98.109375 -52.3125 Z M 75.5 -51.765625 C 75.5 -59.347656 74.382812 -65.582031 72.15625 -70.46875 C 69.9375 -75.363281 66.660156 -78.984375 62.328125 -81.328125 C 57.992188 -83.671875 52.644531 -84.84375 46.28125 -84.84375 L 34.6875 -84.84375 L 34.6875 -17.984375 L 44.03125 -17.984375 C 54.65625 -17.984375 62.554688 -20.8125 67.734375 -26.46875 C 72.910156 -32.132812 75.5 -40.566406 75.5 -51.765625 Z M 75.5 -51.765625 "/></g></g></g></svg>